SplineFontDB: 3.2
FontName: Atari-820-Sideways
FullName: Atari 820 Sideways Regular
FamilyName: Atari 820 Sideways
Weight: Book
Copyright: Copyright Jeff Piepmeier 2020
Version: 1.0
ItalicAngle: 0
UnderlinePosition: 0
UnderlineWidth: 0
Ascent: 800
Descent: 200
InvalidEm: 0
sfntRevision: 0x00010000
LayerCount: 2
Layer: 0 1 "Back" 1
Layer: 1 1 "Fore" 0
XUID: [1021 362 -792500644 30853]
StyleMap: 0x0040
FSType: 4
OS2Version: 2
OS2_WeightWidthSlopeOnly: 0
OS2_UseTypoMetrics: 0
CreationTime: 1585964635
ModificationTime: 1589027237
PfmFamily: 81
TTFWeight: 400
TTFWidth: 5
LineGap: 0
VLineGap: 0
Panose: 0 0 4 0 0 0 0 0 0 0
OS2TypoAscent: 1000
OS2TypoAOffset: 0
OS2TypoDescent: 0
OS2TypoDOffset: 0
OS2TypoLinegap: 0
OS2WinAscent: 1000
OS2WinAOffset: 0
OS2WinDescent: 0
OS2WinDOffset: 0
HheadAscent: 1000
HheadAOffset: 0
HheadDescent: 0
HheadDOffset: 0
OS2SubXSize: 500
OS2SubYSize: 500
OS2SubXOff: 0
OS2SubYOff: 0
OS2SupXSize: 500
OS2SupYSize: 500
OS2SupXOff: 0
OS2SupYOff: 500
OS2StrikeYSize: 50
OS2StrikeYPos: 200
OS2CapHeight: 1000
OS2XHeight: 1000
OS2Vendor: 'FSTR'
OS2CodePages: 00000001.00000000
OS2UnicodeRanges: 00000001.00000000.00000000.00000000
MarkAttachClasses: 1
DEI: 91125
ShortTable: maxp 16
  1
  0
  83
  463
  23
  0
  0
  2
  0
  0
  0
  0
  0
  0
  0
  0
EndShort
LangName: 1033 "" "" "Regular" "Atari 820 Sideways" "" "Version 1.0" "" "" "" "" "" "" "" "Open Font License" "" "" "" "" "" "Five big quacking zephyrs jolt my wax bed"
Encoding: UnicodeBmp
UnicodeInterp: none
NameList: AGL For New Fonts
DisplaySize: -48
AntiAlias: 1
FitToEm: 0
WinInfo: 64 16 10
BeginPrivate: 0
EndPrivate
BeginChars: 65539 95

StartChar: zero
Encoding: 48 48 1
Width: 666
VWidth: 699
Flags: W
LayerCount: 2
Fore
SplineSet
342 22 m 1,0,1
 342 22 l 1,2,-1
 342 22 l 1,3,4
 342 22 l 1,5,-1
 342 22 l 1,0,1
175 22 m 1,6,7
 175 22 l 1,8,-1
 175 22 l 1,9,10
 175 22 l 1,11,-1
 175 22 l 1,6,7
133 0 m 1,12,13
 112 0 112 0 98 15 c 0,14,15
 83 30 83 30 83 50 c 256,16,17
 83 71 83 71 98 85 c 256,18,19
 113 100 113 100 133 100 c 256,20,21
 154 100 154 100 169 85 c 0,22,23
 173 81 173 81 175 78 c 1,24,-1
 175 78 l 1,25,26
 178 82 178 82 181 85 c 0,27,28
 196 100 196 100 216 100 c 256,29,30
 237 100 237 100 252 85 c 0,31,32
 256 81 256 81 258 78 c 1,33,-1
 258 78 l 1,34,35
 261 82 261 82 265 85 c 0,36,37
 280 100 280 100 300 100 c 256,38,39
 321 100 321 100 335 85 c 0,40,41
 339 81 339 81 342 78 c 1,42,-1
 342 78 l 1,43,44
 345 82 345 82 348 85 c 0,45,46
 363 100 363 100 384 100 c 128,-1,47
 405 100 405 100 419 85 c 0,48,49
 423 81 423 81 425 78 c 1,50,-1
 425 78 l 1,51,52
 428 82 428 82 431 85 c 0,53,54
 446 100 446 100 467 100 c 256,55,56
 488 100 488 100 502 85 c 256,57,58
 517 70 517 70 517 50 c 256,59,60
 517 29 517 29 502 15 c 0,61,62
 487 0 487 0 467 0 c 256,63,64
 446 0 446 0 431 15 c 0,65,66
 427 19 427 19 425 22 c 1,67,68
 422 18 422 18 419 15 c 0,69,70
 404 0 404 0 384 0 c 0,71,72
 363 0 363 0 348 15 c 0,73,74
 344 19 344 19 342 22 c 1,75,76
 339 18 339 18 335 15 c 0,77,78
 320 0 320 0 300 0 c 256,79,80
 279 0 279 0 265 15 c 0,81,82
 261 19 261 19 258 22 c 1,83,84
 255 18 255 18 252 15 c 0,85,86
 237 0 237 0 216 0 c 256,87,88
 195 0 195 0 181 15 c 0,89,90
 177 19 177 19 175 22 c 1,91,92
 172 18 172 18 169 15 c 0,93,94
 154 0 154 0 133 0 c 1,95,-1
 133 0 l 1,12,13
508 122 m 1,96,-1
 508 122 l 1,97,-1
 508 122 l 1,98,-1
 508 122 l 1,99,-1
 508 122 l 1,96,-1
50 100 m 1,100,101
 29 100 29 100 15 115 c 0,102,103
 0 130 0 130 0 150 c 256,104,105
 0 172 0 172 15 186 c 0,106,107
 29.0625 200.0625 29.0625 200.0625 47.51953125 200.0625 c 0,108,109
 48.75 200.0625 48.75 200.0625 50 200 c 256,110,111
 71 200 71 200 85 186 c 256,112,113
 100 171 100 171 100 150 c 256,114,115
 100 129 100 129 85 115 c 0,116,117
 70 100 70 100 50 100 c 1,118,-1
 50 100 l 1,100,101
467 100 m 1,119,120
 446 100 446 100 431 115 c 128,-1,121
 416 130 416 130 416 150 c 256,122,123
 416 172 416 172 431 186 c 0,124,125
 445.0625 200.0625 445.0625 200.0625 464.3984375 200.0625 c 0,126,127
 465.6875 200.0625 465.6875 200.0625 467 200 c 256,128,129
 488 200 488 200 502 186 c 0,130,131
 506 182 506 182 508 178 c 1,132,-1
 508 178 l 1,133,134
 510 182 510 182 514 186 c 0,135,136
 528.0625 200.0625 528.0625 200.0625 547.3984375 200.0625 c 0,137,138
 548.6875 200.0625 548.6875 200.0625 550 200 c 256,139,140
 571 200 571 200 585 186 c 0,141,142
 600 171 600 171 600 150 c 256,143,144
 600 129 600 129 585 115 c 0,145,146
 570 100 570 100 550 100 c 256,147,148
 528 100 528 100 514 115 c 0,149,150
 510 119 510 119 508 122 c 1,151,152
 505 118 505 118 502 115 c 0,153,154
 487 100 487 100 467 100 c 1,155,-1
 467 100 l 1,119,120
50 200 m 1,156,157
 29 200 29 200 15 214 c 0,158,159
 0 229 0 229 0 250 c 256,160,161
 0 271 0 271 15 285 c 0,162,163
 30 300 30 300 50 300 c 256,164,165
 71 300 71 300 85 285 c 256,166,167
 100 270 100 270 100 250 c 256,168,169
 100 229 100 229 85 214 c 0,170,171
 70.9375 199.9375 70.9375 199.9375 52.48046875 199.9375 c 0,172,173
 51.25 199.9375 51.25 199.9375 50 200 c 1,174,-1
 50 200 l 1,156,157
384 200 m 1,175,176
 363 200 363 200 348 214 c 0,177,178
 333 229 333 229 333 250 c 256,179,180
 333 271 333 271 348 285 c 0,181,182
 363 300 363 300 384 300 c 128,-1,183
 405 300 405 300 419 285 c 0,184,185
 433.0625 270.9375 433.0625 270.9375 433.0625 252.48046875 c 0,186,187
 433.0625 229.066964286 433.0625 229.066964286 419 214 c 0,188,189
 404.9375 199.9375 404.9375 199.9375 386.48046875 199.9375 c 0,190,191
 385.25 199.9375 385.25 199.9375 384 200 c 1,192,-1
 384 200 l 1,175,176
550 200 m 1,193,194
 528 200 528 200 514 214 c 128,-1,195
 499.9375 228.0625 499.9375 228.0625 499.9375 247.3984375 c 0,196,197
 499.9375 270.9375 499.9375 270.9375 514 285 c 256,198,199
 529 300 529 300 550 300 c 256,200,201
 571 300 571 300 585 285 c 0,202,203
 600 270 600 270 600 250 c 256,204,205
 600 229 600 229 585 214 c 0,206,207
 570.9375 199.9375 570.9375 199.9375 552.48046875 199.9375 c 0,208,209
 551.25 199.9375 551.25 199.9375 550 200 c 1,210,-1
 550 200 l 1,193,194
50 300 m 1,211,212
 29 300 29 300 15 314 c 0,213,214
 0 329 0 329 0 350 c 128,-1,215
 0 371 0 371 15 386 c 0,216,217
 29.0625 400.0625 29.0625 400.0625 47.51953125 400.0625 c 0,218,219
 48.75 400.0625 48.75 400.0625 50 400 c 256,220,221
 71 400 71 400 85 386 c 0,222,223
 100 371 100 371 100 350 c 128,-1,224
 100 329 100 329 85 314 c 0,225,226
 70.9375 299.9375 70.9375 299.9375 52.48046875 299.9375 c 0,227,228
 51.25 299.9375 51.25 299.9375 50 300 c 1,229,-1
 50 300 l 1,211,212
300 300 m 1,230,231
 279 300 279 300 265 314 c 0,232,233
 250 329 250 329 250 350 c 128,-1,234
 250 371 250 371 265 386 c 0,235,236
 279.0625 400.0625 279.0625 400.0625 297.51953125 400.0625 c 0,237,238
 298.75 400.0625 298.75 400.0625 300 400 c 256,239,240
 321 400 321 400 335 386 c 0,241,242
 350 371 350 371 350 350 c 128,-1,243
 350 329 350 329 335 314 c 0,244,245
 320.9375 299.9375 320.9375 299.9375 302.48046875 299.9375 c 0,246,247
 301.25 299.9375 301.25 299.9375 300 300 c 1,248,-1
 300 300 l 1,230,231
550 300 m 1,249,250
 528 300 528 300 514 314 c 128,-1,251
 499.9375 328.0625 499.9375 328.0625 499.9375 347.3984375 c 0,252,253
 499.9375 370.933035714 499.9375 370.933035714 514 386 c 0,254,255
 528.0625 400.0625 528.0625 400.0625 547.3984375 400.0625 c 0,256,257
 548.6875 400.0625 548.6875 400.0625 550 400 c 256,258,259
 571 400 571 400 585 386 c 0,260,261
 600 371 600 371 600 350 c 128,-1,262
 600 329 600 329 585 314 c 0,263,264
 570.9375 299.9375 570.9375 299.9375 552.48046875 299.9375 c 0,265,266
 551.25 299.9375 551.25 299.9375 550 300 c 1,267,-1
 550 300 l 1,249,250
50 400 m 1,268,269
 29 400 29 400 15 414 c 0,270,271
 0 429 0 429 0 450 c 256,272,273
 0 471 0 471 15 485 c 0,274,275
 30 500 30 500 50 500 c 256,276,277
 71 500 71 500 85 485 c 0,278,279
 100 470 100 470 100 450 c 256,280,281
 100 429 100 429 85 414 c 256,282,283
 70.9375 399.9375 70.9375 399.9375 52.48046875 399.9375 c 0,284,285
 51.25 399.9375 51.25 399.9375 50 400 c 1,286,-1
 50 400 l 1,268,269
216 400 m 1,287,288
 195 400 195 400 181 414 c 128,-1,289
 166.9375 428.0625 166.9375 428.0625 166.9375 447.3984375 c 0,290,291
 166.9375 470.9375 166.9375 470.9375 181 485 c 0,292,293
 196 500 196 500 216 500 c 256,294,295
 237 500 237 500 252 485 c 128,-1,296
 267 470 267 470 267 450 c 256,297,298
 267 429 267 429 252 414 c 256,299,300
 237.9375 399.9375 237.9375 399.9375 218.6015625 399.9375 c 0,301,302
 217.3125 399.9375 217.3125 399.9375 216 400 c 1,303,-1
 216 400 l 1,287,288
550 400 m 1,304,305
 528 400 528 400 514 414 c 256,306,307
 499.9375 428.0625 499.9375 428.0625 499.9375 447.3984375 c 0,308,309
 499.9375 470.9375 499.9375 470.9375 514 485 c 0,310,311
 529 500 529 500 550 500 c 256,312,313
 571 500 571 500 585 485 c 0,314,315
 600 470 600 470 600 450 c 256,316,317
 600 429 600 429 585 414 c 0,318,319
 570.9375 399.9375 570.9375 399.9375 552.48046875 399.9375 c 0,320,321
 551.25 399.9375 551.25 399.9375 550 400 c 1,322,-1
 550 400 l 1,304,305
92 522 m 1,323,-1
 92 522 l 1,324,-1
 92 522 l 1,325,-1
 92 522 l 1,326,-1
 92 522 l 1,323,-1
50 500 m 1,327,328
 29 500 29 500 15 514 c 0,329,330
 0 529 0 529 0 550 c 256,331,332
 0 571 0 571 15 585 c 0,333,334
 30 600 30 600 50 600 c 256,335,336
 71 600 71 600 85 585 c 0,337,338
 89 582 89 582 92 578 c 1,339,-1
 92 578 l 1,340,341
 95 582 95 582 98 585 c 0,342,343
 113 600 113 600 133 600 c 256,344,345
 154 600 154 600 169 585 c 0,346,347
 183.0625 570.9375 183.0625 570.9375 183.0625 552.48046875 c 0,348,349
 183.0625 528.0625 183.0625 528.0625 169 514 c 128,-1,350
 154.9375 499.9375 154.9375 499.9375 135.6015625 499.9375 c 0,351,352
 134.3125 499.9375 134.3125 499.9375 133 500 c 256,353,354
 112 500 112 500 98 514 c 0,355,356
 94 518 94 518 92 522 c 1,357,358
 89 518 89 518 85 514 c 0,359,360
 70.9375 499.9375 70.9375 499.9375 52.48046875 499.9375 c 0,361,362
 51.25 499.9375 51.25 499.9375 50 500 c 1,363,-1
 50 500 l 1,327,328
550 500 m 1,364,365
 528 500 528 500 514 514 c 256,366,367
 499.9375 528.0625 499.9375 528.0625 499.9375 547.3984375 c 0,368,369
 499.9375 570.9375 499.9375 570.9375 514 585 c 0,370,371
 529 600 529 600 550 600 c 256,372,373
 571 600 571 600 585 585 c 0,374,375
 600 570 600 570 600 550 c 256,376,377
 600 528 600 528 585 514 c 0,378,379
 570.9375 499.9375 570.9375 499.9375 552.48046875 499.9375 c 0,380,381
 551.25 499.9375 551.25 499.9375 550 500 c 1,382,-1
 550 500 l 1,364,365
175 622 m 1,383,-1
 175 622 l 1,384,-1
 175 622 l 1,385,-1
 175 622 l 1,386,-1
 175 622 l 1,383,-1
342 622 m 1,387,-1
 342 622 l 1,388,-1
 342 622 l 1,389,-1
 342 622 l 1,390,-1
 342 622 l 1,387,-1
133 600 m 1,391,392
 112 600 112 600 98 615 c 256,393,394
 83 630 83 630 83 650 c 256,395,396
 83 671 83 671 98 685 c 256,397,398
 113 700 113 700 133 700 c 256,399,400
 154 700 154 700 169 685 c 0,401,402
 173 681 173 681 175 678 c 1,403,-1
 175 678 l 1,404,405
 178 682 178 682 181 685 c 0,406,407
 196 700 196 700 216 700 c 256,408,409
 237 700 237 700 252 685 c 0,410,411
 256 681 256 681 258 678 c 1,412,-1
 258 678 l 1,413,414
 261 682 261 682 265 685 c 0,415,416
 280 700 280 700 300 700 c 256,417,418
 321 700 321 700 335 685 c 0,419,420
 339 681 339 681 342 678 c 1,421,-1
 342 678 l 1,422,423
 345 682 345 682 348 685 c 0,424,425
 363 700 363 700 384 700 c 128,-1,426
 405 700 405 700 419 685 c 0,427,428
 423 681 423 681 425 678 c 1,429,-1
 425 678 l 1,430,431
 428 682 428 682 431 685 c 0,432,433
 446 700 446 700 467 700 c 256,434,435
 488 700 488 700 502 685 c 256,436,437
 517 670 517 670 517 650 c 256,438,439
 517 629 517 629 502 615 c 256,440,441
 487 600 487 600 467 600 c 256,442,443
 446 600 446 600 431 615 c 0,444,445
 427 619 427 619 425 622 c 1,446,447
 422 618 422 618 419 615 c 0,448,449
 404 600 404 600 384 600 c 0,450,451
 363 600 363 600 348 615 c 0,452,453
 344 619 344 619 342 622 c 1,454,455
 339 618 339 618 335 615 c 0,456,457
 320 600 320 600 300 600 c 256,458,459
 279 600 279 600 265 615 c 0,460,461
 261 619 261 619 258 622 c 1,462,-1
 258 622 l 1,463,464
 255 618 255 618 252 615 c 0,465,466
 237 600 237 600 216 600 c 256,467,468
 195 600 195 600 181 615 c 0,469,470
 177 619 177 619 175 622 c 1,471,-1
 175 622 l 1,472,473
 172 618 172 618 169 615 c 0,474,475
 154 600 154 600 133 600 c 1,476,-1
 133 600 l 1,391,392
EndSplineSet
Validated: 524293
EndChar

StartChar: one
Encoding: 49 49 2
Width: 666
VWidth: 699
Flags: W
LayerCount: 2
Fore
SplineSet
50 200 m 1,0,1
 29 200 29 200 15 214 c 0,2,3
 0 229 0 229 0 250 c 256,4,5
 0 271 0 271 15 285 c 0,6,7
 30 300 30 300 50 300 c 256,8,9
 71 300 71 300 85 285 c 256,10,11
 100 270 100 270 100 250 c 256,12,13
 100 229 100 229 85 214 c 0,14,15
 70.9375 199.9375 70.9375 199.9375 52.48046875 199.9375 c 0,16,17
 51.25 199.9375 51.25 199.9375 50 200 c 1,18,-1
 50 200 l 1,0,1
342 322 m 1,19,-1
 342 322 l 1,20,-1
 342 322 l 1,21,-1
 342 322 l 1,22,-1
 342 322 l 1,19,-1
508 322 m 1,23,24
 508 322 l 1,25,-1
 508 322 l 1,26,27
 508 322 l 1,28,-1
 508 322 l 1,23,24
92 322 m 1,29,30
 92 322 l 1,31,-1
 92 322 l 1,32,33
 92 322 l 1,34,-1
 92 322 l 1,29,30
175 322 m 1,35,36
 175 322 l 1,37,-1
 175 322 l 1,38,39
 175 322 l 1,40,-1
 175 322 l 1,35,36
50 300 m 1,41,42
 29 300 29 300 15 314 c 0,43,44
 0 329 0 329 0 350 c 128,-1,45
 0 371 0 371 15 386 c 0,46,47
 29.0625 400.0625 29.0625 400.0625 47.51953125 400.0625 c 0,48,49
 48.75 400.0625 48.75 400.0625 50 400 c 256,50,51
 71 400 71 400 85 386 c 0,52,53
 89 382 89 382 92 378 c 1,54,-1
 92 378 l 1,55,56
 95 382 95 382 98 386 c 0,57,58
 112.0625 400.0625 112.0625 400.0625 130.51953125 400.0625 c 0,59,60
 131.75 400.0625 131.75 400.0625 133 400 c 256,61,62
 154 400 154 400 169 386 c 0,63,64
 173 382 173 382 175 378 c 1,65,-1
 175 378 l 1,66,67
 178 382 178 382 181 386 c 0,68,69
 195.0625 400.0625 195.0625 400.0625 213.51953125 400.0625 c 0,70,71
 214.75 400.0625 214.75 400.0625 216 400 c 256,72,73
 237 400 237 400 252 386 c 0,74,75
 256 382 256 382 258 378 c 1,76,-1
 258 378 l 1,77,78
 261 382 261 382 265 386 c 0,79,80
 279.0625 400.0625 279.0625 400.0625 297.51953125 400.0625 c 0,81,82
 298.75 400.0625 298.75 400.0625 300 400 c 256,83,84
 321 400 321 400 335 386 c 0,85,86
 339 382 339 382 342 378 c 1,87,-1
 342 378 l 1,88,89
 345 382 345 382 348 386 c 0,90,91
 362.0625 400.0625 362.0625 400.0625 381.3984375 400.0625 c 0,92,93
 382.6875 400.0625 382.6875 400.0625 384 400 c 0,94,95
 405 400 405 400 419 386 c 0,96,97
 423 382 423 382 425 378 c 1,98,-1
 425 378 l 1,99,100
 428 382 428 382 431 386 c 0,101,102
 445.0625 400.0625 445.0625 400.0625 464.3984375 400.0625 c 0,103,104
 465.6875 400.0625 465.6875 400.0625 467 400 c 256,105,106
 488 400 488 400 502 386 c 0,107,108
 506 382 506 382 508 378 c 1,109,-1
 508 378 l 1,110,111
 510 382 510 382 514 386 c 0,112,113
 528.0625 400.0625 528.0625 400.0625 547.3984375 400.0625 c 0,114,115
 548.6875 400.0625 548.6875 400.0625 550 400 c 256,116,117
 571 400 571 400 585 386 c 0,118,119
 600 371 600 371 600 350 c 128,-1,120
 600 329 600 329 585 314 c 0,121,122
 570.9375 299.9375 570.9375 299.9375 552.48046875 299.9375 c 0,123,124
 551.25 299.9375 551.25 299.9375 550 300 c 256,125,126
 528 300 528 300 514 314 c 0,127,128
 510 318 510 318 508 322 c 1,129,130
 505 318 505 318 502 314 c 0,131,132
 487.9375 299.9375 487.9375 299.9375 469.48046875 299.9375 c 0,133,134
 468.25 299.9375 468.25 299.9375 467 300 c 256,135,136
 446 300 446 300 431 314 c 0,137,138
 427 318 427 318 425 322 c 1,139,-1
 425 322 l 1,140,141
 422 318 422 318 419 314 c 0,142,143
 404.9375 299.9375 404.9375 299.9375 386.48046875 299.9375 c 0,144,145
 385.25 299.9375 385.25 299.9375 384 300 c 0,146,147
 363 300 363 300 348 314 c 0,148,149
 344 318 344 318 342 322 c 1,150,151
 339 318 339 318 335 314 c 0,152,153
 320.9375 299.9375 320.9375 299.9375 302.48046875 299.9375 c 0,154,155
 301.25 299.9375 301.25 299.9375 300 300 c 256,156,157
 279 300 279 300 265 314 c 0,158,159
 261 318 261 318 258 322 c 1,160,161
 255 318 255 318 252 314 c 0,162,163
 237.9375 299.9375 237.9375 299.9375 218.6015625 299.9375 c 0,164,165
 217.3125 299.9375 217.3125 299.9375 216 300 c 256,166,167
 195 300 195 300 181 314 c 0,168,169
 177 318 177 318 175 322 c 1,170,-1
 175 322 l 1,171,172
 172 318 172 318 169 314 c 0,173,174
 154.9375 299.9375 154.9375 299.9375 135.6015625 299.9375 c 0,175,176
 134.3125 299.9375 134.3125 299.9375 133 300 c 256,177,178
 112 300 112 300 98 314 c 0,179,180
 94 318 94 318 92 322 c 1,181,182
 89 318 89 318 85 314 c 0,183,184
 70.9375 299.9375 70.9375 299.9375 52.48046875 299.9375 c 0,185,186
 51.25 299.9375 51.25 299.9375 50 300 c 1,187,-1
 50 300 l 1,41,42
50 400 m 1,188,189
 29 400 29 400 15 414 c 0,190,191
 0 429 0 429 0 450 c 256,192,193
 0 471 0 471 15 485 c 0,194,195
 30 500 30 500 50 500 c 256,196,197
 71 500 71 500 85 485 c 0,198,199
 100 470 100 470 100 450 c 256,200,201
 100 429 100 429 85 414 c 256,202,203
 70.9375 399.9375 70.9375 399.9375 52.48046875 399.9375 c 0,204,205
 51.25 399.9375 51.25 399.9375 50 400 c 1,206,-1
 50 400 l 1,188,189
467 400 m 1,207,208
 446 400 446 400 431 414 c 0,209,210
 416 429 416 429 416 450 c 256,211,212
 416 471 416 471 431 485 c 0,213,214
 446 500 446 500 467 500 c 256,215,216
 488 500 488 500 502 485 c 0,217,218
 517 470 517 470 517 450 c 256,219,220
 517 429 517 429 502 414 c 256,221,222
 487.9375 399.9375 487.9375 399.9375 469.48046875 399.9375 c 0,223,224
 468.25 399.9375 468.25 399.9375 467 400 c 1,225,-1
 467 400 l 1,207,208
EndSplineSet
Validated: 524293
EndChar

StartChar: two
Encoding: 50 50 3
Width: 666
VWidth: 699
Flags: W
LayerCount: 2
Fore
SplineSet
425 22 m 1,0,1
 425 22 l 1,2,-1
 425 22 l 1,3,4
 425 22 l 1,5,-1
 425 22 l 1,0,1
50 0 m 1,6,7
 29 0 29 0 15 15 c 0,8,9
 0 30 0 30 0 50 c 256,10,11
 0 71 0 71 15 85 c 0,12,13
 30 100 30 100 50 100 c 256,14,15
 71 100 71 100 85 85 c 256,16,17
 100 70 100 70 100 50 c 256,18,19
 100 29 100 29 85 15 c 0,20,21
 70 0 70 0 50 0 c 1,22,-1
 50 0 l 1,6,7
384 0 m 1,23,24
 363 0 363 0 348 15 c 128,-1,25
 333 30 333 30 333 50 c 256,26,27
 333 71 333 71 348 85 c 0,28,29
 363 100 363 100 384 100 c 128,-1,30
 405 100 405 100 419 85 c 0,31,32
 423 81 423 81 425 78 c 1,33,-1
 425 78 l 1,34,35
 428 82 428 82 431 85 c 0,36,37
 446 100 446 100 467 100 c 256,38,39
 488 100 488 100 502 85 c 256,40,41
 517 70 517 70 517 50 c 256,42,43
 517 29 517 29 502 15 c 0,44,45
 487 0 487 0 467 0 c 256,46,47
 446 0 446 0 431 15 c 0,48,49
 427 19 427 19 425 22 c 1,50,51
 422 18 422 18 419 15 c 0,52,53
 404 0 404 0 384 0 c 1,54,-1
 384 0 l 1,23,24
50 100 m 1,55,56
 29 100 29 100 15 115 c 0,57,58
 0 130 0 130 0 150 c 256,59,60
 0 172 0 172 15 186 c 0,61,62
 29.0625 200.0625 29.0625 200.0625 47.51953125 200.0625 c 0,63,64
 48.75 200.0625 48.75 200.0625 50 200 c 256,65,66
 71 200 71 200 85 186 c 256,67,68
 100 171 100 171 100 150 c 256,69,70
 100 129 100 129 85 115 c 0,71,72
 70 100 70 100 50 100 c 1,73,-1
 50 100 l 1,55,56
300 100 m 1,74,75
 279 100 279 100 265 115 c 0,76,77
 250 130 250 130 250 150 c 256,78,79
 250 172 250 172 265 186 c 256,80,81
 279.0625 200.0625 279.0625 200.0625 297.51953125 200.0625 c 0,82,83
 298.75 200.0625 298.75 200.0625 300 200 c 256,84,85
 321 200 321 200 335 186 c 0,86,87
 350 171 350 171 350 150 c 256,88,89
 350 129 350 129 335 115 c 0,90,91
 320 100 320 100 300 100 c 1,92,-1
 300 100 l 1,74,75
550 100 m 1,93,94
 528 100 528 100 514 115 c 0,95,96
 499.9375 129.0625 499.9375 129.0625 499.9375 147.51953125 c 0,97,98
 499.9375 171.9375 499.9375 171.9375 514 186 c 256,99,100
 528.0625 200.0625 528.0625 200.0625 547.3984375 200.0625 c 0,101,102
 548.6875 200.0625 548.6875 200.0625 550 200 c 256,103,104
 571 200 571 200 585 186 c 0,105,106
 600 171 600 171 600 150 c 256,107,108
 600 129 600 129 585 115 c 0,109,110
 570 100 570 100 550 100 c 1,111,-1
 550 100 l 1,93,94
50 200 m 1,112,113
 29 200 29 200 15 214 c 0,114,115
 0 229 0 229 0 250 c 256,116,117
 0 271 0 271 15 285 c 0,118,119
 30 300 30 300 50 300 c 256,120,121
 71 300 71 300 85 285 c 256,122,123
 100 270 100 270 100 250 c 256,124,125
 100 229 100 229 85 214 c 0,126,127
 70.9375 199.9375 70.9375 199.9375 52.48046875 199.9375 c 0,128,129
 51.25 199.9375 51.25 199.9375 50 200 c 1,130,-1
 50 200 l 1,112,113
300 200 m 1,131,132
 279 200 279 200 265 214 c 0,133,134
 250 229 250 229 250 250 c 256,135,136
 250 271 250 271 265 285 c 256,137,138
 280 300 280 300 300 300 c 256,139,140
 321 300 321 300 335 285 c 0,141,142
 350 270 350 270 350 250 c 256,143,144
 350 229 350 229 335 214 c 0,145,146
 320.9375 199.9375 320.9375 199.9375 302.48046875 199.9375 c 0,147,148
 301.25 199.9375 301.25 199.9375 300 200 c 1,149,-1
 300 200 l 1,131,132
550 200 m 1,150,151
 528 200 528 200 514 214 c 128,-1,152
 499.9375 228.0625 499.9375 228.0625 499.9375 247.3984375 c 0,153,154
 499.9375 270.9375 499.9375 270.9375 514 285 c 256,155,156
 529 300 529 300 550 300 c 256,157,158
 571 300 571 300 585 285 c 0,159,160
 600 270 600 270 600 250 c 256,161,162
 600 229 600 229 585 214 c 0,163,164
 570.9375 199.9375 570.9375 199.9375 552.48046875 199.9375 c 0,165,166
 551.25 199.9375 551.25 199.9375 550 200 c 1,167,-1
 550 200 l 1,150,151
50 300 m 1,168,169
 29 300 29 300 15 314 c 0,170,171
 0 329 0 329 0 350 c 128,-1,172
 0 371 0 371 15 386 c 0,173,174
 29.0625 400.0625 29.0625 400.0625 47.51953125 400.0625 c 0,175,176
 48.75 400.0625 48.75 400.0625 50 400 c 256,177,178
 71 400 71 400 85 386 c 0,179,180
 100 371 100 371 100 350 c 128,-1,181
 100 329 100 329 85 314 c 0,182,183
 70.9375 299.9375 70.9375 299.9375 52.48046875 299.9375 c 0,184,185
 51.25 299.9375 51.25 299.9375 50 300 c 1,186,-1
 50 300 l 1,168,169
300 300 m 1,187,188
 279 300 279 300 265 314 c 0,189,190
 250 329 250 329 250 350 c 128,-1,191
 250 371 250 371 265 386 c 0,192,193
 279.0625 400.0625 279.0625 400.0625 297.51953125 400.0625 c 0,194,195
 298.75 400.0625 298.75 400.0625 300 400 c 256,196,197
 321 400 321 400 335 386 c 0,198,199
 350 371 350 371 350 350 c 128,-1,200
 350 329 350 329 335 314 c 0,201,202
 320.9375 299.9375 320.9375 299.9375 302.48046875 299.9375 c 0,203,204
 301.25 299.9375 301.25 299.9375 300 300 c 1,205,-1
 300 300 l 1,187,188
550 300 m 1,206,207
 528 300 528 300 514 314 c 128,-1,208
 499.9375 328.0625 499.9375 328.0625 499.9375 347.3984375 c 0,209,210
 499.9375 370.933035714 499.9375 370.933035714 514 386 c 0,211,212
 528.0625 400.0625 528.0625 400.0625 547.3984375 400.0625 c 0,213,214
 548.6875 400.0625 548.6875 400.0625 550 400 c 256,215,216
 571 400 571 400 585 386 c 0,217,218
 600 371 600 371 600 350 c 128,-1,219
 600 329 600 329 585 314 c 0,220,221
 570.9375 299.9375 570.9375 299.9375 552.48046875 299.9375 c 0,222,223
 551.25 299.9375 551.25 299.9375 550 300 c 1,224,-1
 550 300 l 1,206,207
50 400 m 1,225,226
 29 400 29 400 15 414 c 0,227,228
 0 429 0 429 0 450 c 256,229,230
 0 471 0 471 15 485 c 0,231,232
 30 500 30 500 50 500 c 256,233,234
 71 500 71 500 85 485 c 0,235,236
 100 470 100 470 100 450 c 256,237,238
 100 429 100 429 85 414 c 256,239,240
 70.9375 399.9375 70.9375 399.9375 52.48046875 399.9375 c 0,241,242
 51.25 399.9375 51.25 399.9375 50 400 c 1,243,-1
 50 400 l 1,225,226
300 400 m 1,244,245
 279 400 279 400 265 414 c 256,246,247
 250 429 250 429 250 450 c 256,248,249
 250 471 250 471 265 485 c 0,250,251
 280 500 280 500 300 500 c 256,252,253
 321 500 321 500 335 485 c 0,254,255
 350 470 350 470 350 450 c 256,256,257
 350 429 350 429 335 414 c 0,258,259
 320.9375 399.9375 320.9375 399.9375 302.48046875 399.9375 c 0,260,261
 301.25 399.9375 301.25 399.9375 300 400 c 1,262,-1
 300 400 l 1,244,245
550 400 m 1,263,264
 528 400 528 400 514 414 c 256,265,266
 499.9375 428.0625 499.9375 428.0625 499.9375 447.3984375 c 0,267,268
 499.9375 470.9375 499.9375 470.9375 514 485 c 0,269,270
 529 500 529 500 550 500 c 256,271,272
 571 500 571 500 585 485 c 0,273,274
 600 470 600 470 600 450 c 256,275,276
 600 429 600 429 585 414 c 0,277,278
 570.9375 399.9375 570.9375 399.9375 552.48046875 399.9375 c 0,279,280
 551.25 399.9375 551.25 399.9375 550 400 c 1,281,-1
 550 400 l 1,263,264
50 500 m 1,282,283
 29 500 29 500 15 514 c 0,284,285
 0 529 0 529 0 550 c 256,286,287
 0 571 0 571 15 585 c 0,288,289
 30 600 30 600 50 600 c 256,290,291
 71 600 71 600 85 585 c 0,292,293
 100 570 100 570 100 550 c 256,294,295
 100 528 100 528 85 514 c 256,296,297
 70.9375 499.9375 70.9375 499.9375 52.48046875 499.9375 c 0,298,299
 51.25 499.9375 51.25 499.9375 50 500 c 1,300,-1
 50 500 l 1,282,283
300 500 m 1,301,302
 279 500 279 500 265 514 c 256,303,304
 250 529 250 529 250 550 c 256,305,306
 250 571 250 571 265 585 c 0,307,308
 280 600 280 600 300 600 c 256,309,310
 321 600 321 600 335 585 c 0,311,312
 350 570 350 570 350 550 c 256,313,314
 350 528 350 528 335 514 c 0,315,316
 320.9375 499.9375 320.9375 499.9375 302.48046875 499.9375 c 0,317,318
 301.25 499.9375 301.25 499.9375 300 500 c 1,319,-1
 300 500 l 1,301,302
550 500 m 1,320,321
 528 500 528 500 514 514 c 256,322,323
 499.9375 528.0625 499.9375 528.0625 499.9375 547.3984375 c 0,324,325
 499.9375 570.9375 499.9375 570.9375 514 585 c 0,326,327
 529 600 529 600 550 600 c 256,328,329
 571 600 571 600 585 585 c 0,330,331
 600 570 600 570 600 550 c 256,332,333
 600 528 600 528 585 514 c 0,334,335
 570.9375 499.9375 570.9375 499.9375 552.48046875 499.9375 c 0,336,337
 551.25 499.9375 551.25 499.9375 550 500 c 1,338,-1
 550 500 l 1,320,321
92 622 m 1,339,-1
 92 622 l 1,340,-1
 92 622 l 1,341,-1
 92 622 l 1,342,-1
 92 622 l 1,339,-1
50 600 m 1,343,344
 29 600 29 600 15 615 c 0,345,346
 0 630 0 630 0 650 c 256,347,348
 0 671 0 671 15 685 c 0,349,350
 30 700 30 700 50 700 c 256,351,352
 71 700 71 700 85 685 c 0,353,354
 89 681 89 681 92 678 c 1,355,-1
 92 678 l 1,356,357
 95 682 95 682 98 685 c 0,358,359
 113 700 113 700 133 700 c 256,360,361
 154 700 154 700 169 685 c 0,362,363
 173 681 173 681 175 678 c 1,364,-1
 175 678 l 1,365,366
 178 682 178 682 181 685 c 0,367,368
 196 700 196 700 216 700 c 256,369,370
 237 700 237 700 252 685 c 256,371,372
 267 670 267 670 267 650 c 256,373,374
 267 629 267 629 252 615 c 256,375,376
 237 600 237 600 216 600 c 256,377,378
 195 600 195 600 181 615 c 0,379,380
 177 619 177 619 175 622 c 1,381,382
 172 618 172 618 169 615 c 0,383,384
 154 600 154 600 133 600 c 256,385,386
 112 600 112 600 98 615 c 0,387,388
 94 619 94 619 92 622 c 1,389,390
 89 618 89 618 85 615 c 0,391,392
 70 600 70 600 50 600 c 1,393,-1
 50 600 l 1,343,344
467 600 m 1,394,395
 446 600 446 600 431 615 c 128,-1,396
 416 630 416 630 416 650 c 256,397,398
 416 671 416 671 431 685 c 0,399,400
 446 700 446 700 467 700 c 256,401,402
 488 700 488 700 502 685 c 256,403,404
 517 670 517 670 517 650 c 256,405,406
 517 629 517 629 502 615 c 256,407,408
 487 600 487 600 467 600 c 1,409,-1
 467 600 l 1,394,395
EndSplineSet
Validated: 524293
EndChar

StartChar: three
Encoding: 51 51 4
Width: 666
VWidth: 699
Flags: W
LayerCount: 2
Fore
SplineSet
425 22 m 1,0,1
 425 22 l 1,2,-1
 425 22 l 1,3,4
 425 22 l 1,5,-1
 425 22 l 1,0,1
175 22 m 1,6,7
 175 22 l 1,8,-1
 175 22 l 1,9,10
 175 22 l 1,11,-1
 175 22 l 1,6,7
133 0 m 1,12,13
 112 0 112 0 98 15 c 0,14,15
 83 30 83 30 83 50 c 256,16,17
 83 71 83 71 98 85 c 256,18,19
 113 100 113 100 133 100 c 256,20,21
 154 100 154 100 169 85 c 0,22,23
 173 81 173 81 175 78 c 1,24,-1
 175 78 l 1,25,26
 178 82 178 82 181 85 c 0,27,28
 196 100 196 100 216 100 c 256,29,30
 237 100 237 100 252 85 c 256,31,32
 267 70 267 70 267 50 c 256,33,34
 267 29 267 29 252 15 c 0,35,36
 237 0 237 0 216 0 c 256,37,38
 195 0 195 0 181 15 c 0,39,40
 177 19 177 19 175 22 c 1,41,42
 172 18 172 18 169 15 c 0,43,44
 154 0 154 0 133 0 c 1,45,-1
 133 0 l 1,12,13
384 0 m 1,46,47
 363 0 363 0 348 15 c 128,-1,48
 333 30 333 30 333 50 c 256,49,50
 333 71 333 71 348 85 c 0,51,52
 363 100 363 100 384 100 c 128,-1,53
 405 100 405 100 419 85 c 0,54,55
 423 81 423 81 425 78 c 1,56,-1
 425 78 l 1,57,58
 428 82 428 82 431 85 c 0,59,60
 446 100 446 100 467 100 c 256,61,62
 488 100 488 100 502 85 c 256,63,64
 517 70 517 70 517 50 c 256,65,66
 517 29 517 29 502 15 c 0,67,68
 487 0 487 0 467 0 c 256,69,70
 446 0 446 0 431 15 c 0,71,72
 427 19 427 19 425 22 c 1,73,-1
 425 22 l 1,74,75
 422 18 422 18 419 15 c 0,76,77
 404 0 404 0 384 0 c 1,78,-1
 384 0 l 1,46,47
50 100 m 1,79,80
 29 100 29 100 15 115 c 0,81,82
 0 130 0 130 0 150 c 256,83,84
 0 172 0 172 15 186 c 0,85,86
 29.0625 200.0625 29.0625 200.0625 47.51953125 200.0625 c 0,87,88
 48.75 200.0625 48.75 200.0625 50 200 c 256,89,90
 71 200 71 200 85 186 c 256,91,92
 100 171 100 171 100 150 c 256,93,94
 100 129 100 129 85 115 c 0,95,96
 70 100 70 100 50 100 c 1,97,-1
 50 100 l 1,79,80
300 100 m 1,98,99
 279 100 279 100 265 115 c 0,100,101
 250 130 250 130 250 150 c 256,102,103
 250 172 250 172 265 186 c 256,104,105
 279.0625 200.0625 279.0625 200.0625 297.51953125 200.0625 c 0,106,107
 298.75 200.0625 298.75 200.0625 300 200 c 256,108,109
 321 200 321 200 335 186 c 0,110,111
 350 171 350 171 350 150 c 256,112,113
 350 129 350 129 335 115 c 0,114,115
 320 100 320 100 300 100 c 1,116,-1
 300 100 l 1,98,99
550 100 m 1,117,118
 528 100 528 100 514 115 c 0,119,120
 499.9375 129.0625 499.9375 129.0625 499.9375 147.51953125 c 0,121,122
 499.9375 171.9375 499.9375 171.9375 514 186 c 256,123,124
 528.0625 200.0625 528.0625 200.0625 547.3984375 200.0625 c 0,125,126
 548.6875 200.0625 548.6875 200.0625 550 200 c 256,127,128
 571 200 571 200 585 186 c 0,129,130
 600 171 600 171 600 150 c 256,131,132
 600 129 600 129 585 115 c 0,133,134
 570 100 570 100 550 100 c 1,135,-1
 550 100 l 1,117,118
50 200 m 1,136,137
 29 200 29 200 15 214 c 0,138,139
 0 229 0 229 0 250 c 256,140,141
 0 271 0 271 15 285 c 0,142,143
 30 300 30 300 50 300 c 256,144,145
 71 300 71 300 85 285 c 256,146,147
 100 270 100 270 100 250 c 256,148,149
 100 229 100 229 85 214 c 0,150,151
 70.9375 199.9375 70.9375 199.9375 52.48046875 199.9375 c 0,152,153
 51.25 199.9375 51.25 199.9375 50 200 c 1,154,-1
 50 200 l 1,136,137
300 200 m 1,155,156
 279 200 279 200 265 214 c 0,157,158
 250 229 250 229 250 250 c 256,159,160
 250 271 250 271 265 285 c 256,161,162
 280 300 280 300 300 300 c 256,163,164
 321 300 321 300 335 285 c 0,165,166
 350 270 350 270 350 250 c 256,167,168
 350 229 350 229 335 214 c 0,169,170
 320.9375 199.9375 320.9375 199.9375 302.48046875 199.9375 c 0,171,172
 301.25 199.9375 301.25 199.9375 300 200 c 1,173,-1
 300 200 l 1,155,156
550 200 m 1,174,175
 528 200 528 200 514 214 c 128,-1,176
 499.9375 228.0625 499.9375 228.0625 499.9375 247.3984375 c 0,177,178
 499.9375 270.9375 499.9375 270.9375 514 285 c 256,179,180
 529 300 529 300 550 300 c 256,181,182
 571 300 571 300 585 285 c 0,183,184
 600 270 600 270 600 250 c 256,185,186
 600 229 600 229 585 214 c 0,187,188
 570.9375 199.9375 570.9375 199.9375 552.48046875 199.9375 c 0,189,190
 551.25 199.9375 551.25 199.9375 550 200 c 1,191,-1
 550 200 l 1,174,175
50 300 m 1,192,193
 29 300 29 300 15 314 c 0,194,195
 0 329 0 329 0 350 c 128,-1,196
 0 371 0 371 15 386 c 0,197,198
 29.0625 400.0625 29.0625 400.0625 47.51953125 400.0625 c 0,199,200
 48.75 400.0625 48.75 400.0625 50 400 c 256,201,202
 71 400 71 400 85 386 c 0,203,204
 100 371 100 371 100 350 c 128,-1,205
 100 329 100 329 85 314 c 0,206,207
 70.9375 299.9375 70.9375 299.9375 52.48046875 299.9375 c 0,208,209
 51.25 299.9375 51.25 299.9375 50 300 c 1,210,-1
 50 300 l 1,192,193
300 300 m 1,211,212
 279 300 279 300 265 314 c 0,213,214
 250 329 250 329 250 350 c 128,-1,215
 250 371 250 371 265 386 c 0,216,217
 279.0625 400.0625 279.0625 400.0625 297.51953125 400.0625 c 0,218,219
 298.75 400.0625 298.75 400.0625 300 400 c 256,220,221
 321 400 321 400 335 386 c 0,222,223
 350 371 350 371 350 350 c 128,-1,224
 350 329 350 329 335 314 c 0,225,226
 320.9375 299.9375 320.9375 299.9375 302.48046875 299.9375 c 0,227,228
 301.25 299.9375 301.25 299.9375 300 300 c 1,229,-1
 300 300 l 1,211,212
550 300 m 1,230,231
 528 300 528 300 514 314 c 128,-1,232
 499.9375 328.0625 499.9375 328.0625 499.9375 347.3984375 c 0,233,234
 499.9375 370.933035714 499.9375 370.933035714 514 386 c 0,235,236
 528.0625 400.0625 528.0625 400.0625 547.3984375 400.0625 c 0,237,238
 548.6875 400.0625 548.6875 400.0625 550 400 c 256,239,240
 571 400 571 400 585 386 c 0,241,242
 600 371 600 371 600 350 c 128,-1,243
 600 329 600 329 585 314 c 0,244,245
 570.9375 299.9375 570.9375 299.9375 552.48046875 299.9375 c 0,246,247
 551.25 299.9375 551.25 299.9375 550 300 c 1,248,-1
 550 300 l 1,230,231
50 400 m 1,249,250
 29 400 29 400 15 414 c 0,251,252
 0 429 0 429 0 450 c 256,253,254
 0 471 0 471 15 485 c 0,255,256
 30 500 30 500 50 500 c 256,257,258
 71 500 71 500 85 485 c 0,259,260
 100 470 100 470 100 450 c 256,261,262
 100 429 100 429 85 414 c 256,263,264
 70.9375 399.9375 70.9375 399.9375 52.48046875 399.9375 c 0,265,266
 51.25 399.9375 51.25 399.9375 50 400 c 1,267,-1
 50 400 l 1,249,250
550 400 m 1,268,269
 528 400 528 400 514 414 c 256,270,271
 499.9375 428.0625 499.9375 428.0625 499.9375 447.3984375 c 0,272,273
 499.9375 470.9375 499.9375 470.9375 514 485 c 0,274,275
 529 500 529 500 550 500 c 256,276,277
 571 500 571 500 585 485 c 0,278,279
 600 470 600 470 600 450 c 256,280,281
 600 429 600 429 585 414 c 0,282,283
 570.9375 399.9375 570.9375 399.9375 552.48046875 399.9375 c 0,284,285
 551.25 399.9375 551.25 399.9375 550 400 c 1,286,-1
 550 400 l 1,268,269
50 500 m 1,287,288
 29 500 29 500 15 514 c 0,289,290
 0 529 0 529 0 550 c 256,291,292
 0 571 0 571 15 585 c 0,293,294
 30 600 30 600 50 600 c 256,295,296
 71 600 71 600 85 585 c 0,297,298
 100 570 100 570 100 550 c 256,299,300
 100 528 100 528 85 514 c 256,301,302
 70.9375 499.9375 70.9375 499.9375 52.48046875 499.9375 c 0,303,304
 51.25 499.9375 51.25 499.9375 50 500 c 1,305,-1
 50 500 l 1,287,288
550 500 m 1,306,307
 528 500 528 500 514 514 c 256,308,309
 499.9375 528.0625 499.9375 528.0625 499.9375 547.3984375 c 0,310,311
 499.9375 570.9375 499.9375 570.9375 514 585 c 0,312,313
 529 600 529 600 550 600 c 256,314,315
 571 600 571 600 585 585 c 0,316,317
 600 570 600 570 600 550 c 256,318,319
 600 528 600 528 585 514 c 0,320,321
 570.9375 499.9375 570.9375 499.9375 552.48046875 499.9375 c 0,322,323
 551.25 499.9375 551.25 499.9375 550 500 c 1,324,-1
 550 500 l 1,306,307
133 600 m 1,325,326
 112 600 112 600 98 615 c 256,327,328
 83 630 83 630 83 650 c 256,329,330
 83 671 83 671 98 685 c 256,331,332
 113 700 113 700 133 700 c 256,333,334
 154 700 154 700 169 685 c 0,335,336
 183.0625 670.9375 183.0625 670.9375 183.0625 652.48046875 c 0,337,338
 183.0625 629.0625 183.0625 629.0625 169 615 c 0,339,340
 154 600 154 600 133 600 c 1,341,-1
 133 600 l 1,325,326
467 600 m 1,342,343
 446 600 446 600 431 615 c 128,-1,344
 416 630 416 630 416 650 c 256,345,346
 416 671 416 671 431 685 c 0,347,348
 446 700 446 700 467 700 c 256,349,350
 488 700 488 700 502 685 c 256,351,352
 517 670 517 670 517 650 c 256,353,354
 517 629 517 629 502 615 c 256,355,356
 487 600 487 600 467 600 c 1,357,-1
 467 600 l 1,342,343
EndSplineSet
Validated: 524293
EndChar

StartChar: four
Encoding: 52 52 5
Width: 666
VWidth: 699
Flags: W
LayerCount: 2
Fore
SplineSet
216 0 m 1,0,1
 195 0 195 0 181 15 c 0,2,3
 166.9375 29.0625 166.9375 29.0625 166.9375 47.51953125 c 0,4,5
 166.9375 70.9375 166.9375 70.9375 181 85 c 0,6,7
 196 100 196 100 216 100 c 256,8,9
 237 100 237 100 252 85 c 256,10,11
 267 70 267 70 267 50 c 256,12,13
 267 29 267 29 252 15 c 0,14,15
 237 0 237 0 216 0 c 1,16,-1
 216 0 l 1,0,1
342 122 m 1,17,18
 342 122 l 1,19,-1
 342 122 l 1,20,21
 342 122 l 1,22,-1
 342 122 l 1,17,18
508 122 m 1,23,24
 508 122 l 1,25,-1
 508 122 l 1,26,27
 508 122 l 1,28,-1
 508 122 l 1,23,24
92 122 m 1,29,30
 92 122 l 1,31,-1
 92 122 l 1,32,33
 92 122 l 1,34,-1
 92 122 l 1,29,30
175 122 m 1,35,36
 175 122 l 1,37,-1
 175 122 l 1,38,39
 175 122 l 1,40,-1
 175 122 l 1,35,36
50 100 m 1,41,42
 29 100 29 100 15 115 c 0,43,44
 0 130 0 130 0 150 c 256,45,46
 0 172 0 172 15 186 c 0,47,48
 29.0625 200.0625 29.0625 200.0625 47.51953125 200.0625 c 0,49,50
 48.75 200.0625 48.75 200.0625 50 200 c 256,51,52
 71 200 71 200 85 186 c 0,53,54
 89 182 89 182 92 178 c 1,55,-1
 92 178 l 1,56,57
 95 182 95 182 98 186 c 0,58,59
 112.0625 200.0625 112.0625 200.0625 130.51953125 200.0625 c 0,60,61
 131.75 200.0625 131.75 200.0625 133 200 c 256,62,63
 154 200 154 200 169 186 c 0,64,65
 173 182 173 182 175 178 c 1,66,-1
 175 178 l 1,67,68
 178 182 178 182 181 186 c 0,69,70
 195.0625 200.0625 195.0625 200.0625 213.51953125 200.0625 c 0,71,72
 214.75 200.0625 214.75 200.0625 216 200 c 256,73,74
 237 200 237 200 252 186 c 0,75,76
 256 182 256 182 258 178 c 1,77,-1
 258 178 l 1,78,79
 261 182 261 182 265 186 c 0,80,81
 279.0625 200.0625 279.0625 200.0625 297.51953125 200.0625 c 0,82,83
 298.75 200.0625 298.75 200.0625 300 200 c 256,84,85
 321 200 321 200 335 186 c 0,86,87
 339 182 339 182 342 178 c 1,88,-1
 342 178 l 1,89,90
 345 182 345 182 348 186 c 0,91,92
 362.0625 200.0625 362.0625 200.0625 381.3984375 200.0625 c 0,93,94
 382.6875 200.0625 382.6875 200.0625 384 200 c 0,95,96
 405 200 405 200 419 186 c 0,97,98
 423 182 423 182 425 178 c 1,99,-1
 425 178 l 1,100,101
 428 182 428 182 431 186 c 0,102,103
 445.0625 200.0625 445.0625 200.0625 464.3984375 200.0625 c 0,104,105
 465.6875 200.0625 465.6875 200.0625 467 200 c 256,106,107
 488 200 488 200 502 186 c 0,108,109
 506 182 506 182 508 178 c 1,110,-1
 508 178 l 1,111,112
 510 182 510 182 514 186 c 0,113,114
 528.0625 200.0625 528.0625 200.0625 547.3984375 200.0625 c 0,115,116
 548.6875 200.0625 548.6875 200.0625 550 200 c 256,117,118
 571 200 571 200 585 186 c 0,119,120
 600 171 600 171 600 150 c 256,121,122
 600 129 600 129 585 115 c 0,123,124
 570 100 570 100 550 100 c 256,125,126
 528 100 528 100 514 115 c 0,127,128
 510 119 510 119 508 122 c 1,129,130
 505 118 505 118 502 115 c 0,131,132
 487 100 487 100 467 100 c 256,133,134
 446 100 446 100 431 115 c 0,135,136
 427 119 427 119 425 122 c 1,137,-1
 425 122 l 1,138,139
 422 118 422 118 419 115 c 0,140,141
 404 100 404 100 384 100 c 0,142,143
 363 100 363 100 348 115 c 0,144,145
 344 119 344 119 342 122 c 1,146,147
 339 118 339 118 335 115 c 0,148,149
 320 100 320 100 300 100 c 256,150,151
 279 100 279 100 265 115 c 0,152,153
 261 119 261 119 258 122 c 1,154,155
 255 118 255 118 252 115 c 0,156,157
 237 100 237 100 216 100 c 256,158,159
 195 100 195 100 181 115 c 0,160,161
 177 119 177 119 175 122 c 1,162,-1
 175 122 l 1,163,164
 172 118 172 118 169 115 c 0,165,166
 154 100 154 100 133 100 c 256,167,168
 112 100 112 100 98 115 c 0,169,170
 94 119 94 119 92 122 c 1,171,172
 89 118 89 118 85 115 c 0,173,174
 70 100 70 100 50 100 c 1,175,-1
 50 100 l 1,41,42
216 200 m 1,176,177
 195 200 195 200 181 214 c 128,-1,178
 166.9375 228.0625 166.9375 228.0625 166.9375 247.3984375 c 0,179,180
 166.9375 270.9375 166.9375 270.9375 181 285 c 0,181,182
 196 300 196 300 216 300 c 256,183,184
 237 300 237 300 252 285 c 256,185,186
 267 270 267 270 267 250 c 256,187,188
 267 229 267 229 252 214 c 0,189,190
 237.9375 199.9375 237.9375 199.9375 218.6015625 199.9375 c 0,191,192
 217.3125 199.9375 217.3125 199.9375 216 200 c 1,193,-1
 216 200 l 1,176,177
467 200 m 1,194,195
 446 200 446 200 431 214 c 0,196,197
 416 229 416 229 416 250 c 256,198,199
 416 271 416 271 431 285 c 0,200,201
 446 300 446 300 467 300 c 256,202,203
 488 300 488 300 502 285 c 256,204,205
 517 270 517 270 517 250 c 256,206,207
 517 229 517 229 502 214 c 0,208,209
 487.9375 199.9375 487.9375 199.9375 469.48046875 199.9375 c 0,210,211
 468.25 199.9375 468.25 199.9375 467 200 c 1,212,-1
 467 200 l 1,194,195
216 300 m 1,213,214
 195 300 195 300 181 314 c 128,-1,215
 166.9375 328.0625 166.9375 328.0625 166.9375 347.3984375 c 0,216,217
 166.9375 370.933035714 166.9375 370.933035714 181 386 c 0,218,219
 195.0625 400.0625 195.0625 400.0625 213.51953125 400.0625 c 0,220,221
 214.75 400.0625 214.75 400.0625 216 400 c 256,222,223
 237 400 237 400 252 386 c 0,224,225
 267 371 267 371 267 350 c 128,-1,226
 267 329 267 329 252 314 c 0,227,228
 237.9375 299.9375 237.9375 299.9375 218.6015625 299.9375 c 0,229,230
 217.3125 299.9375 217.3125 299.9375 216 300 c 1,231,-1
 216 300 l 1,213,214
384 300 m 1,232,233
 363 300 363 300 348 314 c 0,234,235
 333 329 333 329 333 350 c 128,-1,236
 333 371 333 371 348 386 c 0,237,238
 362.0625 400.0625 362.0625 400.0625 381.3984375 400.0625 c 0,239,240
 382.6875 400.0625 382.6875 400.0625 384 400 c 0,241,242
 405 400 405 400 419 386 c 128,-1,243
 433.0625 371.9375 433.0625 371.9375 433.0625 352.6015625 c 0,244,245
 433.0625 329.066964286 433.0625 329.066964286 419 314 c 0,246,247
 404.9375 299.9375 404.9375 299.9375 386.48046875 299.9375 c 0,248,249
 385.25 299.9375 385.25 299.9375 384 300 c 1,250,-1
 384 300 l 1,232,233
258 422 m 1,251,-1
 258 422 l 1,252,-1
 258 422 l 1,253,-1
 258 422 l 1,254,-1
 258 422 l 1,251,-1
216 400 m 1,255,256
 195 400 195 400 181 414 c 128,-1,257
 166.9375 428.0625 166.9375 428.0625 166.9375 447.3984375 c 0,258,259
 166.9375 470.9375 166.9375 470.9375 181 485 c 0,260,261
 196 500 196 500 216 500 c 256,262,263
 237 500 237 500 252 485 c 0,264,265
 256 481 256 481 258 478 c 1,266,-1
 258 478 l 1,267,268
 261 482 261 482 265 485 c 0,269,270
 280 500 280 500 300 500 c 256,271,272
 321 500 321 500 335 485 c 0,273,274
 350 470 350 470 350 450 c 256,275,276
 350 429 350 429 335 414 c 0,277,278
 320.9375 399.9375 320.9375 399.9375 302.48046875 399.9375 c 0,279,280
 301.25 399.9375 301.25 399.9375 300 400 c 256,281,282
 279 400 279 400 265 414 c 0,283,284
 261 418 261 418 258 422 c 1,285,-1
 258 422 l 1,286,287
 255 418 255 418 252 414 c 0,288,289
 237.9375 399.9375 237.9375 399.9375 218.6015625 399.9375 c 0,290,291
 217.3125 399.9375 217.3125 399.9375 216 400 c 1,292,-1
 216 400 l 1,255,256
216 500 m 1,293,294
 195 500 195 500 181 514 c 128,-1,295
 166.9375 528.0625 166.9375 528.0625 166.9375 547.3984375 c 0,296,297
 166.9375 570.9375 166.9375 570.9375 181 585 c 0,298,299
 196 600 196 600 216 600 c 256,300,301
 237 600 237 600 252 585 c 128,-1,302
 267 570 267 570 267 550 c 256,303,304
 267 528 267 528 252 514 c 256,305,306
 237.9375 499.9375 237.9375 499.9375 218.6015625 499.9375 c 0,307,308
 217.3125 499.9375 217.3125 499.9375 216 500 c 1,309,-1
 216 500 l 1,293,294
EndSplineSet
Validated: 524293
EndChar

StartChar: five
Encoding: 53 53 6
Width: 666
VWidth: 699
Flags: W
LayerCount: 2
Fore
SplineSet
175 22 m 1,0,1
 175 22 l 1,2,-1
 175 22 l 1,3,4
 175 22 l 1,5,-1
 175 22 l 1,0,1
133 0 m 1,6,7
 112 0 112 0 98 15 c 0,8,9
 83 30 83 30 83 50 c 256,10,11
 83 71 83 71 98 85 c 256,12,13
 113 100 113 100 133 100 c 256,14,15
 154 100 154 100 169 85 c 0,16,17
 173 81 173 81 175 78 c 1,18,-1
 175 78 l 1,19,20
 178 82 178 82 181 85 c 0,21,22
 196 100 196 100 216 100 c 256,23,24
 237 100 237 100 252 85 c 256,25,26
 267 70 267 70 267 50 c 256,27,28
 267 29 267 29 252 15 c 0,29,30
 237 0 237 0 216 0 c 256,31,32
 195 0 195 0 181 15 c 0,33,34
 177 19 177 19 175 22 c 1,35,36
 172 18 172 18 169 15 c 0,37,38
 154 0 154 0 133 0 c 1,39,-1
 133 0 l 1,6,7
550 0 m 1,40,41
 528 0 528 0 514 15 c 0,42,43
 499.9375 29.0625 499.9375 29.0625 499.9375 47.51953125 c 0,44,45
 499.9375 70.9375 499.9375 70.9375 514 85 c 256,46,47
 529 100 529 100 550 100 c 256,48,49
 571 100 571 100 585 85 c 0,50,51
 600 70 600 70 600 50 c 256,52,53
 600 29 600 29 585 15 c 0,54,55
 570 0 570 0 550 0 c 1,56,-1
 550 0 l 1,40,41
50 100 m 1,57,58
 29 100 29 100 15 115 c 0,59,60
 0 130 0 130 0 150 c 256,61,62
 0 172 0 172 15 186 c 0,63,64
 29.0625 200.0625 29.0625 200.0625 47.51953125 200.0625 c 0,65,66
 48.75 200.0625 48.75 200.0625 50 200 c 256,67,68
 71 200 71 200 85 186 c 256,69,70
 100 171 100 171 100 150 c 256,71,72
 100 129 100 129 85 115 c 0,73,74
 70 100 70 100 50 100 c 1,75,-1
 50 100 l 1,57,58
300 100 m 1,76,77
 279 100 279 100 265 115 c 0,78,79
 250 130 250 130 250 150 c 256,80,81
 250 172 250 172 265 186 c 256,82,83
 279.0625 200.0625 279.0625 200.0625 297.51953125 200.0625 c 0,84,85
 298.75 200.0625 298.75 200.0625 300 200 c 256,86,87
 321 200 321 200 335 186 c 0,88,89
 350 171 350 171 350 150 c 256,90,91
 350 129 350 129 335 115 c 0,92,93
 320 100 320 100 300 100 c 1,94,-1
 300 100 l 1,76,77
550 100 m 1,95,96
 528 100 528 100 514 115 c 0,97,98
 499.9375 129.0625 499.9375 129.0625 499.9375 147.51953125 c 0,99,100
 499.9375 171.9375 499.9375 171.9375 514 186 c 256,101,102
 528.0625 200.0625 528.0625 200.0625 547.3984375 200.0625 c 0,103,104
 548.6875 200.0625 548.6875 200.0625 550 200 c 256,105,106
 571 200 571 200 585 186 c 0,107,108
 600 171 600 171 600 150 c 256,109,110
 600 129 600 129 585 115 c 0,111,112
 570 100 570 100 550 100 c 1,113,-1
 550 100 l 1,95,96
50 200 m 1,114,115
 29 200 29 200 15 214 c 0,116,117
 0 229 0 229 0 250 c 256,118,119
 0 271 0 271 15 285 c 0,120,121
 30 300 30 300 50 300 c 256,122,123
 71 300 71 300 85 285 c 256,124,125
 100 270 100 270 100 250 c 256,126,127
 100 229 100 229 85 214 c 0,128,129
 70.9375 199.9375 70.9375 199.9375 52.48046875 199.9375 c 0,130,131
 51.25 199.9375 51.25 199.9375 50 200 c 1,132,-1
 50 200 l 1,114,115
300 200 m 1,133,134
 279 200 279 200 265 214 c 0,135,136
 250 229 250 229 250 250 c 256,137,138
 250 271 250 271 265 285 c 256,139,140
 280 300 280 300 300 300 c 256,141,142
 321 300 321 300 335 285 c 0,143,144
 350 270 350 270 350 250 c 256,145,146
 350 229 350 229 335 214 c 0,147,148
 320.9375 199.9375 320.9375 199.9375 302.48046875 199.9375 c 0,149,150
 301.25 199.9375 301.25 199.9375 300 200 c 1,151,-1
 300 200 l 1,133,134
550 200 m 1,152,153
 528 200 528 200 514 214 c 128,-1,154
 499.9375 228.0625 499.9375 228.0625 499.9375 247.3984375 c 0,155,156
 499.9375 270.9375 499.9375 270.9375 514 285 c 256,157,158
 529 300 529 300 550 300 c 256,159,160
 571 300 571 300 585 285 c 0,161,162
 600 270 600 270 600 250 c 256,163,164
 600 229 600 229 585 214 c 0,165,166
 570.9375 199.9375 570.9375 199.9375 552.48046875 199.9375 c 0,167,168
 551.25 199.9375 551.25 199.9375 550 200 c 1,169,-1
 550 200 l 1,152,153
50 300 m 1,170,171
 29 300 29 300 15 314 c 0,172,173
 0 329 0 329 0 350 c 128,-1,174
 0 371 0 371 15 386 c 0,175,176
 29.0625 400.0625 29.0625 400.0625 47.51953125 400.0625 c 0,177,178
 48.75 400.0625 48.75 400.0625 50 400 c 256,179,180
 71 400 71 400 85 386 c 0,181,182
 100 371 100 371 100 350 c 128,-1,183
 100 329 100 329 85 314 c 0,184,185
 70.9375 299.9375 70.9375 299.9375 52.48046875 299.9375 c 0,186,187
 51.25 299.9375 51.25 299.9375 50 300 c 1,188,-1
 50 300 l 1,170,171
300 300 m 1,189,190
 279 300 279 300 265 314 c 0,191,192
 250 329 250 329 250 350 c 128,-1,193
 250 371 250 371 265 386 c 0,194,195
 279.0625 400.0625 279.0625 400.0625 297.51953125 400.0625 c 0,196,197
 298.75 400.0625 298.75 400.0625 300 400 c 256,198,199
 321 400 321 400 335 386 c 0,200,201
 350 371 350 371 350 350 c 128,-1,202
 350 329 350 329 335 314 c 0,203,204
 320.9375 299.9375 320.9375 299.9375 302.48046875 299.9375 c 0,205,206
 301.25 299.9375 301.25 299.9375 300 300 c 1,207,-1
 300 300 l 1,189,190
550 300 m 1,208,209
 528 300 528 300 514 314 c 128,-1,210
 499.9375 328.0625 499.9375 328.0625 499.9375 347.3984375 c 0,211,212
 499.9375 370.933035714 499.9375 370.933035714 514 386 c 0,213,214
 528.0625 400.0625 528.0625 400.0625 547.3984375 400.0625 c 0,215,216
 548.6875 400.0625 548.6875 400.0625 550 400 c 256,217,218
 571 400 571 400 585 386 c 0,219,220
 600 371 600 371 600 350 c 128,-1,221
 600 329 600 329 585 314 c 0,222,223
 570.9375 299.9375 570.9375 299.9375 552.48046875 299.9375 c 0,224,225
 551.25 299.9375 551.25 299.9375 550 300 c 1,226,-1
 550 300 l 1,208,209
50 400 m 1,227,228
 29 400 29 400 15 414 c 0,229,230
 0 429 0 429 0 450 c 256,231,232
 0 471 0 471 15 485 c 0,233,234
 30 500 30 500 50 500 c 256,235,236
 71 500 71 500 85 485 c 0,237,238
 100 470 100 470 100 450 c 256,239,240
 100 429 100 429 85 414 c 256,241,242
 70.9375 399.9375 70.9375 399.9375 52.48046875 399.9375 c 0,243,244
 51.25 399.9375 51.25 399.9375 50 400 c 1,245,-1
 50 400 l 1,227,228
300 400 m 1,246,247
 279 400 279 400 265 414 c 256,248,249
 250 429 250 429 250 450 c 256,250,251
 250 471 250 471 265 485 c 0,252,253
 280 500 280 500 300 500 c 256,254,255
 321 500 321 500 335 485 c 0,256,257
 350 470 350 470 350 450 c 256,258,259
 350 429 350 429 335 414 c 0,260,261
 320.9375 399.9375 320.9375 399.9375 302.48046875 399.9375 c 0,262,263
 301.25 399.9375 301.25 399.9375 300 400 c 1,264,-1
 300 400 l 1,246,247
550 400 m 1,265,266
 528 400 528 400 514 414 c 256,267,268
 499.9375 428.0625 499.9375 428.0625 499.9375 447.3984375 c 0,269,270
 499.9375 470.9375 499.9375 470.9375 514 485 c 0,271,272
 529 500 529 500 550 500 c 256,273,274
 571 500 571 500 585 485 c 0,275,276
 600 470 600 470 600 450 c 256,277,278
 600 429 600 429 585 414 c 0,279,280
 570.9375 399.9375 570.9375 399.9375 552.48046875 399.9375 c 0,281,282
 551.25 399.9375 551.25 399.9375 550 400 c 1,283,-1
 550 400 l 1,265,266
342 522 m 1,284,-1
 342 522 l 1,285,-1
 342 522 l 1,286,-1
 342 522 l 1,287,-1
 342 522 l 1,284,-1
508 522 m 1,288,-1
 508 522 l 1,289,-1
 508 522 l 1,290,-1
 508 522 l 1,291,-1
 508 522 l 1,288,-1
133 500 m 1,292,293
 112 500 112 500 98 514 c 256,294,295
 83 529 83 529 83 550 c 256,296,297
 83 571 83 571 98 585 c 0,298,299
 113 600 113 600 133 600 c 256,300,301
 154 600 154 600 169 585 c 0,302,303
 183.0625 570.9375 183.0625 570.9375 183.0625 552.48046875 c 0,304,305
 183.0625 528.0625 183.0625 528.0625 169 514 c 128,-1,306
 154.9375 499.9375 154.9375 499.9375 135.6015625 499.9375 c 0,307,308
 134.3125 499.9375 134.3125 499.9375 133 500 c 1,309,-1
 133 500 l 1,292,293
300 500 m 1,310,311
 279 500 279 500 265 514 c 256,312,313
 250 529 250 529 250 550 c 256,314,315
 250 571 250 571 265 585 c 0,316,317
 280 600 280 600 300 600 c 256,318,319
 321 600 321 600 335 585 c 0,320,321
 339 582 339 582 342 578 c 1,322,-1
 342 578 l 1,323,324
 345 582 345 582 348 585 c 0,325,326
 363 600 363 600 384 600 c 128,-1,327
 405 600 405 600 419 585 c 0,328,329
 423 582 423 582 425 578 c 1,330,-1
 425 578 l 1,331,332
 428 582 428 582 431 585 c 0,333,334
 446 600 446 600 467 600 c 256,335,336
 488 600 488 600 502 585 c 0,337,338
 506 582 506 582 508 578 c 1,339,-1
 508 578 l 1,340,341
 510 582 510 582 514 585 c 0,342,343
 529 600 529 600 550 600 c 256,344,345
 571 600 571 600 585 585 c 0,346,347
 600 570 600 570 600 550 c 256,348,349
 600 528 600 528 585 514 c 0,350,351
 570.9375 499.9375 570.9375 499.9375 552.48046875 499.9375 c 0,352,353
 551.25 499.9375 551.25 499.9375 550 500 c 256,354,355
 528 500 528 500 514 514 c 0,356,357
 510 518 510 518 508 522 c 1,358,359
 505 518 505 518 502 514 c 0,360,361
 487.9375 499.9375 487.9375 499.9375 469.48046875 499.9375 c 0,362,363
 468.25 499.9375 468.25 499.9375 467 500 c 256,364,365
 446 500 446 500 431 514 c 0,366,367
 427 518 427 518 425 522 c 1,368,369
 422 518 422 518 419 514 c 0,370,371
 404.9375 499.9375 404.9375 499.9375 386.48046875 499.9375 c 0,372,373
 385.25 499.9375 385.25 499.9375 384 500 c 0,374,375
 363 500 363 500 348 514 c 0,376,377
 344 518 344 518 342 522 c 1,378,379
 339 518 339 518 335 514 c 0,380,381
 320.9375 499.9375 320.9375 499.9375 302.48046875 499.9375 c 0,382,383
 301.25 499.9375 301.25 499.9375 300 500 c 1,384,-1
 300 500 l 1,310,311
EndSplineSet
Validated: 524293
EndChar

StartChar: six
Encoding: 54 54 7
Width: 666
VWidth: 699
Flags: W
LayerCount: 2
Fore
SplineSet
175 22 m 1,0,1
 175 22 l 1,2,-1
 175 22 l 1,3,4
 175 22 l 1,5,-1
 175 22 l 1,0,1
133 0 m 1,6,7
 112 0 112 0 98 15 c 0,8,9
 83 30 83 30 83 50 c 256,10,11
 83 71 83 71 98 85 c 256,12,13
 113 100 113 100 133 100 c 256,14,15
 154 100 154 100 169 85 c 0,16,17
 173 81 173 81 175 78 c 1,18,-1
 175 78 l 1,19,20
 178 82 178 82 181 85 c 0,21,22
 196 100 196 100 216 100 c 256,23,24
 237 100 237 100 252 85 c 256,25,26
 267 70 267 70 267 50 c 256,27,28
 267 29 267 29 252 15 c 0,29,30
 237 0 237 0 216 0 c 256,31,32
 195 0 195 0 181 15 c 0,33,34
 177 19 177 19 175 22 c 1,35,36
 172 18 172 18 169 15 c 0,37,38
 154 0 154 0 133 0 c 1,39,-1
 133 0 l 1,6,7
50 100 m 1,40,41
 29 100 29 100 15 115 c 0,42,43
 0 130 0 130 0 150 c 256,44,45
 0 172 0 172 15 186 c 0,46,47
 29.0625 200.0625 29.0625 200.0625 47.51953125 200.0625 c 0,48,49
 48.75 200.0625 48.75 200.0625 50 200 c 256,50,51
 71 200 71 200 85 186 c 256,52,53
 100 171 100 171 100 150 c 256,54,55
 100 129 100 129 85 115 c 0,56,57
 70 100 70 100 50 100 c 1,58,-1
 50 100 l 1,40,41
300 100 m 1,59,60
 279 100 279 100 265 115 c 0,61,62
 250 130 250 130 250 150 c 256,63,64
 250 172 250 172 265 186 c 256,65,66
 279.0625 200.0625 279.0625 200.0625 297.51953125 200.0625 c 0,67,68
 298.75 200.0625 298.75 200.0625 300 200 c 256,69,70
 321 200 321 200 335 186 c 0,71,72
 350 171 350 171 350 150 c 256,73,74
 350 129 350 129 335 115 c 0,75,76
 320 100 320 100 300 100 c 1,77,-1
 300 100 l 1,59,60
550 100 m 1,78,79
 528 100 528 100 514 115 c 0,80,81
 499.9375 129.0625 499.9375 129.0625 499.9375 147.51953125 c 0,82,83
 499.9375 171.9375 499.9375 171.9375 514 186 c 256,84,85
 528.0625 200.0625 528.0625 200.0625 547.3984375 200.0625 c 0,86,87
 548.6875 200.0625 548.6875 200.0625 550 200 c 256,88,89
 571 200 571 200 585 186 c 0,90,91
 600 171 600 171 600 150 c 256,92,93
 600 129 600 129 585 115 c 0,94,95
 570 100 570 100 550 100 c 1,96,-1
 550 100 l 1,78,79
50 200 m 1,97,98
 29 200 29 200 15 214 c 0,99,100
 0 229 0 229 0 250 c 256,101,102
 0 271 0 271 15 285 c 0,103,104
 30 300 30 300 50 300 c 256,105,106
 71 300 71 300 85 285 c 256,107,108
 100 270 100 270 100 250 c 256,109,110
 100 229 100 229 85 214 c 0,111,112
 70.9375 199.9375 70.9375 199.9375 52.48046875 199.9375 c 0,113,114
 51.25 199.9375 51.25 199.9375 50 200 c 1,115,-1
 50 200 l 1,97,98
300 200 m 1,116,117
 279 200 279 200 265 214 c 0,118,119
 250 229 250 229 250 250 c 256,120,121
 250 271 250 271 265 285 c 256,122,123
 280 300 280 300 300 300 c 256,124,125
 321 300 321 300 335 285 c 0,126,127
 350 270 350 270 350 250 c 256,128,129
 350 229 350 229 335 214 c 0,130,131
 320.9375 199.9375 320.9375 199.9375 302.48046875 199.9375 c 0,132,133
 301.25 199.9375 301.25 199.9375 300 200 c 1,134,-1
 300 200 l 1,116,117
550 200 m 1,135,136
 528 200 528 200 514 214 c 128,-1,137
 499.9375 228.0625 499.9375 228.0625 499.9375 247.3984375 c 0,138,139
 499.9375 270.9375 499.9375 270.9375 514 285 c 256,140,141
 529 300 529 300 550 300 c 256,142,143
 571 300 571 300 585 285 c 0,144,145
 600 270 600 270 600 250 c 256,146,147
 600 229 600 229 585 214 c 0,148,149
 570.9375 199.9375 570.9375 199.9375 552.48046875 199.9375 c 0,150,151
 551.25 199.9375 551.25 199.9375 550 200 c 1,152,-1
 550 200 l 1,135,136
50 300 m 1,153,154
 29 300 29 300 15 314 c 0,155,156
 0 329 0 329 0 350 c 128,-1,157
 0 371 0 371 15 386 c 0,158,159
 29.0625 400.0625 29.0625 400.0625 47.51953125 400.0625 c 0,160,161
 48.75 400.0625 48.75 400.0625 50 400 c 256,162,163
 71 400 71 400 85 386 c 0,164,165
 100 371 100 371 100 350 c 128,-1,166
 100 329 100 329 85 314 c 0,167,168
 70.9375 299.9375 70.9375 299.9375 52.48046875 299.9375 c 0,169,170
 51.25 299.9375 51.25 299.9375 50 300 c 1,171,-1
 50 300 l 1,153,154
300 300 m 1,172,173
 279 300 279 300 265 314 c 0,174,175
 250 329 250 329 250 350 c 128,-1,176
 250 371 250 371 265 386 c 0,177,178
 279.0625 400.0625 279.0625 400.0625 297.51953125 400.0625 c 0,179,180
 298.75 400.0625 298.75 400.0625 300 400 c 256,181,182
 321 400 321 400 335 386 c 0,183,184
 350 371 350 371 350 350 c 128,-1,185
 350 329 350 329 335 314 c 0,186,187
 320.9375 299.9375 320.9375 299.9375 302.48046875 299.9375 c 0,188,189
 301.25 299.9375 301.25 299.9375 300 300 c 1,190,-1
 300 300 l 1,172,173
550 300 m 1,191,192
 528 300 528 300 514 314 c 128,-1,193
 499.9375 328.0625 499.9375 328.0625 499.9375 347.3984375 c 0,194,195
 499.9375 370.933035714 499.9375 370.933035714 514 386 c 0,196,197
 528.0625 400.0625 528.0625 400.0625 547.3984375 400.0625 c 0,198,199
 548.6875 400.0625 548.6875 400.0625 550 400 c 256,200,201
 571 400 571 400 585 386 c 0,202,203
 600 371 600 371 600 350 c 128,-1,204
 600 329 600 329 585 314 c 0,205,206
 570.9375 299.9375 570.9375 299.9375 552.48046875 299.9375 c 0,207,208
 551.25 299.9375 551.25 299.9375 550 300 c 1,209,-1
 550 300 l 1,191,192
50 400 m 1,210,211
 29 400 29 400 15 414 c 0,212,213
 0 429 0 429 0 450 c 256,214,215
 0 471 0 471 15 485 c 0,216,217
 30 500 30 500 50 500 c 256,218,219
 71 500 71 500 85 485 c 0,220,221
 100 470 100 470 100 450 c 256,222,223
 100 429 100 429 85 414 c 256,224,225
 70.9375 399.9375 70.9375 399.9375 52.48046875 399.9375 c 0,226,227
 51.25 399.9375 51.25 399.9375 50 400 c 1,228,-1
 50 400 l 1,210,211
300 400 m 1,229,230
 279 400 279 400 265 414 c 256,231,232
 250 429 250 429 250 450 c 256,233,234
 250 471 250 471 265 485 c 0,235,236
 280 500 280 500 300 500 c 256,237,238
 321 500 321 500 335 485 c 0,239,240
 350 470 350 470 350 450 c 256,241,242
 350 429 350 429 335 414 c 0,243,244
 320.9375 399.9375 320.9375 399.9375 302.48046875 399.9375 c 0,245,246
 301.25 399.9375 301.25 399.9375 300 400 c 1,247,-1
 300 400 l 1,229,230
550 400 m 1,248,249
 528 400 528 400 514 414 c 256,250,251
 499.9375 428.0625 499.9375 428.0625 499.9375 447.3984375 c 0,252,253
 499.9375 470.9375 499.9375 470.9375 514 485 c 0,254,255
 529 500 529 500 550 500 c 256,256,257
 571 500 571 500 585 485 c 0,258,259
 600 470 600 470 600 450 c 256,260,261
 600 429 600 429 585 414 c 0,262,263
 570.9375 399.9375 570.9375 399.9375 552.48046875 399.9375 c 0,264,265
 551.25 399.9375 551.25 399.9375 550 400 c 1,266,-1
 550 400 l 1,248,249
50 500 m 1,267,268
 29 500 29 500 15 514 c 0,269,270
 0 529 0 529 0 550 c 256,271,272
 0 571 0 571 15 585 c 0,273,274
 30 600 30 600 50 600 c 256,275,276
 71 600 71 600 85 585 c 0,277,278
 100 570 100 570 100 550 c 256,279,280
 100 528 100 528 85 514 c 256,281,282
 70.9375 499.9375 70.9375 499.9375 52.48046875 499.9375 c 0,283,284
 51.25 499.9375 51.25 499.9375 50 500 c 1,285,-1
 50 500 l 1,267,268
300 500 m 1,286,287
 279 500 279 500 265 514 c 256,288,289
 250 529 250 529 250 550 c 256,290,291
 250 571 250 571 265 585 c 0,292,293
 280 600 280 600 300 600 c 256,294,295
 321 600 321 600 335 585 c 0,296,297
 350 570 350 570 350 550 c 256,298,299
 350 528 350 528 335 514 c 0,300,301
 320.9375 499.9375 320.9375 499.9375 302.48046875 499.9375 c 0,302,303
 301.25 499.9375 301.25 499.9375 300 500 c 1,304,-1
 300 500 l 1,286,287
550 500 m 1,305,306
 528 500 528 500 514 514 c 256,307,308
 499.9375 528.0625 499.9375 528.0625 499.9375 547.3984375 c 0,309,310
 499.9375 570.9375 499.9375 570.9375 514 585 c 0,311,312
 529 600 529 600 550 600 c 256,313,314
 571 600 571 600 585 585 c 0,315,316
 600 570 600 570 600 550 c 256,317,318
 600 528 600 528 585 514 c 0,319,320
 570.9375 499.9375 570.9375 499.9375 552.48046875 499.9375 c 0,321,322
 551.25 499.9375 551.25 499.9375 550 500 c 1,323,-1
 550 500 l 1,305,306
175 622 m 1,324,-1
 175 622 l 1,325,-1
 175 622 l 1,326,-1
 175 622 l 1,327,-1
 175 622 l 1,324,-1
133 600 m 1,328,329
 112 600 112 600 98 615 c 256,330,331
 83 630 83 630 83 650 c 256,332,333
 83 671 83 671 98 685 c 256,334,335
 113 700 113 700 133 700 c 256,336,337
 154 700 154 700 169 685 c 0,338,339
 173 681 173 681 175 678 c 1,340,-1
 175 678 l 1,341,342
 178 682 178 682 181 685 c 0,343,344
 196 700 196 700 216 700 c 256,345,346
 237 700 237 700 252 685 c 256,347,348
 267 670 267 670 267 650 c 256,349,350
 267 629 267 629 252 615 c 256,351,352
 237 600 237 600 216 600 c 256,353,354
 195 600 195 600 181 615 c 0,355,356
 177 619 177 619 175 622 c 1,357,358
 172 618 172 618 169 615 c 0,359,360
 154 600 154 600 133 600 c 1,361,-1
 133 600 l 1,328,329
384 600 m 1,362,363
 363 600 363 600 348 615 c 128,-1,364
 333 630 333 630 333 650 c 256,365,366
 333 671 333 671 348 685 c 0,367,368
 363 700 363 700 384 700 c 128,-1,369
 405 700 405 700 419 685 c 0,370,371
 423 681 423 681 425 678 c 1,372,-1
 425 678 l 1,373,374
 428 682 428 682 431 685 c 0,375,376
 446 700 446 700 467 700 c 256,377,378
 488 700 488 700 502 685 c 256,379,380
 517 670 517 670 517 650 c 256,381,382
 517 629 517 629 502 615 c 256,383,384
 487 600 487 600 467 600 c 256,385,386
 446 600 446 600 431 615 c 0,387,388
 427 619 427 619 425 622 c 1,389,390
 422 618 422 618 419 615 c 0,391,392
 404 600 404 600 384 600 c 1,393,-1
 384 600 l 1,362,363
EndSplineSet
Validated: 524293
EndChar

StartChar: seven
Encoding: 55 55 8
Width: 666
VWidth: 699
Flags: W
LayerCount: 2
Fore
SplineSet
508 22 m 1,0,1
 508 22 l 1,2,-1
 508 22 l 1,3,4
 508 22 l 1,5,-1
 508 22 l 1,0,1
467 0 m 1,6,7
 446 0 446 0 431 15 c 128,-1,8
 416 30 416 30 416 50 c 256,9,10
 416 71 416 71 431 85 c 0,11,12
 446 100 446 100 467 100 c 256,13,14
 488 100 488 100 502 85 c 0,15,16
 506 81 506 81 508 78 c 1,17,-1
 508 78 l 1,18,19
 510 82 510 82 514 85 c 0,20,21
 529 100 529 100 550 100 c 256,22,23
 571 100 571 100 585 85 c 0,24,25
 600 70 600 70 600 50 c 256,26,27
 600 29 600 29 585 15 c 0,28,29
 570 0 570 0 550 0 c 256,30,31
 528 0 528 0 514 15 c 0,32,33
 510 19 510 19 508 22 c 1,34,35
 505 18 505 18 502 15 c 0,36,37
 487 0 487 0 467 0 c 1,38,-1
 467 0 l 1,6,7
384 100 m 1,39,40
 363 100 363 100 348 115 c 128,-1,41
 333 130 333 130 333 150 c 256,42,43
 333 172 333 172 348 186 c 0,44,45
 362.0625 200.0625 362.0625 200.0625 381.3984375 200.0625 c 0,46,47
 382.6875 200.0625 382.6875 200.0625 384 200 c 0,48,49
 405 200 405 200 419 186 c 128,-1,50
 433.0625 171.9375 433.0625 171.9375 433.0625 152.6015625 c 0,51,52
 433.0625 129.0625 433.0625 129.0625 419 115 c 0,53,54
 404 100 404 100 384 100 c 1,55,-1
 384 100 l 1,39,40
550 100 m 1,56,57
 528 100 528 100 514 115 c 0,58,59
 499.9375 129.0625 499.9375 129.0625 499.9375 147.51953125 c 0,60,61
 499.9375 171.9375 499.9375 171.9375 514 186 c 256,62,63
 528.0625 200.0625 528.0625 200.0625 547.3984375 200.0625 c 0,64,65
 548.6875 200.0625 548.6875 200.0625 550 200 c 256,66,67
 571 200 571 200 585 186 c 0,68,69
 600 171 600 171 600 150 c 256,70,71
 600 129 600 129 585 115 c 0,72,73
 570 100 570 100 550 100 c 1,74,-1
 550 100 l 1,56,57
300 200 m 1,75,76
 279 200 279 200 265 214 c 0,77,78
 250 229 250 229 250 250 c 256,79,80
 250 271 250 271 265 285 c 256,81,82
 280 300 280 300 300 300 c 256,83,84
 321 300 321 300 335 285 c 0,85,86
 350 270 350 270 350 250 c 256,87,88
 350 229 350 229 335 214 c 0,89,90
 320.9375 199.9375 320.9375 199.9375 302.48046875 199.9375 c 0,91,92
 301.25 199.9375 301.25 199.9375 300 200 c 1,93,-1
 300 200 l 1,75,76
550 200 m 1,94,95
 528 200 528 200 514 214 c 128,-1,96
 499.9375 228.0625 499.9375 228.0625 499.9375 247.3984375 c 0,97,98
 499.9375 270.9375 499.9375 270.9375 514 285 c 256,99,100
 529 300 529 300 550 300 c 256,101,102
 571 300 571 300 585 285 c 0,103,104
 600 270 600 270 600 250 c 256,105,106
 600 229 600 229 585 214 c 0,107,108
 570.9375 199.9375 570.9375 199.9375 552.48046875 199.9375 c 0,109,110
 551.25 199.9375 551.25 199.9375 550 200 c 1,111,-1
 550 200 l 1,94,95
92 322 m 1,112,-1
 92 322 l 1,113,-1
 92 322 l 1,114,-1
 92 322 l 1,115,-1
 92 322 l 1,112,-1
50 300 m 1,116,117
 29 300 29 300 15 314 c 0,118,119
 0 329 0 329 0 350 c 128,-1,120
 0 371 0 371 15 386 c 0,121,122
 29.0625 400.0625 29.0625 400.0625 47.51953125 400.0625 c 0,123,124
 48.75 400.0625 48.75 400.0625 50 400 c 256,125,126
 71 400 71 400 85 386 c 0,127,128
 89 382 89 382 92 378 c 1,129,-1
 92 378 l 1,130,131
 95 382 95 382 98 386 c 0,132,133
 112.0625 400.0625 112.0625 400.0625 130.51953125 400.0625 c 0,134,135
 131.75 400.0625 131.75 400.0625 133 400 c 256,136,137
 154 400 154 400 169 386 c 0,138,139
 173 382 173 382 175 378 c 1,140,-1
 175 378 l 1,141,142
 178 382 178 382 181 386 c 0,143,144
 195.0625 400.0625 195.0625 400.0625 213.51953125 400.0625 c 0,145,146
 214.75 400.0625 214.75 400.0625 216 400 c 256,147,148
 237 400 237 400 252 386 c 0,149,150
 267 371 267 371 267 350 c 128,-1,151
 267 329 267 329 252 314 c 0,152,153
 237.9375 299.9375 237.9375 299.9375 218.6015625 299.9375 c 0,154,155
 217.3125 299.9375 217.3125 299.9375 216 300 c 256,156,157
 195 300 195 300 181 314 c 0,158,159
 177 318 177 318 175 322 c 1,160,161
 172 318 172 318 169 314 c 0,162,163
 154.9375 299.9375 154.9375 299.9375 135.6015625 299.9375 c 0,164,165
 134.3125 299.9375 134.3125 299.9375 133 300 c 256,166,167
 112 300 112 300 98 314 c 0,168,169
 94 318 94 318 92 322 c 1,170,171
 89 318 89 318 85 314 c 0,172,173
 70.9375 299.9375 70.9375 299.9375 52.48046875 299.9375 c 0,174,175
 51.25 299.9375 51.25 299.9375 50 300 c 1,176,-1
 50 300 l 1,116,117
550 300 m 1,177,178
 528 300 528 300 514 314 c 128,-1,179
 499.9375 328.0625 499.9375 328.0625 499.9375 347.3984375 c 0,180,181
 499.9375 370.933035714 499.9375 370.933035714 514 386 c 0,182,183
 528.0625 400.0625 528.0625 400.0625 547.3984375 400.0625 c 0,184,185
 548.6875 400.0625 548.6875 400.0625 550 400 c 256,186,187
 571 400 571 400 585 386 c 0,188,189
 600 371 600 371 600 350 c 128,-1,190
 600 329 600 329 585 314 c 0,191,192
 570.9375 299.9375 570.9375 299.9375 552.48046875 299.9375 c 0,193,194
 551.25 299.9375 551.25 299.9375 550 300 c 1,195,-1
 550 300 l 1,177,178
550 400 m 1,196,197
 528 400 528 400 514 414 c 256,198,199
 499.9375 428.0625 499.9375 428.0625 499.9375 447.3984375 c 0,200,201
 499.9375 470.9375 499.9375 470.9375 514 485 c 0,202,203
 529 500 529 500 550 500 c 256,204,205
 571 500 571 500 585 485 c 0,206,207
 600 470 600 470 600 450 c 256,208,209
 600 429 600 429 585 414 c 0,210,211
 570.9375 399.9375 570.9375 399.9375 552.48046875 399.9375 c 0,212,213
 551.25 399.9375 551.25 399.9375 550 400 c 1,214,-1
 550 400 l 1,196,197
550 500 m 1,215,216
 528 500 528 500 514 514 c 256,217,218
 499.9375 528.0625 499.9375 528.0625 499.9375 547.3984375 c 0,219,220
 499.9375 570.9375 499.9375 570.9375 514 585 c 0,221,222
 529 600 529 600 550 600 c 256,223,224
 571 600 571 600 585 585 c 0,225,226
 600 570 600 570 600 550 c 256,227,228
 600 528 600 528 585 514 c 0,229,230
 570.9375 499.9375 570.9375 499.9375 552.48046875 499.9375 c 0,231,232
 551.25 499.9375 551.25 499.9375 550 500 c 1,233,-1
 550 500 l 1,215,216
EndSplineSet
Validated: 524293
EndChar

StartChar: eight
Encoding: 56 56 9
Width: 666
VWidth: 699
Flags: W
LayerCount: 2
Fore
SplineSet
425 22 m 1,0,1
 425 22 l 1,2,-1
 425 22 l 1,3,4
 425 22 l 1,5,-1
 425 22 l 1,0,1
175 22 m 1,6,7
 175 22 l 1,8,-1
 175 22 l 1,9,10
 175 22 l 1,11,-1
 175 22 l 1,6,7
133 0 m 1,12,13
 112 0 112 0 98 15 c 0,14,15
 83 30 83 30 83 50 c 256,16,17
 83 71 83 71 98 85 c 256,18,19
 113 100 113 100 133 100 c 256,20,21
 154 100 154 100 169 85 c 0,22,23
 173 81 173 81 175 78 c 1,24,-1
 175 78 l 1,25,26
 178 82 178 82 181 85 c 0,27,28
 196 100 196 100 216 100 c 256,29,30
 237 100 237 100 252 85 c 256,31,32
 267 70 267 70 267 50 c 256,33,34
 267 29 267 29 252 15 c 0,35,36
 237 0 237 0 216 0 c 256,37,38
 195 0 195 0 181 15 c 0,39,40
 177 19 177 19 175 22 c 1,41,42
 172 18 172 18 169 15 c 0,43,44
 154 0 154 0 133 0 c 1,45,-1
 133 0 l 1,12,13
384 0 m 1,46,47
 363 0 363 0 348 15 c 128,-1,48
 333 30 333 30 333 50 c 256,49,50
 333 71 333 71 348 85 c 0,51,52
 363 100 363 100 384 100 c 128,-1,53
 405 100 405 100 419 85 c 0,54,55
 423 81 423 81 425 78 c 1,56,-1
 425 78 l 1,57,58
 428 82 428 82 431 85 c 0,59,60
 446 100 446 100 467 100 c 256,61,62
 488 100 488 100 502 85 c 256,63,64
 517 70 517 70 517 50 c 256,65,66
 517 29 517 29 502 15 c 0,67,68
 487 0 487 0 467 0 c 256,69,70
 446 0 446 0 431 15 c 0,71,72
 427 19 427 19 425 22 c 1,73,-1
 425 22 l 1,74,75
 422 18 422 18 419 15 c 0,76,77
 404 0 404 0 384 0 c 1,78,-1
 384 0 l 1,46,47
50 100 m 1,79,80
 29 100 29 100 15 115 c 0,81,82
 0 130 0 130 0 150 c 256,83,84
 0 172 0 172 15 186 c 0,85,86
 29.0625 200.0625 29.0625 200.0625 47.51953125 200.0625 c 0,87,88
 48.75 200.0625 48.75 200.0625 50 200 c 256,89,90
 71 200 71 200 85 186 c 256,91,92
 100 171 100 171 100 150 c 256,93,94
 100 129 100 129 85 115 c 0,95,96
 70 100 70 100 50 100 c 1,97,-1
 50 100 l 1,79,80
300 100 m 1,98,99
 279 100 279 100 265 115 c 0,100,101
 250 130 250 130 250 150 c 256,102,103
 250 172 250 172 265 186 c 256,104,105
 279.0625 200.0625 279.0625 200.0625 297.51953125 200.0625 c 0,106,107
 298.75 200.0625 298.75 200.0625 300 200 c 256,108,109
 321 200 321 200 335 186 c 0,110,111
 350 171 350 171 350 150 c 256,112,113
 350 129 350 129 335 115 c 0,114,115
 320 100 320 100 300 100 c 1,116,-1
 300 100 l 1,98,99
550 100 m 1,117,118
 528 100 528 100 514 115 c 0,119,120
 499.9375 129.0625 499.9375 129.0625 499.9375 147.51953125 c 0,121,122
 499.9375 171.9375 499.9375 171.9375 514 186 c 256,123,124
 528.0625 200.0625 528.0625 200.0625 547.3984375 200.0625 c 0,125,126
 548.6875 200.0625 548.6875 200.0625 550 200 c 256,127,128
 571 200 571 200 585 186 c 0,129,130
 600 171 600 171 600 150 c 256,131,132
 600 129 600 129 585 115 c 0,133,134
 570 100 570 100 550 100 c 1,135,-1
 550 100 l 1,117,118
50 200 m 1,136,137
 29 200 29 200 15 214 c 0,138,139
 0 229 0 229 0 250 c 256,140,141
 0 271 0 271 15 285 c 0,142,143
 30 300 30 300 50 300 c 256,144,145
 71 300 71 300 85 285 c 256,146,147
 100 270 100 270 100 250 c 256,148,149
 100 229 100 229 85 214 c 0,150,151
 70.9375 199.9375 70.9375 199.9375 52.48046875 199.9375 c 0,152,153
 51.25 199.9375 51.25 199.9375 50 200 c 1,154,-1
 50 200 l 1,136,137
300 200 m 1,155,156
 279 200 279 200 265 214 c 0,157,158
 250 229 250 229 250 250 c 256,159,160
 250 271 250 271 265 285 c 256,161,162
 280 300 280 300 300 300 c 256,163,164
 321 300 321 300 335 285 c 0,165,166
 350 270 350 270 350 250 c 256,167,168
 350 229 350 229 335 214 c 0,169,170
 320.9375 199.9375 320.9375 199.9375 302.48046875 199.9375 c 0,171,172
 301.25 199.9375 301.25 199.9375 300 200 c 1,173,-1
 300 200 l 1,155,156
550 200 m 1,174,175
 528 200 528 200 514 214 c 128,-1,176
 499.9375 228.0625 499.9375 228.0625 499.9375 247.3984375 c 0,177,178
 499.9375 270.9375 499.9375 270.9375 514 285 c 256,179,180
 529 300 529 300 550 300 c 256,181,182
 571 300 571 300 585 285 c 0,183,184
 600 270 600 270 600 250 c 256,185,186
 600 229 600 229 585 214 c 0,187,188
 570.9375 199.9375 570.9375 199.9375 552.48046875 199.9375 c 0,189,190
 551.25 199.9375 551.25 199.9375 550 200 c 1,191,-1
 550 200 l 1,174,175
50 300 m 1,192,193
 29 300 29 300 15 314 c 0,194,195
 0 329 0 329 0 350 c 128,-1,196
 0 371 0 371 15 386 c 0,197,198
 29.0625 400.0625 29.0625 400.0625 47.51953125 400.0625 c 0,199,200
 48.75 400.0625 48.75 400.0625 50 400 c 256,201,202
 71 400 71 400 85 386 c 0,203,204
 100 371 100 371 100 350 c 128,-1,205
 100 329 100 329 85 314 c 0,206,207
 70.9375 299.9375 70.9375 299.9375 52.48046875 299.9375 c 0,208,209
 51.25 299.9375 51.25 299.9375 50 300 c 1,210,-1
 50 300 l 1,192,193
300 300 m 1,211,212
 279 300 279 300 265 314 c 0,213,214
 250 329 250 329 250 350 c 128,-1,215
 250 371 250 371 265 386 c 0,216,217
 279.0625 400.0625 279.0625 400.0625 297.51953125 400.0625 c 0,218,219
 298.75 400.0625 298.75 400.0625 300 400 c 256,220,221
 321 400 321 400 335 386 c 0,222,223
 350 371 350 371 350 350 c 128,-1,224
 350 329 350 329 335 314 c 0,225,226
 320.9375 299.9375 320.9375 299.9375 302.48046875 299.9375 c 0,227,228
 301.25 299.9375 301.25 299.9375 300 300 c 1,229,-1
 300 300 l 1,211,212
550 300 m 1,230,231
 528 300 528 300 514 314 c 128,-1,232
 499.9375 328.0625 499.9375 328.0625 499.9375 347.3984375 c 0,233,234
 499.9375 370.933035714 499.9375 370.933035714 514 386 c 0,235,236
 528.0625 400.0625 528.0625 400.0625 547.3984375 400.0625 c 0,237,238
 548.6875 400.0625 548.6875 400.0625 550 400 c 256,239,240
 571 400 571 400 585 386 c 0,241,242
 600 371 600 371 600 350 c 128,-1,243
 600 329 600 329 585 314 c 0,244,245
 570.9375 299.9375 570.9375 299.9375 552.48046875 299.9375 c 0,246,247
 551.25 299.9375 551.25 299.9375 550 300 c 1,248,-1
 550 300 l 1,230,231
50 400 m 1,249,250
 29 400 29 400 15 414 c 0,251,252
 0 429 0 429 0 450 c 256,253,254
 0 471 0 471 15 485 c 0,255,256
 30 500 30 500 50 500 c 256,257,258
 71 500 71 500 85 485 c 0,259,260
 100 470 100 470 100 450 c 256,261,262
 100 429 100 429 85 414 c 256,263,264
 70.9375 399.9375 70.9375 399.9375 52.48046875 399.9375 c 0,265,266
 51.25 399.9375 51.25 399.9375 50 400 c 1,267,-1
 50 400 l 1,249,250
300 400 m 1,268,269
 279 400 279 400 265 414 c 256,270,271
 250 429 250 429 250 450 c 256,272,273
 250 471 250 471 265 485 c 0,274,275
 280 500 280 500 300 500 c 256,276,277
 321 500 321 500 335 485 c 0,278,279
 350 470 350 470 350 450 c 256,280,281
 350 429 350 429 335 414 c 0,282,283
 320.9375 399.9375 320.9375 399.9375 302.48046875 399.9375 c 0,284,285
 301.25 399.9375 301.25 399.9375 300 400 c 1,286,-1
 300 400 l 1,268,269
550 400 m 1,287,288
 528 400 528 400 514 414 c 256,289,290
 499.9375 428.0625 499.9375 428.0625 499.9375 447.3984375 c 0,291,292
 499.9375 470.9375 499.9375 470.9375 514 485 c 0,293,294
 529 500 529 500 550 500 c 256,295,296
 571 500 571 500 585 485 c 0,297,298
 600 470 600 470 600 450 c 256,299,300
 600 429 600 429 585 414 c 0,301,302
 570.9375 399.9375 570.9375 399.9375 552.48046875 399.9375 c 0,303,304
 551.25 399.9375 551.25 399.9375 550 400 c 1,305,-1
 550 400 l 1,287,288
50 500 m 1,306,307
 29 500 29 500 15 514 c 0,308,309
 0 529 0 529 0 550 c 256,310,311
 0 571 0 571 15 585 c 0,312,313
 30 600 30 600 50 600 c 256,314,315
 71 600 71 600 85 585 c 0,316,317
 100 570 100 570 100 550 c 256,318,319
 100 528 100 528 85 514 c 256,320,321
 70.9375 499.9375 70.9375 499.9375 52.48046875 499.9375 c 0,322,323
 51.25 499.9375 51.25 499.9375 50 500 c 1,324,-1
 50 500 l 1,306,307
300 500 m 1,325,326
 279 500 279 500 265 514 c 256,327,328
 250 529 250 529 250 550 c 256,329,330
 250 571 250 571 265 585 c 0,331,332
 280 600 280 600 300 600 c 256,333,334
 321 600 321 600 335 585 c 0,335,336
 350 570 350 570 350 550 c 256,337,338
 350 528 350 528 335 514 c 0,339,340
 320.9375 499.9375 320.9375 499.9375 302.48046875 499.9375 c 0,341,342
 301.25 499.9375 301.25 499.9375 300 500 c 1,343,-1
 300 500 l 1,325,326
550 500 m 1,344,345
 528 500 528 500 514 514 c 256,346,347
 499.9375 528.0625 499.9375 528.0625 499.9375 547.3984375 c 0,348,349
 499.9375 570.9375 499.9375 570.9375 514 585 c 0,350,351
 529 600 529 600 550 600 c 256,352,353
 571 600 571 600 585 585 c 0,354,355
 600 570 600 570 600 550 c 256,356,357
 600 528 600 528 585 514 c 0,358,359
 570.9375 499.9375 570.9375 499.9375 552.48046875 499.9375 c 0,360,361
 551.25 499.9375 551.25 499.9375 550 500 c 1,362,-1
 550 500 l 1,344,345
175 622 m 1,363,-1
 175 622 l 1,364,-1
 175 622 l 1,365,-1
 175 622 l 1,366,-1
 175 622 l 1,363,-1
425 622 m 1,367,-1
 425 622 l 1,368,-1
 425 622 l 1,369,-1
 425 622 l 1,370,-1
 425 622 l 1,367,-1
133 600 m 1,371,372
 112 600 112 600 98 615 c 256,373,374
 83 630 83 630 83 650 c 256,375,376
 83 671 83 671 98 685 c 256,377,378
 113 700 113 700 133 700 c 256,379,380
 154 700 154 700 169 685 c 0,381,382
 173 681 173 681 175 678 c 1,383,-1
 175 678 l 1,384,385
 178 682 178 682 181 685 c 0,386,387
 196 700 196 700 216 700 c 256,388,389
 237 700 237 700 252 685 c 256,390,391
 267 670 267 670 267 650 c 256,392,393
 267 629 267 629 252 615 c 256,394,395
 237 600 237 600 216 600 c 256,396,397
 195 600 195 600 181 615 c 0,398,399
 177 619 177 619 175 622 c 1,400,-1
 175 622 l 1,401,402
 172 618 172 618 169 615 c 0,403,404
 154 600 154 600 133 600 c 1,405,-1
 133 600 l 1,371,372
384 600 m 1,406,407
 363 600 363 600 348 615 c 128,-1,408
 333 630 333 630 333 650 c 256,409,410
 333 671 333 671 348 685 c 0,411,412
 363 700 363 700 384 700 c 128,-1,413
 405 700 405 700 419 685 c 0,414,415
 423 681 423 681 425 678 c 1,416,-1
 425 678 l 1,417,418
 428 682 428 682 431 685 c 0,419,420
 446 700 446 700 467 700 c 256,421,422
 488 700 488 700 502 685 c 256,423,424
 517 670 517 670 517 650 c 256,425,426
 517 629 517 629 502 615 c 256,427,428
 487 600 487 600 467 600 c 256,429,430
 446 600 446 600 431 615 c 0,431,432
 427 619 427 619 425 622 c 1,433,434
 422 618 422 618 419 615 c 0,435,436
 404 600 404 600 384 600 c 1,437,-1
 384 600 l 1,406,407
EndSplineSet
Validated: 524293
EndChar

StartChar: nine
Encoding: 57 57 10
Width: 666
VWidth: 699
Flags: W
LayerCount: 2
Fore
SplineSet
342 22 m 1,0,1
 342 22 l 1,2,-1
 342 22 l 1,3,4
 342 22 l 1,5,-1
 342 22 l 1,0,1
175 22 m 1,6,7
 175 22 l 1,8,-1
 175 22 l 1,9,10
 175 22 l 1,11,-1
 175 22 l 1,6,7
133 0 m 1,12,13
 112 0 112 0 98 15 c 0,14,15
 83 30 83 30 83 50 c 256,16,17
 83 71 83 71 98 85 c 256,18,19
 113 100 113 100 133 100 c 256,20,21
 154 100 154 100 169 85 c 0,22,23
 173 81 173 81 175 78 c 1,24,-1
 175 78 l 1,25,26
 178 82 178 82 181 85 c 0,27,28
 196 100 196 100 216 100 c 256,29,30
 237 100 237 100 252 85 c 0,31,32
 256 81 256 81 258 78 c 1,33,-1
 258 78 l 1,34,35
 261 82 261 82 265 85 c 0,36,37
 280 100 280 100 300 100 c 256,38,39
 321 100 321 100 335 85 c 0,40,41
 339 81 339 81 342 78 c 1,42,-1
 342 78 l 1,43,44
 345 82 345 82 348 85 c 0,45,46
 363 100 363 100 384 100 c 128,-1,47
 405 100 405 100 419 85 c 0,48,49
 423 81 423 81 425 78 c 1,50,-1
 425 78 l 1,51,52
 428 82 428 82 431 85 c 0,53,54
 446 100 446 100 467 100 c 256,55,56
 488 100 488 100 502 85 c 256,57,58
 517 70 517 70 517 50 c 256,59,60
 517 29 517 29 502 15 c 0,61,62
 487 0 487 0 467 0 c 256,63,64
 446 0 446 0 431 15 c 0,65,66
 427 19 427 19 425 22 c 1,67,68
 422 18 422 18 419 15 c 0,69,70
 404 0 404 0 384 0 c 0,71,72
 363 0 363 0 348 15 c 0,73,74
 344 19 344 19 342 22 c 1,75,76
 339 18 339 18 335 15 c 0,77,78
 320 0 320 0 300 0 c 256,79,80
 279 0 279 0 265 15 c 0,81,82
 261 19 261 19 258 22 c 1,83,84
 255 18 255 18 252 15 c 0,85,86
 237 0 237 0 216 0 c 256,87,88
 195 0 195 0 181 15 c 0,89,90
 177 19 177 19 175 22 c 1,91,92
 172 18 172 18 169 15 c 0,93,94
 154 0 154 0 133 0 c 1,95,-1
 133 0 l 1,12,13
50 100 m 1,96,97
 29 100 29 100 15 115 c 0,98,99
 0 130 0 130 0 150 c 256,100,101
 0 172 0 172 15 186 c 0,102,103
 29.0625 200.0625 29.0625 200.0625 47.51953125 200.0625 c 0,104,105
 48.75 200.0625 48.75 200.0625 50 200 c 256,106,107
 71 200 71 200 85 186 c 256,108,109
 100 171 100 171 100 150 c 256,110,111
 100 129 100 129 85 115 c 0,112,113
 70 100 70 100 50 100 c 1,114,-1
 50 100 l 1,96,97
300 100 m 1,115,116
 279 100 279 100 265 115 c 0,117,118
 250 130 250 130 250 150 c 256,119,120
 250 172 250 172 265 186 c 256,121,122
 279.0625 200.0625 279.0625 200.0625 297.51953125 200.0625 c 0,123,124
 298.75 200.0625 298.75 200.0625 300 200 c 256,125,126
 321 200 321 200 335 186 c 0,127,128
 350 171 350 171 350 150 c 256,129,130
 350 129 350 129 335 115 c 0,131,132
 320 100 320 100 300 100 c 1,133,-1
 300 100 l 1,115,116
550 100 m 1,134,135
 528 100 528 100 514 115 c 0,136,137
 499.9375 129.0625 499.9375 129.0625 499.9375 147.51953125 c 0,138,139
 499.9375 171.9375 499.9375 171.9375 514 186 c 256,140,141
 528.0625 200.0625 528.0625 200.0625 547.3984375 200.0625 c 0,142,143
 548.6875 200.0625 548.6875 200.0625 550 200 c 256,144,145
 571 200 571 200 585 186 c 0,146,147
 600 171 600 171 600 150 c 256,148,149
 600 129 600 129 585 115 c 0,150,151
 570 100 570 100 550 100 c 1,152,-1
 550 100 l 1,134,135
50 200 m 1,153,154
 29 200 29 200 15 214 c 0,155,156
 0 229 0 229 0 250 c 256,157,158
 0 271 0 271 15 285 c 0,159,160
 30 300 30 300 50 300 c 256,161,162
 71 300 71 300 85 285 c 256,163,164
 100 270 100 270 100 250 c 256,165,166
 100 229 100 229 85 214 c 0,167,168
 70.9375 199.9375 70.9375 199.9375 52.48046875 199.9375 c 0,169,170
 51.25 199.9375 51.25 199.9375 50 200 c 1,171,-1
 50 200 l 1,153,154
300 200 m 1,172,173
 279 200 279 200 265 214 c 0,174,175
 250 229 250 229 250 250 c 256,176,177
 250 271 250 271 265 285 c 256,178,179
 280 300 280 300 300 300 c 256,180,181
 321 300 321 300 335 285 c 0,182,183
 350 270 350 270 350 250 c 256,184,185
 350 229 350 229 335 214 c 0,186,187
 320.9375 199.9375 320.9375 199.9375 302.48046875 199.9375 c 0,188,189
 301.25 199.9375 301.25 199.9375 300 200 c 1,190,-1
 300 200 l 1,172,173
550 200 m 1,191,192
 528 200 528 200 514 214 c 128,-1,193
 499.9375 228.0625 499.9375 228.0625 499.9375 247.3984375 c 0,194,195
 499.9375 270.9375 499.9375 270.9375 514 285 c 256,196,197
 529 300 529 300 550 300 c 256,198,199
 571 300 571 300 585 285 c 0,200,201
 600 270 600 270 600 250 c 256,202,203
 600 229 600 229 585 214 c 0,204,205
 570.9375 199.9375 570.9375 199.9375 552.48046875 199.9375 c 0,206,207
 551.25 199.9375 551.25 199.9375 550 200 c 1,208,-1
 550 200 l 1,191,192
50 300 m 1,209,210
 29 300 29 300 15 314 c 0,211,212
 0 329 0 329 0 350 c 128,-1,213
 0 371 0 371 15 386 c 0,214,215
 29.0625 400.0625 29.0625 400.0625 47.51953125 400.0625 c 0,216,217
 48.75 400.0625 48.75 400.0625 50 400 c 256,218,219
 71 400 71 400 85 386 c 0,220,221
 100 371 100 371 100 350 c 128,-1,222
 100 329 100 329 85 314 c 0,223,224
 70.9375 299.9375 70.9375 299.9375 52.48046875 299.9375 c 0,225,226
 51.25 299.9375 51.25 299.9375 50 300 c 1,227,-1
 50 300 l 1,209,210
300 300 m 1,228,229
 279 300 279 300 265 314 c 0,230,231
 250 329 250 329 250 350 c 128,-1,232
 250 371 250 371 265 386 c 0,233,234
 279.0625 400.0625 279.0625 400.0625 297.51953125 400.0625 c 0,235,236
 298.75 400.0625 298.75 400.0625 300 400 c 256,237,238
 321 400 321 400 335 386 c 0,239,240
 350 371 350 371 350 350 c 128,-1,241
 350 329 350 329 335 314 c 0,242,243
 320.9375 299.9375 320.9375 299.9375 302.48046875 299.9375 c 0,244,245
 301.25 299.9375 301.25 299.9375 300 300 c 1,246,-1
 300 300 l 1,228,229
550 300 m 1,247,248
 528 300 528 300 514 314 c 128,-1,249
 499.9375 328.0625 499.9375 328.0625 499.9375 347.3984375 c 0,250,251
 499.9375 370.933035714 499.9375 370.933035714 514 386 c 0,252,253
 528.0625 400.0625 528.0625 400.0625 547.3984375 400.0625 c 0,254,255
 548.6875 400.0625 548.6875 400.0625 550 400 c 256,256,257
 571 400 571 400 585 386 c 0,258,259
 600 371 600 371 600 350 c 128,-1,260
 600 329 600 329 585 314 c 0,261,262
 570.9375 299.9375 570.9375 299.9375 552.48046875 299.9375 c 0,263,264
 551.25 299.9375 551.25 299.9375 550 300 c 1,265,-1
 550 300 l 1,247,248
50 400 m 1,266,267
 29 400 29 400 15 414 c 0,268,269
 0 429 0 429 0 450 c 256,270,271
 0 471 0 471 15 485 c 0,272,273
 30 500 30 500 50 500 c 256,274,275
 71 500 71 500 85 485 c 0,276,277
 100 470 100 470 100 450 c 256,278,279
 100 429 100 429 85 414 c 256,280,281
 70.9375 399.9375 70.9375 399.9375 52.48046875 399.9375 c 0,282,283
 51.25 399.9375 51.25 399.9375 50 400 c 1,284,-1
 50 400 l 1,266,267
300 400 m 1,285,286
 279 400 279 400 265 414 c 256,287,288
 250 429 250 429 250 450 c 256,289,290
 250 471 250 471 265 485 c 0,291,292
 280 500 280 500 300 500 c 256,293,294
 321 500 321 500 335 485 c 0,295,296
 350 470 350 470 350 450 c 256,297,298
 350 429 350 429 335 414 c 0,299,300
 320.9375 399.9375 320.9375 399.9375 302.48046875 399.9375 c 0,301,302
 301.25 399.9375 301.25 399.9375 300 400 c 1,303,-1
 300 400 l 1,285,286
550 400 m 1,304,305
 528 400 528 400 514 414 c 256,306,307
 499.9375 428.0625 499.9375 428.0625 499.9375 447.3984375 c 0,308,309
 499.9375 470.9375 499.9375 470.9375 514 485 c 0,310,311
 529 500 529 500 550 500 c 256,312,313
 571 500 571 500 585 485 c 0,314,315
 600 470 600 470 600 450 c 256,316,317
 600 429 600 429 585 414 c 0,318,319
 570.9375 399.9375 570.9375 399.9375 552.48046875 399.9375 c 0,320,321
 551.25 399.9375 551.25 399.9375 550 400 c 1,322,-1
 550 400 l 1,304,305
50 500 m 1,323,324
 29 500 29 500 15 514 c 0,325,326
 0 529 0 529 0 550 c 256,327,328
 0 571 0 571 15 585 c 0,329,330
 30 600 30 600 50 600 c 256,331,332
 71 600 71 600 85 585 c 0,333,334
 100 570 100 570 100 550 c 256,335,336
 100 528 100 528 85 514 c 256,337,338
 70.9375 499.9375 70.9375 499.9375 52.48046875 499.9375 c 0,339,340
 51.25 499.9375 51.25 499.9375 50 500 c 1,341,-1
 50 500 l 1,323,324
300 500 m 1,342,343
 279 500 279 500 265 514 c 256,344,345
 250 529 250 529 250 550 c 256,346,347
 250 571 250 571 265 585 c 0,348,349
 280 600 280 600 300 600 c 256,350,351
 321 600 321 600 335 585 c 0,352,353
 350 570 350 570 350 550 c 256,354,355
 350 528 350 528 335 514 c 0,356,357
 320.9375 499.9375 320.9375 499.9375 302.48046875 499.9375 c 0,358,359
 301.25 499.9375 301.25 499.9375 300 500 c 1,360,-1
 300 500 l 1,342,343
550 500 m 1,361,362
 528 500 528 500 514 514 c 256,363,364
 499.9375 528.0625 499.9375 528.0625 499.9375 547.3984375 c 0,365,366
 499.9375 570.9375 499.9375 570.9375 514 585 c 0,367,368
 529 600 529 600 550 600 c 256,369,370
 571 600 571 600 585 585 c 0,371,372
 600 570 600 570 600 550 c 256,373,374
 600 528 600 528 585 514 c 0,375,376
 570.9375 499.9375 570.9375 499.9375 552.48046875 499.9375 c 0,377,378
 551.25 499.9375 551.25 499.9375 550 500 c 1,379,-1
 550 500 l 1,361,362
425 622 m 1,380,-1
 425 622 l 1,381,-1
 425 622 l 1,382,-1
 425 622 l 1,383,-1
 425 622 l 1,380,-1
384 600 m 1,384,385
 363 600 363 600 348 615 c 128,-1,386
 333 630 333 630 333 650 c 256,387,388
 333 671 333 671 348 685 c 0,389,390
 363 700 363 700 384 700 c 128,-1,391
 405 700 405 700 419 685 c 0,392,393
 423 681 423 681 425 678 c 1,394,-1
 425 678 l 1,395,396
 428 682 428 682 431 685 c 0,397,398
 446 700 446 700 467 700 c 256,399,400
 488 700 488 700 502 685 c 256,401,402
 517 670 517 670 517 650 c 256,403,404
 517 629 517 629 502 615 c 256,405,406
 487 600 487 600 467 600 c 256,407,408
 446 600 446 600 431 615 c 0,409,410
 427 619 427 619 425 622 c 1,411,412
 422 618 422 618 419 615 c 0,413,414
 404 600 404 600 384 600 c 1,415,-1
 384 600 l 1,384,385
EndSplineSet
Validated: 524293
EndChar

StartChar: colon
Encoding: 58 58 11
Width: 666
VWidth: 699
Flags: W
LayerCount: 2
Fore
SplineSet
342 222 m 1,0,1
 342 222 l 1,2,-1
 342 222 l 1,3,4
 342 222 l 1,5,-1
 342 222 l 1,0,1
92 222 m 1,6,7
 92 222 l 1,8,-1
 92 222 l 1,9,10
 92 222 l 1,11,-1
 92 222 l 1,6,7
50 200 m 1,12,13
 29 200 29 200 15 214 c 0,14,15
 0 229 0 229 0 250 c 256,16,17
 0 271 0 271 15 285 c 0,18,19
 30 300 30 300 50 300 c 256,20,21
 71 300 71 300 85 285 c 0,22,23
 89 281 89 281 92 278 c 1,24,-1
 92 278 l 1,25,26
 95 282 95 282 98 285 c 0,27,28
 113 300 113 300 133 300 c 256,29,30
 154 300 154 300 169 285 c 0,31,32
 183.0625 270.9375 183.0625 270.9375 183.0625 252.48046875 c 0,33,34
 183.0625 229.066964286 183.0625 229.066964286 169 214 c 0,35,36
 154.9375 199.9375 154.9375 199.9375 135.6015625 199.9375 c 0,37,38
 134.3125 199.9375 134.3125 199.9375 133 200 c 256,39,40
 112 200 112 200 98 214 c 0,41,42
 94 218 94 218 92 222 c 1,43,44
 89 218 89 218 85 214 c 0,45,46
 70.9375 199.9375 70.9375 199.9375 52.48046875 199.9375 c 0,47,48
 51.25 199.9375 51.25 199.9375 50 200 c 1,49,-1
 50 200 l 1,12,13
300 200 m 1,50,51
 279 200 279 200 265 214 c 0,52,53
 250 229 250 229 250 250 c 256,54,55
 250 271 250 271 265 285 c 256,56,57
 280 300 280 300 300 300 c 256,58,59
 321 300 321 300 335 285 c 0,60,61
 339 281 339 281 342 278 c 1,62,-1
 342 278 l 1,63,64
 345 282 345 282 348 285 c 0,65,66
 363 300 363 300 384 300 c 128,-1,67
 405 300 405 300 419 285 c 0,68,69
 433.0625 270.9375 433.0625 270.9375 433.0625 252.48046875 c 0,70,71
 433.0625 229.066964286 433.0625 229.066964286 419 214 c 0,72,73
 404.9375 199.9375 404.9375 199.9375 386.48046875 199.9375 c 0,74,75
 385.25 199.9375 385.25 199.9375 384 200 c 0,76,77
 363 200 363 200 348 214 c 0,78,79
 344 218 344 218 342 222 c 1,80,81
 339 218 339 218 335 214 c 0,82,83
 320.9375 199.9375 320.9375 199.9375 302.48046875 199.9375 c 0,84,85
 301.25 199.9375 301.25 199.9375 300 200 c 1,86,-1
 300 200 l 1,50,51
342 322 m 1,87,-1
 342 322 l 1,88,-1
 342 322 l 1,89,-1
 342 322 l 1,90,-1
 342 322 l 1,87,-1
92 322 m 1,91,-1
 92 322 l 1,92,-1
 92 322 l 1,93,-1
 92 322 l 1,94,-1
 92 322 l 1,91,-1
50 300 m 1,95,96
 29 300 29 300 15 314 c 0,97,98
 0 329 0 329 0 350 c 128,-1,99
 0 371 0 371 15 386 c 0,100,101
 29.0625 400.0625 29.0625 400.0625 47.51953125 400.0625 c 0,102,103
 48.75 400.0625 48.75 400.0625 50 400 c 256,104,105
 71 400 71 400 85 386 c 0,106,107
 89 382 89 382 92 378 c 1,108,-1
 92 378 l 1,109,110
 95 382 95 382 98 386 c 0,111,112
 112.0625 400.0625 112.0625 400.0625 130.51953125 400.0625 c 0,113,114
 131.75 400.0625 131.75 400.0625 133 400 c 256,115,116
 154 400 154 400 169 386 c 0,117,118
 183.0625 371.9375 183.0625 371.9375 183.0625 352.6015625 c 0,119,120
 183.0625 329.066964286 183.0625 329.066964286 169 314 c 0,121,122
 154.9375 299.9375 154.9375 299.9375 135.6015625 299.9375 c 0,123,124
 134.3125 299.9375 134.3125 299.9375 133 300 c 256,125,126
 112 300 112 300 98 314 c 0,127,128
 94 318 94 318 92 322 c 1,129,130
 89 318 89 318 85 314 c 0,131,132
 70.9375 299.9375 70.9375 299.9375 52.48046875 299.9375 c 0,133,134
 51.25 299.9375 51.25 299.9375 50 300 c 1,135,-1
 50 300 l 1,95,96
300 300 m 1,136,137
 279 300 279 300 265 314 c 0,138,139
 250 329 250 329 250 350 c 128,-1,140
 250 371 250 371 265 386 c 0,141,142
 279.0625 400.0625 279.0625 400.0625 297.51953125 400.0625 c 0,143,144
 298.75 400.0625 298.75 400.0625 300 400 c 256,145,146
 321 400 321 400 335 386 c 0,147,148
 339 382 339 382 342 378 c 1,149,-1
 342 378 l 1,150,151
 345 382 345 382 348 386 c 0,152,153
 362.0625 400.0625 362.0625 400.0625 381.3984375 400.0625 c 0,154,155
 382.6875 400.0625 382.6875 400.0625 384 400 c 0,156,157
 405 400 405 400 419 386 c 128,-1,158
 433.0625 371.9375 433.0625 371.9375 433.0625 352.6015625 c 0,159,160
 433.0625 329.066964286 433.0625 329.066964286 419 314 c 0,161,162
 404.9375 299.9375 404.9375 299.9375 386.48046875 299.9375 c 0,163,164
 385.25 299.9375 385.25 299.9375 384 300 c 0,165,166
 363 300 363 300 348 314 c 0,167,168
 344 318 344 318 342 322 c 1,169,170
 339 318 339 318 335 314 c 0,171,172
 320.9375 299.9375 320.9375 299.9375 302.48046875 299.9375 c 0,173,174
 301.25 299.9375 301.25 299.9375 300 300 c 1,175,-1
 300 300 l 1,136,137
EndSplineSet
Validated: 524293
EndChar

StartChar: semicolon
Encoding: 59 59 12
Width: 666
VWidth: 699
Flags: W
LayerCount: 2
Fore
SplineSet
425 222 m 1,0,1
 425 222 l 1,2,-1
 425 222 l 1,3,4
 425 222 l 1,5,-1
 425 222 l 1,0,1
175 222 m 1,6,7
 175 222 l 1,8,-1
 175 222 l 1,9,10
 175 222 l 1,11,-1
 175 222 l 1,6,7
133 200 m 1,12,13
 112 200 112 200 98 214 c 0,14,15
 83 229 83 229 83 250 c 256,16,17
 83 271 83 271 98 285 c 256,18,19
 113 300 113 300 133 300 c 256,20,21
 154 300 154 300 169 285 c 0,22,23
 173 281 173 281 175 278 c 1,24,-1
 175 278 l 1,25,26
 178 282 178 282 181 285 c 0,27,28
 196 300 196 300 216 300 c 256,29,30
 237 300 237 300 252 285 c 256,31,32
 267 270 267 270 267 250 c 256,33,34
 267 229 267 229 252 214 c 0,35,36
 237.9375 199.9375 237.9375 199.9375 218.6015625 199.9375 c 0,37,38
 217.3125 199.9375 217.3125 199.9375 216 200 c 256,39,40
 195 200 195 200 181 214 c 0,41,42
 177 218 177 218 175 222 c 1,43,-1
 175 222 l 1,44,45
 172 218 172 218 169 214 c 0,46,47
 154.9375 199.9375 154.9375 199.9375 135.6015625 199.9375 c 0,48,49
 134.3125 199.9375 134.3125 199.9375 133 200 c 1,50,-1
 133 200 l 1,12,13
384 200 m 1,51,52
 363 200 363 200 348 214 c 0,53,54
 333 229 333 229 333 250 c 256,55,56
 333 271 333 271 348 285 c 0,57,58
 363 300 363 300 384 300 c 128,-1,59
 405 300 405 300 419 285 c 0,60,61
 423 281 423 281 425 278 c 1,62,-1
 425 278 l 1,63,64
 428 282 428 282 431 285 c 0,65,66
 446 300 446 300 467 300 c 256,67,68
 488 300 488 300 502 285 c 256,69,70
 517 270 517 270 517 250 c 256,71,72
 517 229 517 229 502 214 c 0,73,74
 487.9375 199.9375 487.9375 199.9375 469.48046875 199.9375 c 0,75,76
 468.25 199.9375 468.25 199.9375 467 200 c 256,77,78
 446 200 446 200 431 214 c 0,79,80
 427 218 427 218 425 222 c 1,81,-1
 425 222 l 1,82,83
 422 218 422 218 419 214 c 0,84,85
 404.9375 199.9375 404.9375 199.9375 386.48046875 199.9375 c 0,86,87
 385.25 199.9375 385.25 199.9375 384 200 c 1,88,-1
 384 200 l 1,51,52
425 322 m 1,89,-1
 425 322 l 1,90,-1
 425 322 l 1,91,-1
 425 322 l 1,92,-1
 425 322 l 1,89,-1
175 322 m 1,93,-1
 175 322 l 1,94,-1
 175 322 l 1,95,-1
 175 322 l 1,96,-1
 175 322 l 1,93,-1
133 300 m 1,97,98
 112 300 112 300 98 314 c 0,99,100
 83 329 83 329 83 350 c 128,-1,101
 83 371 83 371 98 386 c 0,102,103
 112.0625 400.0625 112.0625 400.0625 130.51953125 400.0625 c 0,104,105
 131.75 400.0625 131.75 400.0625 133 400 c 256,106,107
 154 400 154 400 169 386 c 0,108,109
 173 382 173 382 175 378 c 1,110,-1
 175 378 l 1,111,112
 178 382 178 382 181 386 c 0,113,114
 195.0625 400.0625 195.0625 400.0625 213.51953125 400.0625 c 0,115,116
 214.75 400.0625 214.75 400.0625 216 400 c 256,117,118
 237 400 237 400 252 386 c 0,119,120
 267 371 267 371 267 350 c 128,-1,121
 267 329 267 329 252 314 c 0,122,123
 237.9375 299.9375 237.9375 299.9375 218.6015625 299.9375 c 0,124,125
 217.3125 299.9375 217.3125 299.9375 216 300 c 256,126,127
 195 300 195 300 181 314 c 0,128,129
 177 318 177 318 175 322 c 1,130,-1
 175 322 l 1,131,132
 172 318 172 318 169 314 c 0,133,134
 154.9375 299.9375 154.9375 299.9375 135.6015625 299.9375 c 0,135,136
 134.3125 299.9375 134.3125 299.9375 133 300 c 1,137,-1
 133 300 l 1,97,98
384 300 m 1,138,139
 363 300 363 300 348 314 c 0,140,141
 333 329 333 329 333 350 c 128,-1,142
 333 371 333 371 348 386 c 0,143,144
 362.0625 400.0625 362.0625 400.0625 381.3984375 400.0625 c 0,145,146
 382.6875 400.0625 382.6875 400.0625 384 400 c 0,147,148
 405 400 405 400 419 386 c 0,149,150
 423 382 423 382 425 378 c 1,151,-1
 425 378 l 1,152,153
 428 382 428 382 431 386 c 0,154,155
 445.0625 400.0625 445.0625 400.0625 464.3984375 400.0625 c 0,156,157
 465.6875 400.0625 465.6875 400.0625 467 400 c 256,158,159
 488 400 488 400 502 386 c 0,160,161
 517 371 517 371 517 350 c 128,-1,162
 517 329 517 329 502 314 c 0,163,164
 487.9375 299.9375 487.9375 299.9375 469.48046875 299.9375 c 0,165,166
 468.25 299.9375 468.25 299.9375 467 300 c 256,167,168
 446 300 446 300 431 314 c 0,169,170
 427 318 427 318 425 322 c 1,171,-1
 425 322 l 1,172,173
 422 318 422 318 419 314 c 0,174,175
 404.9375 299.9375 404.9375 299.9375 386.48046875 299.9375 c 0,176,177
 385.25 299.9375 385.25 299.9375 384 300 c 1,178,-1
 384 300 l 1,138,139
50 400 m 1,179,180
 29 400 29 400 15 414 c 0,181,182
 0 429 0 429 0 450 c 256,183,184
 0 471 0 471 15 485 c 0,185,186
 30 500 30 500 50 500 c 256,187,188
 71 500 71 500 85 485 c 0,189,190
 100 470 100 470 100 450 c 256,191,192
 100 429 100 429 85 414 c 256,193,194
 70.9375 399.9375 70.9375 399.9375 52.48046875 399.9375 c 0,195,196
 51.25 399.9375 51.25 399.9375 50 400 c 1,197,-1
 50 400 l 1,179,180
EndSplineSet
Validated: 524293
EndChar

StartChar: less
Encoding: 60 60 13
Width: 666
VWidth: 699
Flags: W
LayerCount: 2
Fore
SplineSet
50 300 m 1,0,1
 29 300 29 300 15 314 c 0,2,3
 0 329 0 329 0 350 c 128,-1,4
 0 371 0 371 15 386 c 0,5,6
 29.0625 400.0625 29.0625 400.0625 47.51953125 400.0625 c 0,7,8
 48.75 400.0625 48.75 400.0625 50 400 c 256,9,10
 71 400 71 400 85 386 c 0,11,12
 100 371 100 371 100 350 c 128,-1,13
 100 329 100 329 85 314 c 0,14,15
 70.9375 299.9375 70.9375 299.9375 52.48046875 299.9375 c 0,16,17
 51.25 299.9375 51.25 299.9375 50 300 c 1,18,-1
 50 300 l 1,0,1
550 300 m 1,19,20
 528 300 528 300 514 314 c 128,-1,21
 499.9375 328.0625 499.9375 328.0625 499.9375 347.3984375 c 0,22,23
 499.9375 370.933035714 499.9375 370.933035714 514 386 c 0,24,25
 528.0625 400.0625 528.0625 400.0625 547.3984375 400.0625 c 0,26,27
 548.6875 400.0625 548.6875 400.0625 550 400 c 256,28,29
 571 400 571 400 585 386 c 0,30,31
 600 371 600 371 600 350 c 128,-1,32
 600 329 600 329 585 314 c 0,33,34
 570.9375 299.9375 570.9375 299.9375 552.48046875 299.9375 c 0,35,36
 551.25 299.9375 551.25 299.9375 550 300 c 1,37,-1
 550 300 l 1,19,20
133 400 m 1,38,39
 112 400 112 400 98 414 c 256,40,41
 83 429 83 429 83 450 c 256,42,43
 83 471 83 471 98 485 c 0,44,45
 113 500 113 500 133 500 c 256,46,47
 154 500 154 500 169 485 c 0,48,49
 183.0625 470.9375 183.0625 470.9375 183.0625 452.48046875 c 0,50,51
 183.0625 429.066964286 183.0625 429.066964286 169 414 c 0,52,53
 154.9375 399.9375 154.9375 399.9375 135.6015625 399.9375 c 0,54,55
 134.3125 399.9375 134.3125 399.9375 133 400 c 1,56,-1
 133 400 l 1,38,39
467 400 m 1,57,58
 446 400 446 400 431 414 c 0,59,60
 416 429 416 429 416 450 c 256,61,62
 416 471 416 471 431 485 c 0,63,64
 446 500 446 500 467 500 c 256,65,66
 488 500 488 500 502 485 c 0,67,68
 517 470 517 470 517 450 c 256,69,70
 517 429 517 429 502 414 c 256,71,72
 487.9375 399.9375 487.9375 399.9375 469.48046875 399.9375 c 0,73,74
 468.25 399.9375 468.25 399.9375 467 400 c 1,75,-1
 467 400 l 1,57,58
216 500 m 1,76,77
 195 500 195 500 181 514 c 128,-1,78
 166.9375 528.0625 166.9375 528.0625 166.9375 547.3984375 c 0,79,80
 166.9375 570.9375 166.9375 570.9375 181 585 c 0,81,82
 196 600 196 600 216 600 c 256,83,84
 237 600 237 600 252 585 c 128,-1,85
 267 570 267 570 267 550 c 256,86,87
 267 528 267 528 252 514 c 256,88,89
 237.9375 499.9375 237.9375 499.9375 218.6015625 499.9375 c 0,90,91
 217.3125 499.9375 217.3125 499.9375 216 500 c 1,92,-1
 216 500 l 1,76,77
384 500 m 1,93,94
 363 500 363 500 348 514 c 0,95,96
 333 529 333 529 333 550 c 256,97,98
 333 571 333 571 348 585 c 0,99,100
 363 600 363 600 384 600 c 128,-1,101
 405 600 405 600 419 585 c 0,102,103
 433.0625 570.9375 433.0625 570.9375 433.0625 552.48046875 c 0,104,105
 433.0625 528.0625 433.0625 528.0625 419 514 c 128,-1,106
 404.9375 499.9375 404.9375 499.9375 386.48046875 499.9375 c 0,107,108
 385.25 499.9375 385.25 499.9375 384 500 c 1,109,-1
 384 500 l 1,93,94
300 600 m 1,110,111
 279 600 279 600 265 615 c 256,112,113
 250 630 250 630 250 650 c 256,114,115
 250 671 250 671 265 685 c 256,116,117
 280 700 280 700 300 700 c 256,118,119
 321 700 321 700 335 685 c 0,120,121
 350 670 350 670 350 650 c 256,122,123
 350 629 350 629 335 615 c 0,124,125
 320 600 320 600 300 600 c 1,126,-1
 300 600 l 1,110,111
EndSplineSet
Validated: 524293
EndChar

StartChar: equal
Encoding: 61 61 14
Width: 666
VWidth: 699
Flags: W
LayerCount: 2
Fore
SplineSet
216 100 m 1,0,1
 195 100 195 100 181 115 c 0,2,3
 166.9375 129.0625 166.9375 129.0625 166.9375 147.51953125 c 0,4,5
 166.9375 171.9375 166.9375 171.9375 181 186 c 128,-1,6
 195.0625 200.0625 195.0625 200.0625 213.51953125 200.0625 c 0,7,8
 214.75 200.0625 214.75 200.0625 216 200 c 256,9,10
 237 200 237 200 252 186 c 256,11,12
 267 171 267 171 267 150 c 256,13,14
 267 129 267 129 252 115 c 0,15,16
 237 100 237 100 216 100 c 1,17,-1
 216 100 l 1,0,1
384 100 m 1,18,19
 363 100 363 100 348 115 c 128,-1,20
 333 130 333 130 333 150 c 256,21,22
 333 172 333 172 348 186 c 0,23,24
 362.0625 200.0625 362.0625 200.0625 381.3984375 200.0625 c 0,25,26
 382.6875 200.0625 382.6875 200.0625 384 200 c 0,27,28
 405 200 405 200 419 186 c 128,-1,29
 433.0625 171.9375 433.0625 171.9375 433.0625 152.6015625 c 0,30,31
 433.0625 129.0625 433.0625 129.0625 419 115 c 0,32,33
 404 100 404 100 384 100 c 1,34,-1
 384 100 l 1,18,19
216 200 m 1,35,36
 195 200 195 200 181 214 c 128,-1,37
 166.9375 228.0625 166.9375 228.0625 166.9375 247.3984375 c 0,38,39
 166.9375 270.9375 166.9375 270.9375 181 285 c 0,40,41
 196 300 196 300 216 300 c 256,42,43
 237 300 237 300 252 285 c 256,44,45
 267 270 267 270 267 250 c 256,46,47
 267 229 267 229 252 214 c 0,48,49
 237.9375 199.9375 237.9375 199.9375 218.6015625 199.9375 c 0,50,51
 217.3125 199.9375 217.3125 199.9375 216 200 c 1,52,-1
 216 200 l 1,35,36
384 200 m 1,53,54
 363 200 363 200 348 214 c 0,55,56
 333 229 333 229 333 250 c 256,57,58
 333 271 333 271 348 285 c 0,59,60
 363 300 363 300 384 300 c 128,-1,61
 405 300 405 300 419 285 c 0,62,63
 433.0625 270.9375 433.0625 270.9375 433.0625 252.48046875 c 0,64,65
 433.0625 229.066964286 433.0625 229.066964286 419 214 c 0,66,67
 404.9375 199.9375 404.9375 199.9375 386.48046875 199.9375 c 0,68,69
 385.25 199.9375 385.25 199.9375 384 200 c 1,70,-1
 384 200 l 1,53,54
216 300 m 1,71,72
 195 300 195 300 181 314 c 128,-1,73
 166.9375 328.0625 166.9375 328.0625 166.9375 347.3984375 c 0,74,75
 166.9375 370.933035714 166.9375 370.933035714 181 386 c 0,76,77
 195.0625 400.0625 195.0625 400.0625 213.51953125 400.0625 c 0,78,79
 214.75 400.0625 214.75 400.0625 216 400 c 256,80,81
 237 400 237 400 252 386 c 0,82,83
 267 371 267 371 267 350 c 128,-1,84
 267 329 267 329 252 314 c 0,85,86
 237.9375 299.9375 237.9375 299.9375 218.6015625 299.9375 c 0,87,88
 217.3125 299.9375 217.3125 299.9375 216 300 c 1,89,-1
 216 300 l 1,71,72
384 300 m 1,90,91
 363 300 363 300 348 314 c 0,92,93
 333 329 333 329 333 350 c 128,-1,94
 333 371 333 371 348 386 c 0,95,96
 362.0625 400.0625 362.0625 400.0625 381.3984375 400.0625 c 0,97,98
 382.6875 400.0625 382.6875 400.0625 384 400 c 0,99,100
 405 400 405 400 419 386 c 128,-1,101
 433.0625 371.9375 433.0625 371.9375 433.0625 352.6015625 c 0,102,103
 433.0625 329.066964286 433.0625 329.066964286 419 314 c 0,104,105
 404.9375 299.9375 404.9375 299.9375 386.48046875 299.9375 c 0,106,107
 385.25 299.9375 385.25 299.9375 384 300 c 1,108,-1
 384 300 l 1,90,91
216 400 m 1,109,110
 195 400 195 400 181 414 c 128,-1,111
 166.9375 428.0625 166.9375 428.0625 166.9375 447.3984375 c 0,112,113
 166.9375 470.9375 166.9375 470.9375 181 485 c 0,114,115
 196 500 196 500 216 500 c 256,116,117
 237 500 237 500 252 485 c 128,-1,118
 267 470 267 470 267 450 c 256,119,120
 267 429 267 429 252 414 c 256,121,122
 237.9375 399.9375 237.9375 399.9375 218.6015625 399.9375 c 0,123,124
 217.3125 399.9375 217.3125 399.9375 216 400 c 1,125,-1
 216 400 l 1,109,110
384 400 m 1,126,127
 363 400 363 400 348 414 c 0,128,129
 333 429 333 429 333 450 c 256,130,131
 333 471 333 471 348 485 c 0,132,133
 363 500 363 500 384 500 c 128,-1,134
 405 500 405 500 419 485 c 0,135,136
 433.0625 470.9375 433.0625 470.9375 433.0625 452.48046875 c 0,137,138
 433.0625 429.066964286 433.0625 429.066964286 419 414 c 0,139,140
 404.9375 399.9375 404.9375 399.9375 386.48046875 399.9375 c 0,141,142
 385.25 399.9375 385.25 399.9375 384 400 c 1,143,-1
 384 400 l 1,126,127
216 500 m 1,144,145
 195 500 195 500 181 514 c 128,-1,146
 166.9375 528.0625 166.9375 528.0625 166.9375 547.3984375 c 0,147,148
 166.9375 570.9375 166.9375 570.9375 181 585 c 0,149,150
 196 600 196 600 216 600 c 256,151,152
 237 600 237 600 252 585 c 128,-1,153
 267 570 267 570 267 550 c 256,154,155
 267 528 267 528 252 514 c 256,156,157
 237.9375 499.9375 237.9375 499.9375 218.6015625 499.9375 c 0,158,159
 217.3125 499.9375 217.3125 499.9375 216 500 c 1,160,-1
 216 500 l 1,144,145
384 500 m 1,161,162
 363 500 363 500 348 514 c 0,163,164
 333 529 333 529 333 550 c 256,165,166
 333 571 333 571 348 585 c 0,167,168
 363 600 363 600 384 600 c 128,-1,169
 405 600 405 600 419 585 c 0,170,171
 433.0625 570.9375 433.0625 570.9375 433.0625 552.48046875 c 0,172,173
 433.0625 528.0625 433.0625 528.0625 419 514 c 128,-1,174
 404.9375 499.9375 404.9375 499.9375 386.48046875 499.9375 c 0,175,176
 385.25 499.9375 385.25 499.9375 384 500 c 1,177,-1
 384 500 l 1,161,162
EndSplineSet
Validated: 524293
EndChar

StartChar: greater
Encoding: 62 62 15
Width: 666
VWidth: 699
Flags: W
LayerCount: 2
Fore
SplineSet
300 0 m 1,0,1
 279 0 279 0 265 15 c 0,2,3
 250 30 250 30 250 50 c 256,4,5
 250 71 250 71 265 85 c 256,6,7
 280 100 280 100 300 100 c 256,8,9
 321 100 321 100 335 85 c 0,10,11
 350 70 350 70 350 50 c 256,12,13
 350 29 350 29 335 15 c 0,14,15
 320 0 320 0 300 0 c 1,16,-1
 300 0 l 1,0,1
216 100 m 1,17,18
 195 100 195 100 181 115 c 0,19,20
 166.9375 129.0625 166.9375 129.0625 166.9375 147.51953125 c 0,21,22
 166.9375 171.9375 166.9375 171.9375 181 186 c 128,-1,23
 195.0625 200.0625 195.0625 200.0625 213.51953125 200.0625 c 0,24,25
 214.75 200.0625 214.75 200.0625 216 200 c 256,26,27
 237 200 237 200 252 186 c 256,28,29
 267 171 267 171 267 150 c 256,30,31
 267 129 267 129 252 115 c 0,32,33
 237 100 237 100 216 100 c 1,34,-1
 216 100 l 1,17,18
384 100 m 1,35,36
 363 100 363 100 348 115 c 128,-1,37
 333 130 333 130 333 150 c 256,38,39
 333 172 333 172 348 186 c 0,40,41
 362.0625 200.0625 362.0625 200.0625 381.3984375 200.0625 c 0,42,43
 382.6875 200.0625 382.6875 200.0625 384 200 c 0,44,45
 405 200 405 200 419 186 c 128,-1,46
 433.0625 171.9375 433.0625 171.9375 433.0625 152.6015625 c 0,47,48
 433.0625 129.0625 433.0625 129.0625 419 115 c 0,49,50
 404 100 404 100 384 100 c 1,51,-1
 384 100 l 1,35,36
133 200 m 1,52,53
 112 200 112 200 98 214 c 0,54,55
 83 229 83 229 83 250 c 256,56,57
 83 271 83 271 98 285 c 256,58,59
 113 300 113 300 133 300 c 256,60,61
 154 300 154 300 169 285 c 0,62,63
 183.0625 270.9375 183.0625 270.9375 183.0625 252.48046875 c 0,64,65
 183.0625 229.066964286 183.0625 229.066964286 169 214 c 0,66,67
 154.9375 199.9375 154.9375 199.9375 135.6015625 199.9375 c 0,68,69
 134.3125 199.9375 134.3125 199.9375 133 200 c 1,70,-1
 133 200 l 1,52,53
467 200 m 1,71,72
 446 200 446 200 431 214 c 0,73,74
 416 229 416 229 416 250 c 256,75,76
 416 271 416 271 431 285 c 0,77,78
 446 300 446 300 467 300 c 256,79,80
 488 300 488 300 502 285 c 256,81,82
 517 270 517 270 517 250 c 256,83,84
 517 229 517 229 502 214 c 0,85,86
 487.9375 199.9375 487.9375 199.9375 469.48046875 199.9375 c 0,87,88
 468.25 199.9375 468.25 199.9375 467 200 c 1,89,-1
 467 200 l 1,71,72
50 300 m 1,90,91
 29 300 29 300 15 314 c 0,92,93
 0 329 0 329 0 350 c 128,-1,94
 0 371 0 371 15 386 c 0,95,96
 29.0625 400.0625 29.0625 400.0625 47.51953125 400.0625 c 0,97,98
 48.75 400.0625 48.75 400.0625 50 400 c 256,99,100
 71 400 71 400 85 386 c 0,101,102
 100 371 100 371 100 350 c 128,-1,103
 100 329 100 329 85 314 c 0,104,105
 70.9375 299.9375 70.9375 299.9375 52.48046875 299.9375 c 0,106,107
 51.25 299.9375 51.25 299.9375 50 300 c 1,108,-1
 50 300 l 1,90,91
550 300 m 1,109,110
 528 300 528 300 514 314 c 128,-1,111
 499.9375 328.0625 499.9375 328.0625 499.9375 347.3984375 c 0,112,113
 499.9375 370.933035714 499.9375 370.933035714 514 386 c 0,114,115
 528.0625 400.0625 528.0625 400.0625 547.3984375 400.0625 c 0,116,117
 548.6875 400.0625 548.6875 400.0625 550 400 c 256,118,119
 571 400 571 400 585 386 c 0,120,121
 600 371 600 371 600 350 c 128,-1,122
 600 329 600 329 585 314 c 0,123,124
 570.9375 299.9375 570.9375 299.9375 552.48046875 299.9375 c 0,125,126
 551.25 299.9375 551.25 299.9375 550 300 c 1,127,-1
 550 300 l 1,109,110
EndSplineSet
Validated: 524293
EndChar

StartChar: question
Encoding: 63 63 16
Width: 666
VWidth: 699
Flags: W
LayerCount: 2
Fore
SplineSet
425 122 m 1,0,1
 425 122 l 1,2,-1
 425 122 l 1,3,4
 425 122 l 1,5,-1
 425 122 l 1,0,1
384 100 m 1,6,7
 363 100 363 100 348 115 c 128,-1,8
 333 130 333 130 333 150 c 256,9,10
 333 172 333 172 348 186 c 0,11,12
 362.0625 200.0625 362.0625 200.0625 381.3984375 200.0625 c 0,13,14
 382.6875 200.0625 382.6875 200.0625 384 200 c 0,15,16
 405 200 405 200 419 186 c 0,17,18
 423 182 423 182 425 178 c 1,19,-1
 425 178 l 1,20,21
 428 182 428 182 431 186 c 0,22,23
 445.0625 200.0625 445.0625 200.0625 464.3984375 200.0625 c 0,24,25
 465.6875 200.0625 465.6875 200.0625 467 200 c 256,26,27
 488 200 488 200 502 186 c 256,28,29
 517 171 517 171 517 150 c 256,30,31
 517 129 517 129 502 115 c 0,32,33
 487 100 487 100 467 100 c 256,34,35
 446 100 446 100 431 115 c 0,36,37
 427 119 427 119 425 122 c 1,38,39
 422 118 422 118 419 115 c 0,40,41
 404 100 404 100 384 100 c 1,42,-1
 384 100 l 1,6,7
300 200 m 1,43,44
 279 200 279 200 265 214 c 0,45,46
 250 229 250 229 250 250 c 256,47,48
 250 271 250 271 265 285 c 256,49,50
 280 300 280 300 300 300 c 256,51,52
 321 300 321 300 335 285 c 0,53,54
 350 270 350 270 350 250 c 256,55,56
 350 229 350 229 335 214 c 0,57,58
 320.9375 199.9375 320.9375 199.9375 302.48046875 199.9375 c 0,59,60
 301.25 199.9375 301.25 199.9375 300 200 c 1,61,-1
 300 200 l 1,43,44
550 200 m 1,62,63
 528 200 528 200 514 214 c 128,-1,64
 499.9375 228.0625 499.9375 228.0625 499.9375 247.3984375 c 0,65,66
 499.9375 270.9375 499.9375 270.9375 514 285 c 256,67,68
 529 300 529 300 550 300 c 256,69,70
 571 300 571 300 585 285 c 0,71,72
 600 270 600 270 600 250 c 256,73,74
 600 229 600 229 585 214 c 0,75,76
 570.9375 199.9375 570.9375 199.9375 552.48046875 199.9375 c 0,77,78
 551.25 199.9375 551.25 199.9375 550 200 c 1,79,-1
 550 200 l 1,62,63
50 300 m 1,80,81
 29 300 29 300 15 314 c 0,82,83
 0 329 0 329 0 350 c 128,-1,84
 0 371 0 371 15 386 c 0,85,86
 29.0625 400.0625 29.0625 400.0625 47.51953125 400.0625 c 0,87,88
 48.75 400.0625 48.75 400.0625 50 400 c 256,89,90
 71 400 71 400 85 386 c 0,91,92
 100 371 100 371 100 350 c 128,-1,93
 100 329 100 329 85 314 c 0,94,95
 70.9375 299.9375 70.9375 299.9375 52.48046875 299.9375 c 0,96,97
 51.25 299.9375 51.25 299.9375 50 300 c 1,98,-1
 50 300 l 1,80,81
216 300 m 1,99,100
 195 300 195 300 181 314 c 128,-1,101
 166.9375 328.0625 166.9375 328.0625 166.9375 347.3984375 c 0,102,103
 166.9375 370.933035714 166.9375 370.933035714 181 386 c 0,104,105
 195.0625 400.0625 195.0625 400.0625 213.51953125 400.0625 c 0,106,107
 214.75 400.0625 214.75 400.0625 216 400 c 256,108,109
 237 400 237 400 252 386 c 0,110,111
 267 371 267 371 267 350 c 128,-1,112
 267 329 267 329 252 314 c 0,113,114
 237.9375 299.9375 237.9375 299.9375 218.6015625 299.9375 c 0,115,116
 217.3125 299.9375 217.3125 299.9375 216 300 c 1,117,-1
 216 300 l 1,99,100
550 300 m 1,118,119
 528 300 528 300 514 314 c 128,-1,120
 499.9375 328.0625 499.9375 328.0625 499.9375 347.3984375 c 0,121,122
 499.9375 370.933035714 499.9375 370.933035714 514 386 c 0,123,124
 528.0625 400.0625 528.0625 400.0625 547.3984375 400.0625 c 0,125,126
 548.6875 400.0625 548.6875 400.0625 550 400 c 256,127,128
 571 400 571 400 585 386 c 0,129,130
 600 371 600 371 600 350 c 128,-1,131
 600 329 600 329 585 314 c 0,132,133
 570.9375 299.9375 570.9375 299.9375 552.48046875 299.9375 c 0,134,135
 551.25 299.9375 551.25 299.9375 550 300 c 1,136,-1
 550 300 l 1,118,119
550 400 m 1,137,138
 528 400 528 400 514 414 c 256,139,140
 499.9375 428.0625 499.9375 428.0625 499.9375 447.3984375 c 0,141,142
 499.9375 470.9375 499.9375 470.9375 514 485 c 0,143,144
 529 500 529 500 550 500 c 256,145,146
 571 500 571 500 585 485 c 0,147,148
 600 470 600 470 600 450 c 256,149,150
 600 429 600 429 585 414 c 0,151,152
 570.9375 399.9375 570.9375 399.9375 552.48046875 399.9375 c 0,153,154
 551.25 399.9375 551.25 399.9375 550 400 c 1,155,-1
 550 400 l 1,137,138
467 500 m 1,156,157
 446 500 446 500 431 514 c 0,158,159
 416 529 416 529 416 550 c 256,160,161
 416 571 416 571 431 585 c 0,162,163
 446 600 446 600 467 600 c 256,164,165
 488 600 488 600 502 585 c 0,166,167
 517 570 517 570 517 550 c 256,168,169
 517 528 517 528 502 514 c 256,170,171
 487.9375 499.9375 487.9375 499.9375 469.48046875 499.9375 c 0,172,173
 468.25 499.9375 468.25 499.9375 467 500 c 1,174,-1
 467 500 l 1,156,157
EndSplineSet
Validated: 524293
EndChar

StartChar: at
Encoding: 64 64 17
Width: 666
VWidth: 699
Flags: W
LayerCount: 2
Fore
SplineSet
342 22 m 1,0,1
 342 22 l 1,2,-1
 342 22 l 1,3,4
 342 22 l 1,5,-1
 342 22 l 1,0,1
300 0 m 1,6,7
 279 0 279 0 265 15 c 0,8,9
 250 30 250 30 250 50 c 256,10,11
 250 71 250 71 265 85 c 256,12,13
 280 100 280 100 300 100 c 256,14,15
 321 100 321 100 335 85 c 0,16,17
 339 81 339 81 342 78 c 1,18,-1
 342 78 l 1,19,20
 345 82 345 82 348 85 c 0,21,22
 363 100 363 100 384 100 c 128,-1,23
 405 100 405 100 419 85 c 0,24,25
 423 81 423 81 425 78 c 1,26,-1
 425 78 l 1,27,28
 428 82 428 82 431 85 c 0,29,30
 446 100 446 100 467 100 c 256,31,32
 488 100 488 100 502 85 c 256,33,34
 517 70 517 70 517 50 c 256,35,36
 517 29 517 29 502 15 c 0,37,38
 487 0 487 0 467 0 c 256,39,40
 446 0 446 0 431 15 c 0,41,42
 427 19 427 19 425 22 c 1,43,44
 422 18 422 18 419 15 c 0,45,46
 404 0 404 0 384 0 c 0,47,48
 363 0 363 0 348 15 c 0,49,50
 344 19 344 19 342 22 c 1,51,52
 339 18 339 18 335 15 c 0,53,54
 320 0 320 0 300 0 c 1,55,-1
 300 0 l 1,6,7
216 100 m 1,56,57
 195 100 195 100 181 115 c 0,58,59
 166.9375 129.0625 166.9375 129.0625 166.9375 147.51953125 c 0,60,61
 166.9375 171.9375 166.9375 171.9375 181 186 c 128,-1,62
 195.0625 200.0625 195.0625 200.0625 213.51953125 200.0625 c 0,63,64
 214.75 200.0625 214.75 200.0625 216 200 c 256,65,66
 237 200 237 200 252 186 c 256,67,68
 267 171 267 171 267 150 c 256,69,70
 267 129 267 129 252 115 c 0,71,72
 237 100 237 100 216 100 c 1,73,-1
 216 100 l 1,56,57
550 100 m 1,74,75
 528 100 528 100 514 115 c 0,76,77
 499.9375 129.0625 499.9375 129.0625 499.9375 147.51953125 c 0,78,79
 499.9375 171.9375 499.9375 171.9375 514 186 c 256,80,81
 528.0625 200.0625 528.0625 200.0625 547.3984375 200.0625 c 0,82,83
 548.6875 200.0625 548.6875 200.0625 550 200 c 256,84,85
 571 200 571 200 585 186 c 0,86,87
 600 171 600 171 600 150 c 256,88,89
 600 129 600 129 585 115 c 0,90,91
 570 100 570 100 550 100 c 1,92,-1
 550 100 l 1,74,75
258 222 m 1,93,-1
 258 222 l 1,94,-1
 258 222 l 1,95,-1
 258 222 l 1,96,-1
 258 222 l 1,93,-1
50 200 m 1,97,98
 29 200 29 200 15 214 c 0,99,100
 0 229 0 229 0 250 c 256,101,102
 0 271 0 271 15 285 c 0,103,104
 30 300 30 300 50 300 c 256,105,106
 71 300 71 300 85 285 c 256,107,108
 100 270 100 270 100 250 c 256,109,110
 100 229 100 229 85 214 c 0,111,112
 70.9375 199.9375 70.9375 199.9375 52.48046875 199.9375 c 0,113,114
 51.25 199.9375 51.25 199.9375 50 200 c 1,115,-1
 50 200 l 1,97,98
216 200 m 1,116,117
 195 200 195 200 181 214 c 128,-1,118
 166.9375 228.0625 166.9375 228.0625 166.9375 247.3984375 c 0,119,120
 166.9375 270.9375 166.9375 270.9375 181 285 c 0,121,122
 196 300 196 300 216 300 c 256,123,124
 237 300 237 300 252 285 c 0,125,126
 256 281 256 281 258 278 c 1,127,-1
 258 278 l 1,128,129
 261 282 261 282 265 285 c 0,130,131
 280 300 280 300 300 300 c 256,132,133
 321 300 321 300 335 285 c 0,134,135
 339 281 339 281 342 278 c 1,136,-1
 342 278 l 1,137,138
 345 282 345 282 348 285 c 0,139,140
 363 300 363 300 384 300 c 128,-1,141
 405 300 405 300 419 285 c 0,142,143
 433.0625 270.9375 433.0625 270.9375 433.0625 252.48046875 c 0,144,145
 433.0625 229.066964286 433.0625 229.066964286 419 214 c 0,146,147
 404.9375 199.9375 404.9375 199.9375 386.48046875 199.9375 c 0,148,149
 385.25 199.9375 385.25 199.9375 384 200 c 0,150,151
 363 200 363 200 348 214 c 0,152,153
 344 218 344 218 342 222 c 1,154,-1
 342 222 l 1,155,156
 339 218 339 218 335 214 c 0,157,158
 320.9375 199.9375 320.9375 199.9375 302.48046875 199.9375 c 0,159,160
 301.25 199.9375 301.25 199.9375 300 200 c 256,161,162
 279 200 279 200 265 214 c 0,163,164
 261 218 261 218 258 222 c 1,165,-1
 258 222 l 1,166,167
 255 218 255 218 252 214 c 0,168,169
 237.9375 199.9375 237.9375 199.9375 218.6015625 199.9375 c 0,170,171
 217.3125 199.9375 217.3125 199.9375 216 200 c 1,172,-1
 216 200 l 1,116,117
550 200 m 1,173,174
 528 200 528 200 514 214 c 128,-1,175
 499.9375 228.0625 499.9375 228.0625 499.9375 247.3984375 c 0,176,177
 499.9375 270.9375 499.9375 270.9375 514 285 c 256,178,179
 529 300 529 300 550 300 c 256,180,181
 571 300 571 300 585 285 c 0,182,183
 600 270 600 270 600 250 c 256,184,185
 600 229 600 229 585 214 c 0,186,187
 570.9375 199.9375 570.9375 199.9375 552.48046875 199.9375 c 0,188,189
 551.25 199.9375 551.25 199.9375 550 200 c 1,190,-1
 550 200 l 1,173,174
508 322 m 1,191,-1
 508 322 l 1,192,-1
 508 322 l 1,193,-1
 508 322 l 1,194,-1
 508 322 l 1,191,-1
50 300 m 1,195,196
 29 300 29 300 15 314 c 0,197,198
 0 329 0 329 0 350 c 128,-1,199
 0 371 0 371 15 386 c 0,200,201
 29.0625 400.0625 29.0625 400.0625 47.51953125 400.0625 c 0,202,203
 48.75 400.0625 48.75 400.0625 50 400 c 256,204,205
 71 400 71 400 85 386 c 0,206,207
 100 371 100 371 100 350 c 128,-1,208
 100 329 100 329 85 314 c 0,209,210
 70.9375 299.9375 70.9375 299.9375 52.48046875 299.9375 c 0,211,212
 51.25 299.9375 51.25 299.9375 50 300 c 1,213,-1
 50 300 l 1,195,196
216 300 m 1,214,215
 195 300 195 300 181 314 c 128,-1,216
 166.9375 328.0625 166.9375 328.0625 166.9375 347.3984375 c 0,217,218
 166.9375 370.933035714 166.9375 370.933035714 181 386 c 0,219,220
 195.0625 400.0625 195.0625 400.0625 213.51953125 400.0625 c 0,221,222
 214.75 400.0625 214.75 400.0625 216 400 c 256,223,224
 237 400 237 400 252 386 c 0,225,226
 267 371 267 371 267 350 c 128,-1,227
 267 329 267 329 252 314 c 0,228,229
 237.9375 299.9375 237.9375 299.9375 218.6015625 299.9375 c 0,230,231
 217.3125 299.9375 217.3125 299.9375 216 300 c 1,232,-1
 216 300 l 1,214,215
467 300 m 1,233,234
 446 300 446 300 431 314 c 0,235,236
 416 329 416 329 416 350 c 128,-1,237
 416 371 416 371 431 386 c 0,238,239
 445.0625 400.0625 445.0625 400.0625 464.3984375 400.0625 c 0,240,241
 465.6875 400.0625 465.6875 400.0625 467 400 c 256,242,243
 488 400 488 400 502 386 c 0,244,245
 506 382 506 382 508 378 c 1,246,-1
 508 378 l 1,247,248
 510 382 510 382 514 386 c 0,249,250
 528.0625 400.0625 528.0625 400.0625 547.3984375 400.0625 c 0,251,252
 548.6875 400.0625 548.6875 400.0625 550 400 c 256,253,254
 571 400 571 400 585 386 c 0,255,256
 600 371 600 371 600 350 c 128,-1,257
 600 329 600 329 585 314 c 0,258,259
 570.9375 299.9375 570.9375 299.9375 552.48046875 299.9375 c 0,260,261
 551.25 299.9375 551.25 299.9375 550 300 c 256,262,263
 528 300 528 300 514 314 c 0,264,265
 510 318 510 318 508 322 c 1,266,267
 505 318 505 318 502 314 c 0,268,269
 487.9375 299.9375 487.9375 299.9375 469.48046875 299.9375 c 0,270,271
 468.25 299.9375 468.25 299.9375 467 300 c 1,272,-1
 467 300 l 1,233,234
50 400 m 1,273,274
 29 400 29 400 15 414 c 0,275,276
 0 429 0 429 0 450 c 256,277,278
 0 471 0 471 15 485 c 0,279,280
 30 500 30 500 50 500 c 256,281,282
 71 500 71 500 85 485 c 0,283,284
 100 470 100 470 100 450 c 256,285,286
 100 429 100 429 85 414 c 256,287,288
 70.9375 399.9375 70.9375 399.9375 52.48046875 399.9375 c 0,289,290
 51.25 399.9375 51.25 399.9375 50 400 c 1,291,-1
 50 400 l 1,273,274
300 400 m 1,292,293
 279 400 279 400 265 414 c 256,294,295
 250 429 250 429 250 450 c 256,296,297
 250 471 250 471 265 485 c 0,298,299
 280 500 280 500 300 500 c 256,300,301
 321 500 321 500 335 485 c 0,302,303
 339 481 339 481 342 478 c 1,304,-1
 342 478 l 1,305,306
 345 482 345 482 348 485 c 0,307,308
 363 500 363 500 384 500 c 128,-1,309
 405 500 405 500 419 485 c 0,310,311
 433.0625 470.9375 433.0625 470.9375 433.0625 452.48046875 c 0,312,313
 433.0625 429.066964286 433.0625 429.066964286 419 414 c 0,314,315
 404.9375 399.9375 404.9375 399.9375 386.48046875 399.9375 c 0,316,317
 385.25 399.9375 385.25 399.9375 384 400 c 0,318,319
 363 400 363 400 348 414 c 0,320,321
 344 418 344 418 342 422 c 1,322,-1
 342 422 l 1,323,324
 339 418 339 418 335 414 c 0,325,326
 320.9375 399.9375 320.9375 399.9375 302.48046875 399.9375 c 0,327,328
 301.25 399.9375 301.25 399.9375 300 400 c 1,329,-1
 300 400 l 1,292,293
550 400 m 1,330,331
 528 400 528 400 514 414 c 256,332,333
 499.9375 428.0625 499.9375 428.0625 499.9375 447.3984375 c 0,334,335
 499.9375 470.9375 499.9375 470.9375 514 485 c 0,336,337
 529 500 529 500 550 500 c 256,338,339
 571 500 571 500 585 485 c 0,340,341
 600 470 600 470 600 450 c 256,342,343
 600 429 600 429 585 414 c 0,344,345
 570.9375 399.9375 570.9375 399.9375 552.48046875 399.9375 c 0,346,347
 551.25 399.9375 551.25 399.9375 550 400 c 1,348,-1
 550 400 l 1,330,331
133 500 m 1,349,350
 112 500 112 500 98 514 c 256,351,352
 83 529 83 529 83 550 c 256,353,354
 83 571 83 571 98 585 c 0,355,356
 113 600 113 600 133 600 c 256,357,358
 154 600 154 600 169 585 c 0,359,360
 183.0625 570.9375 183.0625 570.9375 183.0625 552.48046875 c 0,361,362
 183.0625 528.0625 183.0625 528.0625 169 514 c 128,-1,363
 154.9375 499.9375 154.9375 499.9375 135.6015625 499.9375 c 0,364,365
 134.3125 499.9375 134.3125 499.9375 133 500 c 1,366,-1
 133 500 l 1,349,350
550 500 m 1,367,368
 528 500 528 500 514 514 c 256,369,370
 499.9375 528.0625 499.9375 528.0625 499.9375 547.3984375 c 0,371,372
 499.9375 570.9375 499.9375 570.9375 514 585 c 0,373,374
 529 600 529 600 550 600 c 256,375,376
 571 600 571 600 585 585 c 0,377,378
 600 570 600 570 600 550 c 256,379,380
 600 528 600 528 585 514 c 0,381,382
 570.9375 499.9375 570.9375 499.9375 552.48046875 499.9375 c 0,383,384
 551.25 499.9375 551.25 499.9375 550 500 c 1,385,-1
 550 500 l 1,367,368
258 622 m 1,386,-1
 258 622 l 1,387,-1
 258 622 l 1,388,-1
 258 622 l 1,389,-1
 258 622 l 1,386,-1
425 622 m 1,390,-1
 425 622 l 1,391,-1
 425 622 l 1,392,-1
 425 622 l 1,393,-1
 425 622 l 1,390,-1
216 600 m 1,394,395
 195 600 195 600 181 615 c 0,396,397
 166.9375 629.0625 166.9375 629.0625 166.9375 647.51953125 c 0,398,399
 166.9375 670.9375 166.9375 670.9375 181 685 c 0,400,401
 196 700 196 700 216 700 c 256,402,403
 237 700 237 700 252 685 c 0,404,405
 256 681 256 681 258 678 c 1,406,-1
 258 678 l 1,407,408
 261 682 261 682 265 685 c 0,409,410
 280 700 280 700 300 700 c 256,411,412
 321 700 321 700 335 685 c 0,413,414
 339 681 339 681 342 678 c 1,415,-1
 342 678 l 1,416,417
 345 682 345 682 348 685 c 0,418,419
 363 700 363 700 384 700 c 128,-1,420
 405 700 405 700 419 685 c 0,421,422
 423 681 423 681 425 678 c 1,423,-1
 425 678 l 1,424,425
 428 682 428 682 431 685 c 0,426,427
 446 700 446 700 467 700 c 256,428,429
 488 700 488 700 502 685 c 256,430,431
 517 670 517 670 517 650 c 256,432,433
 517 629 517 629 502 615 c 256,434,435
 487 600 487 600 467 600 c 256,436,437
 446 600 446 600 431 615 c 0,438,439
 427 619 427 619 425 622 c 1,440,441
 422 618 422 618 419 615 c 0,442,443
 404 600 404 600 384 600 c 0,444,445
 363 600 363 600 348 615 c 0,446,447
 344 619 344 619 342 622 c 1,448,449
 339 618 339 618 335 615 c 0,450,451
 320 600 320 600 300 600 c 256,452,453
 279 600 279 600 265 615 c 0,454,455
 261 619 261 619 258 622 c 1,456,-1
 258 622 l 1,457,458
 255 618 255 618 252 615 c 0,459,460
 237 600 237 600 216 600 c 1,461,-1
 216 600 l 1,394,395
EndSplineSet
Validated: 524293
EndChar

StartChar: A
Encoding: 65 65 18
Width: 666
VWidth: 699
Flags: W
LayerCount: 2
Fore
SplineSet
92 22 m 1,0,1
 92 22 l 1,2,-1
 92 22 l 1,3,4
 92 22 l 1,5,-1
 92 22 l 1,0,1
258 22 m 1,6,7
 258 22 l 1,8,-1
 258 22 l 1,9,10
 258 22 l 1,11,-1
 258 22 l 1,6,7
50 0 m 1,12,13
 29 0 29 0 15 15 c 0,14,15
 0 30 0 30 0 50 c 256,16,17
 0 71 0 71 15 85 c 0,18,19
 30 100 30 100 50 100 c 256,20,21
 71 100 71 100 85 85 c 0,22,23
 89 81 89 81 92 78 c 1,24,-1
 92 78 l 1,25,26
 95 82 95 82 98 85 c 0,27,28
 113 100 113 100 133 100 c 256,29,30
 154 100 154 100 169 85 c 0,31,32
 173 81 173 81 175 78 c 1,33,-1
 175 78 l 1,34,35
 178 82 178 82 181 85 c 0,36,37
 196 100 196 100 216 100 c 256,38,39
 237 100 237 100 252 85 c 0,40,41
 256 81 256 81 258 78 c 1,42,-1
 258 78 l 1,43,44
 261 82 261 82 265 85 c 0,45,46
 280 100 280 100 300 100 c 256,47,48
 321 100 321 100 335 85 c 0,49,50
 350 70 350 70 350 50 c 256,51,52
 350 29 350 29 335 15 c 0,53,54
 320 0 320 0 300 0 c 256,55,56
 279 0 279 0 265 15 c 0,57,58
 261 19 261 19 258 22 c 1,59,60
 255 18 255 18 252 15 c 0,61,62
 237 0 237 0 216 0 c 256,63,64
 195 0 195 0 181 15 c 0,65,66
 177 19 177 19 175 22 c 1,67,-1
 175 22 l 1,68,69
 172 18 172 18 169 15 c 0,70,71
 154 0 154 0 133 0 c 256,72,73
 112 0 112 0 98 15 c 0,74,75
 94 19 94 19 92 22 c 1,76,77
 89 18 89 18 85 15 c 0,78,79
 70 0 70 0 50 0 c 1,80,-1
 50 0 l 1,12,13
216 100 m 1,81,82
 195 100 195 100 181 115 c 0,83,84
 166.9375 129.0625 166.9375 129.0625 166.9375 147.51953125 c 0,85,86
 166.9375 171.9375 166.9375 171.9375 181 186 c 128,-1,87
 195.0625 200.0625 195.0625 200.0625 213.51953125 200.0625 c 0,88,89
 214.75 200.0625 214.75 200.0625 216 200 c 256,90,91
 237 200 237 200 252 186 c 256,92,93
 267 171 267 171 267 150 c 256,94,95
 267 129 267 129 252 115 c 0,96,97
 237 100 237 100 216 100 c 1,98,-1
 216 100 l 1,81,82
384 100 m 1,99,100
 363 100 363 100 348 115 c 128,-1,101
 333 130 333 130 333 150 c 256,102,103
 333 172 333 172 348 186 c 0,104,105
 362.0625 200.0625 362.0625 200.0625 381.3984375 200.0625 c 0,106,107
 382.6875 200.0625 382.6875 200.0625 384 200 c 0,108,109
 405 200 405 200 419 186 c 128,-1,110
 433.0625 171.9375 433.0625 171.9375 433.0625 152.6015625 c 0,111,112
 433.0625 129.0625 433.0625 129.0625 419 115 c 0,113,114
 404 100 404 100 384 100 c 1,115,-1
 384 100 l 1,99,100
216 200 m 1,116,117
 195 200 195 200 181 214 c 128,-1,118
 166.9375 228.0625 166.9375 228.0625 166.9375 247.3984375 c 0,119,120
 166.9375 270.9375 166.9375 270.9375 181 285 c 0,121,122
 196 300 196 300 216 300 c 256,123,124
 237 300 237 300 252 285 c 256,125,126
 267 270 267 270 267 250 c 256,127,128
 267 229 267 229 252 214 c 0,129,130
 237.9375 199.9375 237.9375 199.9375 218.6015625 199.9375 c 0,131,132
 217.3125 199.9375 217.3125 199.9375 216 200 c 1,133,-1
 216 200 l 1,116,117
467 200 m 1,134,135
 446 200 446 200 431 214 c 0,136,137
 416 229 416 229 416 250 c 256,138,139
 416 271 416 271 431 285 c 0,140,141
 446 300 446 300 467 300 c 256,142,143
 488 300 488 300 502 285 c 256,144,145
 517 270 517 270 517 250 c 256,146,147
 517 229 517 229 502 214 c 0,148,149
 487.9375 199.9375 487.9375 199.9375 469.48046875 199.9375 c 0,150,151
 468.25 199.9375 468.25 199.9375 467 200 c 1,152,-1
 467 200 l 1,134,135
216 300 m 1,153,154
 195 300 195 300 181 314 c 128,-1,155
 166.9375 328.0625 166.9375 328.0625 166.9375 347.3984375 c 0,156,157
 166.9375 370.933035714 166.9375 370.933035714 181 386 c 0,158,159
 195.0625 400.0625 195.0625 400.0625 213.51953125 400.0625 c 0,160,161
 214.75 400.0625 214.75 400.0625 216 400 c 256,162,163
 237 400 237 400 252 386 c 0,164,165
 267 371 267 371 267 350 c 128,-1,166
 267 329 267 329 252 314 c 0,167,168
 237.9375 299.9375 237.9375 299.9375 218.6015625 299.9375 c 0,169,170
 217.3125 299.9375 217.3125 299.9375 216 300 c 1,171,-1
 216 300 l 1,153,154
550 300 m 1,172,173
 528 300 528 300 514 314 c 128,-1,174
 499.9375 328.0625 499.9375 328.0625 499.9375 347.3984375 c 0,175,176
 499.9375 370.933035714 499.9375 370.933035714 514 386 c 0,177,178
 528.0625 400.0625 528.0625 400.0625 547.3984375 400.0625 c 0,179,180
 548.6875 400.0625 548.6875 400.0625 550 400 c 256,181,182
 571 400 571 400 585 386 c 0,183,184
 600 371 600 371 600 350 c 128,-1,185
 600 329 600 329 585 314 c 0,186,187
 570.9375 299.9375 570.9375 299.9375 552.48046875 299.9375 c 0,188,189
 551.25 299.9375 551.25 299.9375 550 300 c 1,190,-1
 550 300 l 1,172,173
216 400 m 1,191,192
 195 400 195 400 181 414 c 128,-1,193
 166.9375 428.0625 166.9375 428.0625 166.9375 447.3984375 c 0,194,195
 166.9375 470.9375 166.9375 470.9375 181 485 c 0,196,197
 196 500 196 500 216 500 c 256,198,199
 237 500 237 500 252 485 c 128,-1,200
 267 470 267 470 267 450 c 256,201,202
 267 429 267 429 252 414 c 256,203,204
 237.9375 399.9375 237.9375 399.9375 218.6015625 399.9375 c 0,205,206
 217.3125 399.9375 217.3125 399.9375 216 400 c 1,207,-1
 216 400 l 1,191,192
467 400 m 1,208,209
 446 400 446 400 431 414 c 0,210,211
 416 429 416 429 416 450 c 256,212,213
 416 471 416 471 431 485 c 0,214,215
 446 500 446 500 467 500 c 256,216,217
 488 500 488 500 502 485 c 0,218,219
 517 470 517 470 517 450 c 256,220,221
 517 429 517 429 502 414 c 256,222,223
 487.9375 399.9375 487.9375 399.9375 469.48046875 399.9375 c 0,224,225
 468.25 399.9375 468.25 399.9375 467 400 c 1,226,-1
 467 400 l 1,208,209
216 500 m 1,227,228
 195 500 195 500 181 514 c 128,-1,229
 166.9375 528.0625 166.9375 528.0625 166.9375 547.3984375 c 0,230,231
 166.9375 570.9375 166.9375 570.9375 181 585 c 0,232,233
 196 600 196 600 216 600 c 256,234,235
 237 600 237 600 252 585 c 128,-1,236
 267 570 267 570 267 550 c 256,237,238
 267 528 267 528 252 514 c 256,239,240
 237.9375 499.9375 237.9375 499.9375 218.6015625 499.9375 c 0,241,242
 217.3125 499.9375 217.3125 499.9375 216 500 c 1,243,-1
 216 500 l 1,227,228
384 500 m 1,244,245
 363 500 363 500 348 514 c 0,246,247
 333 529 333 529 333 550 c 256,248,249
 333 571 333 571 348 585 c 0,250,251
 363 600 363 600 384 600 c 128,-1,252
 405 600 405 600 419 585 c 0,253,254
 433.0625 570.9375 433.0625 570.9375 433.0625 552.48046875 c 0,255,256
 433.0625 528.0625 433.0625 528.0625 419 514 c 128,-1,257
 404.9375 499.9375 404.9375 499.9375 386.48046875 499.9375 c 0,258,259
 385.25 499.9375 385.25 499.9375 384 500 c 1,260,-1
 384 500 l 1,244,245
92 622 m 1,261,-1
 92 622 l 1,262,-1
 92 622 l 1,263,-1
 92 622 l 1,264,-1
 92 622 l 1,261,-1
258 622 m 1,265,-1
 258 622 l 1,266,-1
 258 622 l 1,267,-1
 258 622 l 1,268,-1
 258 622 l 1,265,-1
50 600 m 1,269,270
 29 600 29 600 15 615 c 0,271,272
 0 630 0 630 0 650 c 256,273,274
 0 671 0 671 15 685 c 0,275,276
 30 700 30 700 50 700 c 256,277,278
 71 700 71 700 85 685 c 0,279,280
 89 681 89 681 92 678 c 1,281,-1
 92 678 l 1,282,283
 95 682 95 682 98 685 c 0,284,285
 113 700 113 700 133 700 c 256,286,287
 154 700 154 700 169 685 c 0,288,289
 173 681 173 681 175 678 c 1,290,-1
 175 678 l 1,291,292
 178 682 178 682 181 685 c 0,293,294
 196 700 196 700 216 700 c 256,295,296
 237 700 237 700 252 685 c 0,297,298
 256 681 256 681 258 678 c 1,299,-1
 258 678 l 1,300,301
 261 682 261 682 265 685 c 0,302,303
 280 700 280 700 300 700 c 256,304,305
 321 700 321 700 335 685 c 0,306,307
 350 670 350 670 350 650 c 256,308,309
 350 629 350 629 335 615 c 0,310,311
 320 600 320 600 300 600 c 256,312,313
 279 600 279 600 265 615 c 0,314,315
 261 619 261 619 258 622 c 1,316,-1
 258 622 l 1,317,318
 255 618 255 618 252 615 c 0,319,320
 237 600 237 600 216 600 c 256,321,322
 195 600 195 600 181 615 c 0,323,324
 177 619 177 619 175 622 c 1,325,-1
 175 622 l 1,326,327
 172 618 172 618 169 615 c 0,328,329
 154 600 154 600 133 600 c 256,330,331
 112 600 112 600 98 615 c 0,332,333
 94 619 94 619 92 622 c 1,334,335
 89 618 89 618 85 615 c 0,336,337
 70 600 70 600 50 600 c 1,338,-1
 50 600 l 1,269,270
EndSplineSet
Validated: 524293
EndChar

StartChar: B
Encoding: 66 66 19
Width: 666
VWidth: 699
Flags: W
LayerCount: 2
Fore
SplineSet
425 22 m 1,0,1
 425 22 l 1,2,-1
 425 22 l 1,3,4
 425 22 l 1,5,-1
 425 22 l 1,0,1
175 22 m 1,6,7
 175 22 l 1,8,-1
 175 22 l 1,9,10
 175 22 l 1,11,-1
 175 22 l 1,6,7
133 0 m 1,12,13
 112 0 112 0 98 15 c 0,14,15
 83 30 83 30 83 50 c 256,16,17
 83 71 83 71 98 85 c 256,18,19
 113 100 113 100 133 100 c 256,20,21
 154 100 154 100 169 85 c 0,22,23
 173 81 173 81 175 78 c 1,24,-1
 175 78 l 1,25,26
 178 82 178 82 181 85 c 0,27,28
 196 100 196 100 216 100 c 256,29,30
 237 100 237 100 252 85 c 256,31,32
 267 70 267 70 267 50 c 256,33,34
 267 29 267 29 252 15 c 0,35,36
 237 0 237 0 216 0 c 256,37,38
 195 0 195 0 181 15 c 0,39,40
 177 19 177 19 175 22 c 1,41,42
 172 18 172 18 169 15 c 0,43,44
 154 0 154 0 133 0 c 1,45,-1
 133 0 l 1,12,13
384 0 m 1,46,47
 363 0 363 0 348 15 c 128,-1,48
 333 30 333 30 333 50 c 256,49,50
 333 71 333 71 348 85 c 0,51,52
 363 100 363 100 384 100 c 128,-1,53
 405 100 405 100 419 85 c 0,54,55
 423 81 423 81 425 78 c 1,56,-1
 425 78 l 1,57,58
 428 82 428 82 431 85 c 0,59,60
 446 100 446 100 467 100 c 256,61,62
 488 100 488 100 502 85 c 256,63,64
 517 70 517 70 517 50 c 256,65,66
 517 29 517 29 502 15 c 0,67,68
 487 0 487 0 467 0 c 256,69,70
 446 0 446 0 431 15 c 0,71,72
 427 19 427 19 425 22 c 1,73,-1
 425 22 l 1,74,75
 422 18 422 18 419 15 c 0,76,77
 404 0 404 0 384 0 c 1,78,-1
 384 0 l 1,46,47
50 100 m 1,79,80
 29 100 29 100 15 115 c 0,81,82
 0 130 0 130 0 150 c 256,83,84
 0 172 0 172 15 186 c 0,85,86
 29.0625 200.0625 29.0625 200.0625 47.51953125 200.0625 c 0,87,88
 48.75 200.0625 48.75 200.0625 50 200 c 256,89,90
 71 200 71 200 85 186 c 256,91,92
 100 171 100 171 100 150 c 256,93,94
 100 129 100 129 85 115 c 0,95,96
 70 100 70 100 50 100 c 1,97,-1
 50 100 l 1,79,80
300 100 m 1,98,99
 279 100 279 100 265 115 c 0,100,101
 250 130 250 130 250 150 c 256,102,103
 250 172 250 172 265 186 c 256,104,105
 279.0625 200.0625 279.0625 200.0625 297.51953125 200.0625 c 0,106,107
 298.75 200.0625 298.75 200.0625 300 200 c 256,108,109
 321 200 321 200 335 186 c 0,110,111
 350 171 350 171 350 150 c 256,112,113
 350 129 350 129 335 115 c 0,114,115
 320 100 320 100 300 100 c 1,116,-1
 300 100 l 1,98,99
550 100 m 1,117,118
 528 100 528 100 514 115 c 0,119,120
 499.9375 129.0625 499.9375 129.0625 499.9375 147.51953125 c 0,121,122
 499.9375 171.9375 499.9375 171.9375 514 186 c 256,123,124
 528.0625 200.0625 528.0625 200.0625 547.3984375 200.0625 c 0,125,126
 548.6875 200.0625 548.6875 200.0625 550 200 c 256,127,128
 571 200 571 200 585 186 c 0,129,130
 600 171 600 171 600 150 c 256,131,132
 600 129 600 129 585 115 c 0,133,134
 570 100 570 100 550 100 c 1,135,-1
 550 100 l 1,117,118
50 200 m 1,136,137
 29 200 29 200 15 214 c 0,138,139
 0 229 0 229 0 250 c 256,140,141
 0 271 0 271 15 285 c 0,142,143
 30 300 30 300 50 300 c 256,144,145
 71 300 71 300 85 285 c 256,146,147
 100 270 100 270 100 250 c 256,148,149
 100 229 100 229 85 214 c 0,150,151
 70.9375 199.9375 70.9375 199.9375 52.48046875 199.9375 c 0,152,153
 51.25 199.9375 51.25 199.9375 50 200 c 1,154,-1
 50 200 l 1,136,137
300 200 m 1,155,156
 279 200 279 200 265 214 c 0,157,158
 250 229 250 229 250 250 c 256,159,160
 250 271 250 271 265 285 c 256,161,162
 280 300 280 300 300 300 c 256,163,164
 321 300 321 300 335 285 c 0,165,166
 350 270 350 270 350 250 c 256,167,168
 350 229 350 229 335 214 c 0,169,170
 320.9375 199.9375 320.9375 199.9375 302.48046875 199.9375 c 0,171,172
 301.25 199.9375 301.25 199.9375 300 200 c 1,173,-1
 300 200 l 1,155,156
550 200 m 1,174,175
 528 200 528 200 514 214 c 128,-1,176
 499.9375 228.0625 499.9375 228.0625 499.9375 247.3984375 c 0,177,178
 499.9375 270.9375 499.9375 270.9375 514 285 c 256,179,180
 529 300 529 300 550 300 c 256,181,182
 571 300 571 300 585 285 c 0,183,184
 600 270 600 270 600 250 c 256,185,186
 600 229 600 229 585 214 c 0,187,188
 570.9375 199.9375 570.9375 199.9375 552.48046875 199.9375 c 0,189,190
 551.25 199.9375 551.25 199.9375 550 200 c 1,191,-1
 550 200 l 1,174,175
50 300 m 1,192,193
 29 300 29 300 15 314 c 0,194,195
 0 329 0 329 0 350 c 128,-1,196
 0 371 0 371 15 386 c 0,197,198
 29.0625 400.0625 29.0625 400.0625 47.51953125 400.0625 c 0,199,200
 48.75 400.0625 48.75 400.0625 50 400 c 256,201,202
 71 400 71 400 85 386 c 0,203,204
 100 371 100 371 100 350 c 128,-1,205
 100 329 100 329 85 314 c 0,206,207
 70.9375 299.9375 70.9375 299.9375 52.48046875 299.9375 c 0,208,209
 51.25 299.9375 51.25 299.9375 50 300 c 1,210,-1
 50 300 l 1,192,193
300 300 m 1,211,212
 279 300 279 300 265 314 c 0,213,214
 250 329 250 329 250 350 c 128,-1,215
 250 371 250 371 265 386 c 0,216,217
 279.0625 400.0625 279.0625 400.0625 297.51953125 400.0625 c 0,218,219
 298.75 400.0625 298.75 400.0625 300 400 c 256,220,221
 321 400 321 400 335 386 c 0,222,223
 350 371 350 371 350 350 c 128,-1,224
 350 329 350 329 335 314 c 0,225,226
 320.9375 299.9375 320.9375 299.9375 302.48046875 299.9375 c 0,227,228
 301.25 299.9375 301.25 299.9375 300 300 c 1,229,-1
 300 300 l 1,211,212
550 300 m 1,230,231
 528 300 528 300 514 314 c 128,-1,232
 499.9375 328.0625 499.9375 328.0625 499.9375 347.3984375 c 0,233,234
 499.9375 370.933035714 499.9375 370.933035714 514 386 c 0,235,236
 528.0625 400.0625 528.0625 400.0625 547.3984375 400.0625 c 0,237,238
 548.6875 400.0625 548.6875 400.0625 550 400 c 256,239,240
 571 400 571 400 585 386 c 0,241,242
 600 371 600 371 600 350 c 128,-1,243
 600 329 600 329 585 314 c 0,244,245
 570.9375 299.9375 570.9375 299.9375 552.48046875 299.9375 c 0,246,247
 551.25 299.9375 551.25 299.9375 550 300 c 1,248,-1
 550 300 l 1,230,231
50 400 m 1,249,250
 29 400 29 400 15 414 c 0,251,252
 0 429 0 429 0 450 c 256,253,254
 0 471 0 471 15 485 c 0,255,256
 30 500 30 500 50 500 c 256,257,258
 71 500 71 500 85 485 c 0,259,260
 100 470 100 470 100 450 c 256,261,262
 100 429 100 429 85 414 c 256,263,264
 70.9375 399.9375 70.9375 399.9375 52.48046875 399.9375 c 0,265,266
 51.25 399.9375 51.25 399.9375 50 400 c 1,267,-1
 50 400 l 1,249,250
300 400 m 1,268,269
 279 400 279 400 265 414 c 256,270,271
 250 429 250 429 250 450 c 256,272,273
 250 471 250 471 265 485 c 0,274,275
 280 500 280 500 300 500 c 256,276,277
 321 500 321 500 335 485 c 0,278,279
 350 470 350 470 350 450 c 256,280,281
 350 429 350 429 335 414 c 0,282,283
 320.9375 399.9375 320.9375 399.9375 302.48046875 399.9375 c 0,284,285
 301.25 399.9375 301.25 399.9375 300 400 c 1,286,-1
 300 400 l 1,268,269
550 400 m 1,287,288
 528 400 528 400 514 414 c 256,289,290
 499.9375 428.0625 499.9375 428.0625 499.9375 447.3984375 c 0,291,292
 499.9375 470.9375 499.9375 470.9375 514 485 c 0,293,294
 529 500 529 500 550 500 c 256,295,296
 571 500 571 500 585 485 c 0,297,298
 600 470 600 470 600 450 c 256,299,300
 600 429 600 429 585 414 c 0,301,302
 570.9375 399.9375 570.9375 399.9375 552.48046875 399.9375 c 0,303,304
 551.25 399.9375 551.25 399.9375 550 400 c 1,305,-1
 550 400 l 1,287,288
92 522 m 1,306,-1
 92 522 l 1,307,-1
 92 522 l 1,308,-1
 92 522 l 1,309,-1
 92 522 l 1,306,-1
258 522 m 1,310,-1
 258 522 l 1,311,-1
 258 522 l 1,312,-1
 258 522 l 1,313,-1
 258 522 l 1,310,-1
425 522 m 1,314,-1
 425 522 l 1,315,-1
 425 522 l 1,316,-1
 425 522 l 1,317,-1
 425 522 l 1,314,-1
50 500 m 1,318,319
 29 500 29 500 15 514 c 0,320,321
 0 529 0 529 0 550 c 256,322,323
 0 571 0 571 15 585 c 0,324,325
 30 600 30 600 50 600 c 256,326,327
 71 600 71 600 85 585 c 0,328,329
 89 582 89 582 92 578 c 1,330,-1
 92 578 l 1,331,332
 95 582 95 582 98 585 c 0,333,334
 113 600 113 600 133 600 c 256,335,336
 154 600 154 600 169 585 c 0,337,338
 173 582 173 582 175 578 c 1,339,-1
 175 578 l 1,340,341
 178 582 178 582 181 585 c 0,342,343
 196 600 196 600 216 600 c 256,344,345
 237 600 237 600 252 585 c 0,346,347
 256 582 256 582 258 578 c 1,348,-1
 258 578 l 1,349,350
 261 582 261 582 265 585 c 0,351,352
 280 600 280 600 300 600 c 256,353,354
 321 600 321 600 335 585 c 0,355,356
 339 582 339 582 342 578 c 1,357,-1
 342 578 l 1,358,359
 345 582 345 582 348 585 c 0,360,361
 363 600 363 600 384 600 c 128,-1,362
 405 600 405 600 419 585 c 0,363,364
 423 582 423 582 425 578 c 1,365,-1
 425 578 l 1,366,367
 428 582 428 582 431 585 c 0,368,369
 446 600 446 600 467 600 c 256,370,371
 488 600 488 600 502 585 c 0,372,373
 506 582 506 582 508 578 c 1,374,-1
 508 578 l 1,375,376
 510 582 510 582 514 585 c 0,377,378
 529 600 529 600 550 600 c 256,379,380
 571 600 571 600 585 585 c 0,381,382
 600 570 600 570 600 550 c 256,383,384
 600 528 600 528 585 514 c 0,385,386
 570.9375 499.9375 570.9375 499.9375 552.48046875 499.9375 c 0,387,388
 551.25 499.9375 551.25 499.9375 550 500 c 256,389,390
 528 500 528 500 514 514 c 0,391,392
 510 518 510 518 508 522 c 1,393,394
 505 518 505 518 502 514 c 0,395,396
 487.9375 499.9375 487.9375 499.9375 469.48046875 499.9375 c 0,397,398
 468.25 499.9375 468.25 499.9375 467 500 c 256,399,400
 446 500 446 500 431 514 c 0,401,402
 427 518 427 518 425 522 c 1,403,404
 422 518 422 518 419 514 c 0,405,406
 404.9375 499.9375 404.9375 499.9375 386.48046875 499.9375 c 0,407,408
 385.25 499.9375 385.25 499.9375 384 500 c 0,409,410
 363 500 363 500 348 514 c 0,411,412
 344 518 344 518 342 522 c 1,413,-1
 342 522 l 1,414,415
 339 518 339 518 335 514 c 0,416,417
 320.9375 499.9375 320.9375 499.9375 302.48046875 499.9375 c 0,418,419
 301.25 499.9375 301.25 499.9375 300 500 c 256,420,421
 279 500 279 500 265 514 c 0,422,423
 261 518 261 518 258 522 c 1,424,-1
 258 522 l 1,425,426
 255 518 255 518 252 514 c 0,427,428
 237.9375 499.9375 237.9375 499.9375 218.6015625 499.9375 c 0,429,430
 217.3125 499.9375 217.3125 499.9375 216 500 c 256,431,432
 195 500 195 500 181 514 c 0,433,434
 177 518 177 518 175 522 c 1,435,-1
 175 522 l 1,436,437
 172 518 172 518 169 514 c 0,438,439
 154.9375 499.9375 154.9375 499.9375 135.6015625 499.9375 c 0,440,441
 134.3125 499.9375 134.3125 499.9375 133 500 c 256,442,443
 112 500 112 500 98 514 c 0,444,445
 94 518 94 518 92 522 c 1,446,447
 89 518 89 518 85 514 c 0,448,449
 70.9375 499.9375 70.9375 499.9375 52.48046875 499.9375 c 0,450,451
 51.25 499.9375 51.25 499.9375 50 500 c 1,452,-1
 50 500 l 1,318,319
50 600 m 1,453,454
 29 600 29 600 15 615 c 0,455,456
 0 630 0 630 0 650 c 256,457,458
 0 671 0 671 15 685 c 0,459,460
 30 700 30 700 50 700 c 256,461,462
 71 700 71 700 85 685 c 256,463,464
 100 670 100 670 100 650 c 256,465,466
 100 629 100 629 85 615 c 256,467,468
 70 600 70 600 50 600 c 1,469,-1
 50 600 l 1,453,454
550 600 m 1,470,471
 528 600 528 600 514 615 c 256,472,473
 499.9375 629.0625 499.9375 629.0625 499.9375 647.51953125 c 0,474,475
 499.9375 670.9375 499.9375 670.9375 514 685 c 256,476,477
 529 700 529 700 550 700 c 256,478,479
 571 700 571 700 585 685 c 0,480,481
 600 670 600 670 600 650 c 256,482,483
 600 629 600 629 585 615 c 0,484,485
 570 600 570 600 550 600 c 1,486,-1
 550 600 l 1,470,471
EndSplineSet
Validated: 524293
EndChar

StartChar: C
Encoding: 67 67 20
Width: 666
VWidth: 699
Flags: W
LayerCount: 2
Fore
SplineSet
133 0 m 1,0,1
 112 0 112 0 98 15 c 0,2,3
 83 30 83 30 83 50 c 256,4,5
 83 71 83 71 98 85 c 256,6,7
 113 100 113 100 133 100 c 256,8,9
 154 100 154 100 169 85 c 0,10,11
 183.0625 70.9375 183.0625 70.9375 183.0625 52.48046875 c 0,12,13
 183.0625 29.0625 183.0625 29.0625 169 15 c 0,14,15
 154 0 154 0 133 0 c 1,16,-1
 133 0 l 1,0,1
467 0 m 1,17,18
 446 0 446 0 431 15 c 128,-1,19
 416 30 416 30 416 50 c 256,20,21
 416 71 416 71 431 85 c 0,22,23
 446 100 446 100 467 100 c 256,24,25
 488 100 488 100 502 85 c 256,26,27
 517 70 517 70 517 50 c 256,28,29
 517 29 517 29 502 15 c 0,30,31
 487 0 487 0 467 0 c 1,32,-1
 467 0 l 1,17,18
50 100 m 1,33,34
 29 100 29 100 15 115 c 0,35,36
 0 130 0 130 0 150 c 256,37,38
 0 172 0 172 15 186 c 0,39,40
 29.0625 200.0625 29.0625 200.0625 47.51953125 200.0625 c 0,41,42
 48.75 200.0625 48.75 200.0625 50 200 c 256,43,44
 71 200 71 200 85 186 c 256,45,46
 100 171 100 171 100 150 c 256,47,48
 100 129 100 129 85 115 c 0,49,50
 70 100 70 100 50 100 c 1,51,-1
 50 100 l 1,33,34
550 100 m 1,52,53
 528 100 528 100 514 115 c 0,54,55
 499.9375 129.0625 499.9375 129.0625 499.9375 147.51953125 c 0,56,57
 499.9375 171.9375 499.9375 171.9375 514 186 c 256,58,59
 528.0625 200.0625 528.0625 200.0625 547.3984375 200.0625 c 0,60,61
 548.6875 200.0625 548.6875 200.0625 550 200 c 256,62,63
 571 200 571 200 585 186 c 0,64,65
 600 171 600 171 600 150 c 256,66,67
 600 129 600 129 585 115 c 0,68,69
 570 100 570 100 550 100 c 1,70,-1
 550 100 l 1,52,53
50 200 m 1,71,72
 29 200 29 200 15 214 c 0,73,74
 0 229 0 229 0 250 c 256,75,76
 0 271 0 271 15 285 c 0,77,78
 30 300 30 300 50 300 c 256,79,80
 71 300 71 300 85 285 c 256,81,82
 100 270 100 270 100 250 c 256,83,84
 100 229 100 229 85 214 c 0,85,86
 70.9375 199.9375 70.9375 199.9375 52.48046875 199.9375 c 0,87,88
 51.25 199.9375 51.25 199.9375 50 200 c 1,89,-1
 50 200 l 1,71,72
550 200 m 1,90,91
 528 200 528 200 514 214 c 128,-1,92
 499.9375 228.0625 499.9375 228.0625 499.9375 247.3984375 c 0,93,94
 499.9375 270.9375 499.9375 270.9375 514 285 c 256,95,96
 529 300 529 300 550 300 c 256,97,98
 571 300 571 300 585 285 c 0,99,100
 600 270 600 270 600 250 c 256,101,102
 600 229 600 229 585 214 c 0,103,104
 570.9375 199.9375 570.9375 199.9375 552.48046875 199.9375 c 0,105,106
 551.25 199.9375 551.25 199.9375 550 200 c 1,107,-1
 550 200 l 1,90,91
50 300 m 1,108,109
 29 300 29 300 15 314 c 0,110,111
 0 329 0 329 0 350 c 128,-1,112
 0 371 0 371 15 386 c 0,113,114
 29.0625 400.0625 29.0625 400.0625 47.51953125 400.0625 c 0,115,116
 48.75 400.0625 48.75 400.0625 50 400 c 256,117,118
 71 400 71 400 85 386 c 0,119,120
 100 371 100 371 100 350 c 128,-1,121
 100 329 100 329 85 314 c 0,122,123
 70.9375 299.9375 70.9375 299.9375 52.48046875 299.9375 c 0,124,125
 51.25 299.9375 51.25 299.9375 50 300 c 1,126,-1
 50 300 l 1,108,109
550 300 m 1,127,128
 528 300 528 300 514 314 c 128,-1,129
 499.9375 328.0625 499.9375 328.0625 499.9375 347.3984375 c 0,130,131
 499.9375 370.933035714 499.9375 370.933035714 514 386 c 0,132,133
 528.0625 400.0625 528.0625 400.0625 547.3984375 400.0625 c 0,134,135
 548.6875 400.0625 548.6875 400.0625 550 400 c 256,136,137
 571 400 571 400 585 386 c 0,138,139
 600 371 600 371 600 350 c 128,-1,140
 600 329 600 329 585 314 c 0,141,142
 570.9375 299.9375 570.9375 299.9375 552.48046875 299.9375 c 0,143,144
 551.25 299.9375 551.25 299.9375 550 300 c 1,145,-1
 550 300 l 1,127,128
50 400 m 1,146,147
 29 400 29 400 15 414 c 0,148,149
 0 429 0 429 0 450 c 256,150,151
 0 471 0 471 15 485 c 0,152,153
 30 500 30 500 50 500 c 256,154,155
 71 500 71 500 85 485 c 0,156,157
 100 470 100 470 100 450 c 256,158,159
 100 429 100 429 85 414 c 256,160,161
 70.9375 399.9375 70.9375 399.9375 52.48046875 399.9375 c 0,162,163
 51.25 399.9375 51.25 399.9375 50 400 c 1,164,-1
 50 400 l 1,146,147
550 400 m 1,165,166
 528 400 528 400 514 414 c 256,167,168
 499.9375 428.0625 499.9375 428.0625 499.9375 447.3984375 c 0,169,170
 499.9375 470.9375 499.9375 470.9375 514 485 c 0,171,172
 529 500 529 500 550 500 c 256,173,174
 571 500 571 500 585 485 c 0,175,176
 600 470 600 470 600 450 c 256,177,178
 600 429 600 429 585 414 c 0,179,180
 570.9375 399.9375 570.9375 399.9375 552.48046875 399.9375 c 0,181,182
 551.25 399.9375 551.25 399.9375 550 400 c 1,183,-1
 550 400 l 1,165,166
133 500 m 1,184,185
 112 500 112 500 98 514 c 256,186,187
 83 529 83 529 83 550 c 256,188,189
 83 571 83 571 98 585 c 0,190,191
 113 600 113 600 133 600 c 256,192,193
 154 600 154 600 169 585 c 0,194,195
 183.0625 570.9375 183.0625 570.9375 183.0625 552.48046875 c 0,196,197
 183.0625 528.0625 183.0625 528.0625 169 514 c 128,-1,198
 154.9375 499.9375 154.9375 499.9375 135.6015625 499.9375 c 0,199,200
 134.3125 499.9375 134.3125 499.9375 133 500 c 1,201,-1
 133 500 l 1,184,185
467 500 m 1,202,203
 446 500 446 500 431 514 c 0,204,205
 416 529 416 529 416 550 c 256,206,207
 416 571 416 571 431 585 c 0,208,209
 446 600 446 600 467 600 c 256,210,211
 488 600 488 600 502 585 c 0,212,213
 517 570 517 570 517 550 c 256,214,215
 517 528 517 528 502 514 c 256,216,217
 487.9375 499.9375 487.9375 499.9375 469.48046875 499.9375 c 0,218,219
 468.25 499.9375 468.25 499.9375 467 500 c 1,220,-1
 467 500 l 1,202,203
258 622 m 1,221,-1
 258 622 l 1,222,-1
 258 622 l 1,223,-1
 258 622 l 1,224,-1
 258 622 l 1,221,-1
216 600 m 1,225,226
 195 600 195 600 181 615 c 0,227,228
 166.9375 629.0625 166.9375 629.0625 166.9375 647.51953125 c 0,229,230
 166.9375 670.9375 166.9375 670.9375 181 685 c 0,231,232
 196 700 196 700 216 700 c 256,233,234
 237 700 237 700 252 685 c 0,235,236
 256 681 256 681 258 678 c 1,237,-1
 258 678 l 1,238,239
 261 682 261 682 265 685 c 0,240,241
 280 700 280 700 300 700 c 256,242,243
 321 700 321 700 335 685 c 0,244,245
 339 681 339 681 342 678 c 1,246,-1
 342 678 l 1,247,248
 345 682 345 682 348 685 c 0,249,250
 363 700 363 700 384 700 c 128,-1,251
 405 700 405 700 419 685 c 0,252,253
 433.0625 670.9375 433.0625 670.9375 433.0625 652.48046875 c 0,254,255
 433.0625 629.0625 433.0625 629.0625 419 615 c 0,256,257
 404 600 404 600 384 600 c 0,258,259
 363 600 363 600 348 615 c 0,260,261
 344 619 344 619 342 622 c 1,262,263
 339 618 339 618 335 615 c 0,264,265
 320 600 320 600 300 600 c 256,266,267
 279 600 279 600 265 615 c 0,268,269
 261 619 261 619 258 622 c 1,270,-1
 258 622 l 1,271,272
 255 618 255 618 252 615 c 0,273,274
 237 600 237 600 216 600 c 1,275,-1
 216 600 l 1,225,226
EndSplineSet
Validated: 524293
EndChar

StartChar: D
Encoding: 68 68 21
Width: 666
VWidth: 699
Flags: W
LayerCount: 2
Fore
SplineSet
342 22 m 1,0,1
 342 22 l 1,2,-1
 342 22 l 1,3,4
 342 22 l 1,5,-1
 342 22 l 1,0,1
175 22 m 1,6,7
 175 22 l 1,8,-1
 175 22 l 1,9,10
 175 22 l 1,11,-1
 175 22 l 1,6,7
133 0 m 1,12,13
 112 0 112 0 98 15 c 0,14,15
 83 30 83 30 83 50 c 256,16,17
 83 71 83 71 98 85 c 256,18,19
 113 100 113 100 133 100 c 256,20,21
 154 100 154 100 169 85 c 0,22,23
 173 81 173 81 175 78 c 1,24,-1
 175 78 l 1,25,26
 178 82 178 82 181 85 c 0,27,28
 196 100 196 100 216 100 c 256,29,30
 237 100 237 100 252 85 c 0,31,32
 256 81 256 81 258 78 c 1,33,-1
 258 78 l 1,34,35
 261 82 261 82 265 85 c 0,36,37
 280 100 280 100 300 100 c 256,38,39
 321 100 321 100 335 85 c 0,40,41
 339 81 339 81 342 78 c 1,42,-1
 342 78 l 1,43,44
 345 82 345 82 348 85 c 0,45,46
 363 100 363 100 384 100 c 128,-1,47
 405 100 405 100 419 85 c 0,48,49
 423 81 423 81 425 78 c 1,50,-1
 425 78 l 1,51,52
 428 82 428 82 431 85 c 0,53,54
 446 100 446 100 467 100 c 256,55,56
 488 100 488 100 502 85 c 256,57,58
 517 70 517 70 517 50 c 256,59,60
 517 29 517 29 502 15 c 0,61,62
 487 0 487 0 467 0 c 256,63,64
 446 0 446 0 431 15 c 0,65,66
 427 19 427 19 425 22 c 1,67,68
 422 18 422 18 419 15 c 0,69,70
 404 0 404 0 384 0 c 0,71,72
 363 0 363 0 348 15 c 0,73,74
 344 19 344 19 342 22 c 1,75,76
 339 18 339 18 335 15 c 0,77,78
 320 0 320 0 300 0 c 256,79,80
 279 0 279 0 265 15 c 0,81,82
 261 19 261 19 258 22 c 1,83,84
 255 18 255 18 252 15 c 0,85,86
 237 0 237 0 216 0 c 256,87,88
 195 0 195 0 181 15 c 0,89,90
 177 19 177 19 175 22 c 1,91,92
 172 18 172 18 169 15 c 0,93,94
 154 0 154 0 133 0 c 1,95,-1
 133 0 l 1,12,13
50 100 m 1,96,97
 29 100 29 100 15 115 c 0,98,99
 0 130 0 130 0 150 c 256,100,101
 0 172 0 172 15 186 c 0,102,103
 29.0625 200.0625 29.0625 200.0625 47.51953125 200.0625 c 0,104,105
 48.75 200.0625 48.75 200.0625 50 200 c 256,106,107
 71 200 71 200 85 186 c 256,108,109
 100 171 100 171 100 150 c 256,110,111
 100 129 100 129 85 115 c 0,112,113
 70 100 70 100 50 100 c 1,114,-1
 50 100 l 1,96,97
550 100 m 1,115,116
 528 100 528 100 514 115 c 0,117,118
 499.9375 129.0625 499.9375 129.0625 499.9375 147.51953125 c 0,119,120
 499.9375 171.9375 499.9375 171.9375 514 186 c 256,121,122
 528.0625 200.0625 528.0625 200.0625 547.3984375 200.0625 c 0,123,124
 548.6875 200.0625 548.6875 200.0625 550 200 c 256,125,126
 571 200 571 200 585 186 c 0,127,128
 600 171 600 171 600 150 c 256,129,130
 600 129 600 129 585 115 c 0,131,132
 570 100 570 100 550 100 c 1,133,-1
 550 100 l 1,115,116
50 200 m 1,134,135
 29 200 29 200 15 214 c 0,136,137
 0 229 0 229 0 250 c 256,138,139
 0 271 0 271 15 285 c 0,140,141
 30 300 30 300 50 300 c 256,142,143
 71 300 71 300 85 285 c 256,144,145
 100 270 100 270 100 250 c 256,146,147
 100 229 100 229 85 214 c 0,148,149
 70.9375 199.9375 70.9375 199.9375 52.48046875 199.9375 c 0,150,151
 51.25 199.9375 51.25 199.9375 50 200 c 1,152,-1
 50 200 l 1,134,135
550 200 m 1,153,154
 528 200 528 200 514 214 c 128,-1,155
 499.9375 228.0625 499.9375 228.0625 499.9375 247.3984375 c 0,156,157
 499.9375 270.9375 499.9375 270.9375 514 285 c 256,158,159
 529 300 529 300 550 300 c 256,160,161
 571 300 571 300 585 285 c 0,162,163
 600 270 600 270 600 250 c 256,164,165
 600 229 600 229 585 214 c 0,166,167
 570.9375 199.9375 570.9375 199.9375 552.48046875 199.9375 c 0,168,169
 551.25 199.9375 551.25 199.9375 550 200 c 1,170,-1
 550 200 l 1,153,154
50 300 m 1,171,172
 29 300 29 300 15 314 c 0,173,174
 0 329 0 329 0 350 c 128,-1,175
 0 371 0 371 15 386 c 0,176,177
 29.0625 400.0625 29.0625 400.0625 47.51953125 400.0625 c 0,178,179
 48.75 400.0625 48.75 400.0625 50 400 c 256,180,181
 71 400 71 400 85 386 c 0,182,183
 100 371 100 371 100 350 c 128,-1,184
 100 329 100 329 85 314 c 0,185,186
 70.9375 299.9375 70.9375 299.9375 52.48046875 299.9375 c 0,187,188
 51.25 299.9375 51.25 299.9375 50 300 c 1,189,-1
 50 300 l 1,171,172
550 300 m 1,190,191
 528 300 528 300 514 314 c 128,-1,192
 499.9375 328.0625 499.9375 328.0625 499.9375 347.3984375 c 0,193,194
 499.9375 370.933035714 499.9375 370.933035714 514 386 c 0,195,196
 528.0625 400.0625 528.0625 400.0625 547.3984375 400.0625 c 0,197,198
 548.6875 400.0625 548.6875 400.0625 550 400 c 256,199,200
 571 400 571 400 585 386 c 0,201,202
 600 371 600 371 600 350 c 128,-1,203
 600 329 600 329 585 314 c 0,204,205
 570.9375 299.9375 570.9375 299.9375 552.48046875 299.9375 c 0,206,207
 551.25 299.9375 551.25 299.9375 550 300 c 1,208,-1
 550 300 l 1,190,191
50 400 m 1,209,210
 29 400 29 400 15 414 c 0,211,212
 0 429 0 429 0 450 c 256,213,214
 0 471 0 471 15 485 c 0,215,216
 30 500 30 500 50 500 c 256,217,218
 71 500 71 500 85 485 c 0,219,220
 100 470 100 470 100 450 c 256,221,222
 100 429 100 429 85 414 c 256,223,224
 70.9375 399.9375 70.9375 399.9375 52.48046875 399.9375 c 0,225,226
 51.25 399.9375 51.25 399.9375 50 400 c 1,227,-1
 50 400 l 1,209,210
550 400 m 1,228,229
 528 400 528 400 514 414 c 256,230,231
 499.9375 428.0625 499.9375 428.0625 499.9375 447.3984375 c 0,232,233
 499.9375 470.9375 499.9375 470.9375 514 485 c 0,234,235
 529 500 529 500 550 500 c 256,236,237
 571 500 571 500 585 485 c 0,238,239
 600 470 600 470 600 450 c 256,240,241
 600 429 600 429 585 414 c 0,242,243
 570.9375 399.9375 570.9375 399.9375 552.48046875 399.9375 c 0,244,245
 551.25 399.9375 551.25 399.9375 550 400 c 1,246,-1
 550 400 l 1,228,229
92 522 m 1,247,-1
 92 522 l 1,248,-1
 92 522 l 1,249,-1
 92 522 l 1,250,-1
 92 522 l 1,247,-1
175 522 m 1,251,-1
 175 522 l 1,252,-1
 175 522 l 1,253,-1
 175 522 l 1,254,-1
 175 522 l 1,251,-1
342 522 m 1,255,-1
 342 522 l 1,256,-1
 342 522 l 1,257,-1
 342 522 l 1,258,-1
 342 522 l 1,255,-1
508 522 m 1,259,-1
 508 522 l 1,260,-1
 508 522 l 1,261,-1
 508 522 l 1,262,-1
 508 522 l 1,259,-1
50 500 m 1,263,264
 29 500 29 500 15 514 c 0,265,266
 0 529 0 529 0 550 c 256,267,268
 0 571 0 571 15 585 c 0,269,270
 30 600 30 600 50 600 c 256,271,272
 71 600 71 600 85 585 c 0,273,274
 89 582 89 582 92 578 c 1,275,-1
 92 578 l 1,276,277
 95 582 95 582 98 585 c 0,278,279
 113 600 113 600 133 600 c 256,280,281
 154 600 154 600 169 585 c 0,282,283
 173 582 173 582 175 578 c 1,284,-1
 175 578 l 1,285,286
 178 582 178 582 181 585 c 0,287,288
 196 600 196 600 216 600 c 256,289,290
 237 600 237 600 252 585 c 0,291,292
 256 582 256 582 258 578 c 1,293,-1
 258 578 l 1,294,295
 261 582 261 582 265 585 c 0,296,297
 280 600 280 600 300 600 c 256,298,299
 321 600 321 600 335 585 c 0,300,301
 339 582 339 582 342 578 c 1,302,-1
 342 578 l 1,303,304
 345 582 345 582 348 585 c 0,305,306
 363 600 363 600 384 600 c 128,-1,307
 405 600 405 600 419 585 c 0,308,309
 423 582 423 582 425 578 c 1,310,-1
 425 578 l 1,311,312
 428 582 428 582 431 585 c 0,313,314
 446 600 446 600 467 600 c 256,315,316
 488 600 488 600 502 585 c 0,317,318
 506 582 506 582 508 578 c 1,319,-1
 508 578 l 1,320,321
 510 582 510 582 514 585 c 0,322,323
 529 600 529 600 550 600 c 256,324,325
 571 600 571 600 585 585 c 0,326,327
 600 570 600 570 600 550 c 256,328,329
 600 528 600 528 585 514 c 0,330,331
 570.9375 499.9375 570.9375 499.9375 552.48046875 499.9375 c 0,332,333
 551.25 499.9375 551.25 499.9375 550 500 c 256,334,335
 528 500 528 500 514 514 c 0,336,337
 510 518 510 518 508 522 c 1,338,339
 505 518 505 518 502 514 c 0,340,341
 487.9375 499.9375 487.9375 499.9375 469.48046875 499.9375 c 0,342,343
 468.25 499.9375 468.25 499.9375 467 500 c 256,344,345
 446 500 446 500 431 514 c 0,346,347
 427 518 427 518 425 522 c 1,348,349
 422 518 422 518 419 514 c 0,350,351
 404.9375 499.9375 404.9375 499.9375 386.48046875 499.9375 c 0,352,353
 385.25 499.9375 385.25 499.9375 384 500 c 0,354,355
 363 500 363 500 348 514 c 0,356,357
 344 518 344 518 342 522 c 1,358,359
 339 518 339 518 335 514 c 0,360,361
 320.9375 499.9375 320.9375 499.9375 302.48046875 499.9375 c 0,362,363
 301.25 499.9375 301.25 499.9375 300 500 c 256,364,365
 279 500 279 500 265 514 c 0,366,367
 261 518 261 518 258 522 c 1,368,-1
 258 522 l 1,369,370
 255 518 255 518 252 514 c 0,371,372
 237.9375 499.9375 237.9375 499.9375 218.6015625 499.9375 c 0,373,374
 217.3125 499.9375 217.3125 499.9375 216 500 c 256,375,376
 195 500 195 500 181 514 c 0,377,378
 177 518 177 518 175 522 c 1,379,-1
 175 522 l 1,380,381
 172 518 172 518 169 514 c 0,382,383
 154.9375 499.9375 154.9375 499.9375 135.6015625 499.9375 c 0,384,385
 134.3125 499.9375 134.3125 499.9375 133 500 c 256,386,387
 112 500 112 500 98 514 c 0,388,389
 94 518 94 518 92 522 c 1,390,-1
 92 522 l 1,391,392
 89 518 89 518 85 514 c 0,393,394
 70.9375 499.9375 70.9375 499.9375 52.48046875 499.9375 c 0,395,396
 51.25 499.9375 51.25 499.9375 50 500 c 1,397,-1
 50 500 l 1,263,264
50 600 m 1,398,399
 29 600 29 600 15 615 c 0,400,401
 0 630 0 630 0 650 c 256,402,403
 0 671 0 671 15 685 c 0,404,405
 30 700 30 700 50 700 c 256,406,407
 71 700 71 700 85 685 c 256,408,409
 100 670 100 670 100 650 c 256,410,411
 100 629 100 629 85 615 c 256,412,413
 70 600 70 600 50 600 c 1,414,-1
 50 600 l 1,398,399
550 600 m 1,415,416
 528 600 528 600 514 615 c 256,417,418
 499.9375 629.0625 499.9375 629.0625 499.9375 647.51953125 c 0,419,420
 499.9375 670.9375 499.9375 670.9375 514 685 c 256,421,422
 529 700 529 700 550 700 c 256,423,424
 571 700 571 700 585 685 c 0,425,426
 600 670 600 670 600 650 c 256,427,428
 600 629 600 629 585 615 c 0,429,430
 570 600 570 600 550 600 c 1,431,-1
 550 600 l 1,415,416
EndSplineSet
Validated: 524293
EndChar

StartChar: E
Encoding: 69 69 22
Width: 666
VWidth: 699
Flags: W
LayerCount: 2
Fore
SplineSet
50 100 m 1,0,1
 29 100 29 100 15 115 c 0,2,3
 0 130 0 130 0 150 c 256,4,5
 0 172 0 172 15 186 c 0,6,7
 29.0625 200.0625 29.0625 200.0625 47.51953125 200.0625 c 0,8,9
 48.75 200.0625 48.75 200.0625 50 200 c 256,10,11
 71 200 71 200 85 186 c 256,12,13
 100 171 100 171 100 150 c 256,14,15
 100 129 100 129 85 115 c 0,16,17
 70 100 70 100 50 100 c 1,18,-1
 50 100 l 1,0,1
550 100 m 1,19,20
 528 100 528 100 514 115 c 0,21,22
 499.9375 129.0625 499.9375 129.0625 499.9375 147.51953125 c 0,23,24
 499.9375 171.9375 499.9375 171.9375 514 186 c 256,25,26
 528.0625 200.0625 528.0625 200.0625 547.3984375 200.0625 c 0,27,28
 548.6875 200.0625 548.6875 200.0625 550 200 c 256,29,30
 571 200 571 200 585 186 c 0,31,32
 600 171 600 171 600 150 c 256,33,34
 600 129 600 129 585 115 c 0,35,36
 570 100 570 100 550 100 c 1,37,-1
 550 100 l 1,19,20
50 200 m 1,38,39
 29 200 29 200 15 214 c 0,40,41
 0 229 0 229 0 250 c 256,42,43
 0 271 0 271 15 285 c 0,44,45
 30 300 30 300 50 300 c 256,46,47
 71 300 71 300 85 285 c 256,48,49
 100 270 100 270 100 250 c 256,50,51
 100 229 100 229 85 214 c 0,52,53
 70.9375 199.9375 70.9375 199.9375 52.48046875 199.9375 c 0,54,55
 51.25 199.9375 51.25 199.9375 50 200 c 1,56,-1
 50 200 l 1,38,39
300 200 m 1,57,58
 279 200 279 200 265 214 c 0,59,60
 250 229 250 229 250 250 c 256,61,62
 250 271 250 271 265 285 c 256,63,64
 280 300 280 300 300 300 c 256,65,66
 321 300 321 300 335 285 c 0,67,68
 350 270 350 270 350 250 c 256,69,70
 350 229 350 229 335 214 c 0,71,72
 320.9375 199.9375 320.9375 199.9375 302.48046875 199.9375 c 0,73,74
 301.25 199.9375 301.25 199.9375 300 200 c 1,75,-1
 300 200 l 1,57,58
550 200 m 1,76,77
 528 200 528 200 514 214 c 128,-1,78
 499.9375 228.0625 499.9375 228.0625 499.9375 247.3984375 c 0,79,80
 499.9375 270.9375 499.9375 270.9375 514 285 c 256,81,82
 529 300 529 300 550 300 c 256,83,84
 571 300 571 300 585 285 c 0,85,86
 600 270 600 270 600 250 c 256,87,88
 600 229 600 229 585 214 c 0,89,90
 570.9375 199.9375 570.9375 199.9375 552.48046875 199.9375 c 0,91,92
 551.25 199.9375 551.25 199.9375 550 200 c 1,93,-1
 550 200 l 1,76,77
50 300 m 1,94,95
 29 300 29 300 15 314 c 0,96,97
 0 329 0 329 0 350 c 128,-1,98
 0 371 0 371 15 386 c 0,99,100
 29.0625 400.0625 29.0625 400.0625 47.51953125 400.0625 c 0,101,102
 48.75 400.0625 48.75 400.0625 50 400 c 256,103,104
 71 400 71 400 85 386 c 0,105,106
 100 371 100 371 100 350 c 128,-1,107
 100 329 100 329 85 314 c 0,108,109
 70.9375 299.9375 70.9375 299.9375 52.48046875 299.9375 c 0,110,111
 51.25 299.9375 51.25 299.9375 50 300 c 1,112,-1
 50 300 l 1,94,95
300 300 m 1,113,114
 279 300 279 300 265 314 c 0,115,116
 250 329 250 329 250 350 c 128,-1,117
 250 371 250 371 265 386 c 0,118,119
 279.0625 400.0625 279.0625 400.0625 297.51953125 400.0625 c 0,120,121
 298.75 400.0625 298.75 400.0625 300 400 c 256,122,123
 321 400 321 400 335 386 c 0,124,125
 350 371 350 371 350 350 c 128,-1,126
 350 329 350 329 335 314 c 0,127,128
 320.9375 299.9375 320.9375 299.9375 302.48046875 299.9375 c 0,129,130
 301.25 299.9375 301.25 299.9375 300 300 c 1,131,-1
 300 300 l 1,113,114
550 300 m 1,132,133
 528 300 528 300 514 314 c 128,-1,134
 499.9375 328.0625 499.9375 328.0625 499.9375 347.3984375 c 0,135,136
 499.9375 370.933035714 499.9375 370.933035714 514 386 c 0,137,138
 528.0625 400.0625 528.0625 400.0625 547.3984375 400.0625 c 0,139,140
 548.6875 400.0625 548.6875 400.0625 550 400 c 256,141,142
 571 400 571 400 585 386 c 0,143,144
 600 371 600 371 600 350 c 128,-1,145
 600 329 600 329 585 314 c 0,146,147
 570.9375 299.9375 570.9375 299.9375 552.48046875 299.9375 c 0,148,149
 551.25 299.9375 551.25 299.9375 550 300 c 1,150,-1
 550 300 l 1,132,133
50 400 m 1,151,152
 29 400 29 400 15 414 c 0,153,154
 0 429 0 429 0 450 c 256,155,156
 0 471 0 471 15 485 c 0,157,158
 30 500 30 500 50 500 c 256,159,160
 71 500 71 500 85 485 c 0,161,162
 100 470 100 470 100 450 c 256,163,164
 100 429 100 429 85 414 c 256,165,166
 70.9375 399.9375 70.9375 399.9375 52.48046875 399.9375 c 0,167,168
 51.25 399.9375 51.25 399.9375 50 400 c 1,169,-1
 50 400 l 1,151,152
300 400 m 1,170,171
 279 400 279 400 265 414 c 256,172,173
 250 429 250 429 250 450 c 256,174,175
 250 471 250 471 265 485 c 0,176,177
 280 500 280 500 300 500 c 256,178,179
 321 500 321 500 335 485 c 0,180,181
 350 470 350 470 350 450 c 256,182,183
 350 429 350 429 335 414 c 0,184,185
 320.9375 399.9375 320.9375 399.9375 302.48046875 399.9375 c 0,186,187
 301.25 399.9375 301.25 399.9375 300 400 c 1,188,-1
 300 400 l 1,170,171
550 400 m 1,189,190
 528 400 528 400 514 414 c 256,191,192
 499.9375 428.0625 499.9375 428.0625 499.9375 447.3984375 c 0,193,194
 499.9375 470.9375 499.9375 470.9375 514 485 c 0,195,196
 529 500 529 500 550 500 c 256,197,198
 571 500 571 500 585 485 c 0,199,200
 600 470 600 470 600 450 c 256,201,202
 600 429 600 429 585 414 c 0,203,204
 570.9375 399.9375 570.9375 399.9375 552.48046875 399.9375 c 0,205,206
 551.25 399.9375 551.25 399.9375 550 400 c 1,207,-1
 550 400 l 1,189,190
50 500 m 1,208,209
 29 500 29 500 15 514 c 0,210,211
 0 529 0 529 0 550 c 256,212,213
 0 571 0 571 15 585 c 0,214,215
 30 600 30 600 50 600 c 256,216,217
 71 600 71 600 85 585 c 0,218,219
 100 570 100 570 100 550 c 256,220,221
 100 528 100 528 85 514 c 256,222,223
 70.9375 499.9375 70.9375 499.9375 52.48046875 499.9375 c 0,224,225
 51.25 499.9375 51.25 499.9375 50 500 c 1,226,-1
 50 500 l 1,208,209
300 500 m 1,227,228
 279 500 279 500 265 514 c 256,229,230
 250 529 250 529 250 550 c 256,231,232
 250 571 250 571 265 585 c 0,233,234
 280 600 280 600 300 600 c 256,235,236
 321 600 321 600 335 585 c 0,237,238
 350 570 350 570 350 550 c 256,239,240
 350 528 350 528 335 514 c 0,241,242
 320.9375 499.9375 320.9375 499.9375 302.48046875 499.9375 c 0,243,244
 301.25 499.9375 301.25 499.9375 300 500 c 1,245,-1
 300 500 l 1,227,228
550 500 m 1,246,247
 528 500 528 500 514 514 c 256,248,249
 499.9375 528.0625 499.9375 528.0625 499.9375 547.3984375 c 0,250,251
 499.9375 570.9375 499.9375 570.9375 514 585 c 0,252,253
 529 600 529 600 550 600 c 256,254,255
 571 600 571 600 585 585 c 0,256,257
 600 570 600 570 600 550 c 256,258,259
 600 528 600 528 585 514 c 0,260,261
 570.9375 499.9375 570.9375 499.9375 552.48046875 499.9375 c 0,262,263
 551.25 499.9375 551.25 499.9375 550 500 c 1,264,-1
 550 500 l 1,246,247
92 622 m 1,265,-1
 92 622 l 1,266,-1
 92 622 l 1,267,-1
 92 622 l 1,268,-1
 92 622 l 1,265,-1
258 622 m 1,269,-1
 258 622 l 1,270,-1
 258 622 l 1,271,-1
 258 622 l 1,272,-1
 258 622 l 1,269,-1
425 622 m 1,273,-1
 425 622 l 1,274,-1
 425 622 l 1,275,-1
 425 622 l 1,276,-1
 425 622 l 1,273,-1
50 600 m 1,277,278
 29 600 29 600 15 615 c 0,279,280
 0 630 0 630 0 650 c 256,281,282
 0 671 0 671 15 685 c 0,283,284
 30 700 30 700 50 700 c 256,285,286
 71 700 71 700 85 685 c 0,287,288
 89 681 89 681 92 678 c 1,289,-1
 92 678 l 1,290,291
 95 682 95 682 98 685 c 0,292,293
 113 700 113 700 133 700 c 256,294,295
 154 700 154 700 169 685 c 0,296,297
 173 681 173 681 175 678 c 1,298,-1
 175 678 l 1,299,300
 178 682 178 682 181 685 c 0,301,302
 196 700 196 700 216 700 c 256,303,304
 237 700 237 700 252 685 c 0,305,306
 256 681 256 681 258 678 c 1,307,-1
 258 678 l 1,308,309
 261 682 261 682 265 685 c 0,310,311
 280 700 280 700 300 700 c 256,312,313
 321 700 321 700 335 685 c 0,314,315
 339 681 339 681 342 678 c 1,316,-1
 342 678 l 1,317,318
 345 682 345 682 348 685 c 0,319,320
 363 700 363 700 384 700 c 128,-1,321
 405 700 405 700 419 685 c 0,322,323
 423 681 423 681 425 678 c 1,324,-1
 425 678 l 1,325,326
 428 682 428 682 431 685 c 0,327,328
 446 700 446 700 467 700 c 256,329,330
 488 700 488 700 502 685 c 0,331,332
 506 681 506 681 508 678 c 1,333,-1
 508 678 l 1,334,335
 510 682 510 682 514 685 c 0,336,337
 529 700 529 700 550 700 c 256,338,339
 571 700 571 700 585 685 c 0,340,341
 600 670 600 670 600 650 c 256,342,343
 600 629 600 629 585 615 c 0,344,345
 570 600 570 600 550 600 c 256,346,347
 528 600 528 600 514 615 c 0,348,349
 510 619 510 619 508 622 c 1,350,351
 505 618 505 618 502 615 c 0,352,353
 487 600 487 600 467 600 c 256,354,355
 446 600 446 600 431 615 c 0,356,357
 427 619 427 619 425 622 c 1,358,359
 422 618 422 618 419 615 c 0,360,361
 404 600 404 600 384 600 c 0,362,363
 363 600 363 600 348 615 c 0,364,365
 344 619 344 619 342 622 c 1,366,367
 339 618 339 618 335 615 c 0,368,369
 320 600 320 600 300 600 c 256,370,371
 279 600 279 600 265 615 c 0,372,373
 261 619 261 619 258 622 c 1,374,-1
 258 622 l 1,375,376
 255 618 255 618 252 615 c 0,377,378
 237 600 237 600 216 600 c 256,379,380
 195 600 195 600 181 615 c 0,381,382
 177 619 177 619 175 622 c 1,383,-1
 175 622 l 1,384,385
 172 618 172 618 169 615 c 0,386,387
 154 600 154 600 133 600 c 256,388,389
 112 600 112 600 98 615 c 0,390,391
 94 619 94 619 92 622 c 1,392,393
 89 618 89 618 85 615 c 0,394,395
 70 600 70 600 50 600 c 1,396,-1
 50 600 l 1,277,278
EndSplineSet
Validated: 524293
EndChar

StartChar: F
Encoding: 70 70 23
Width: 666
VWidth: 699
Flags: W
LayerCount: 2
Fore
SplineSet
550 100 m 1,0,1
 528 100 528 100 514 115 c 0,2,3
 499.9375 129.0625 499.9375 129.0625 499.9375 147.51953125 c 0,4,5
 499.9375 171.9375 499.9375 171.9375 514 186 c 256,6,7
 528.0625 200.0625 528.0625 200.0625 547.3984375 200.0625 c 0,8,9
 548.6875 200.0625 548.6875 200.0625 550 200 c 256,10,11
 571 200 571 200 585 186 c 0,12,13
 600 171 600 171 600 150 c 256,14,15
 600 129 600 129 585 115 c 0,16,17
 570 100 570 100 550 100 c 1,18,-1
 550 100 l 1,0,1
300 200 m 1,19,20
 279 200 279 200 265 214 c 0,21,22
 250 229 250 229 250 250 c 256,23,24
 250 271 250 271 265 285 c 256,25,26
 280 300 280 300 300 300 c 256,27,28
 321 300 321 300 335 285 c 0,29,30
 350 270 350 270 350 250 c 256,31,32
 350 229 350 229 335 214 c 0,33,34
 320.9375 199.9375 320.9375 199.9375 302.48046875 199.9375 c 0,35,36
 301.25 199.9375 301.25 199.9375 300 200 c 1,37,-1
 300 200 l 1,19,20
550 200 m 1,38,39
 528 200 528 200 514 214 c 128,-1,40
 499.9375 228.0625 499.9375 228.0625 499.9375 247.3984375 c 0,41,42
 499.9375 270.9375 499.9375 270.9375 514 285 c 256,43,44
 529 300 529 300 550 300 c 256,45,46
 571 300 571 300 585 285 c 0,47,48
 600 270 600 270 600 250 c 256,49,50
 600 229 600 229 585 214 c 0,51,52
 570.9375 199.9375 570.9375 199.9375 552.48046875 199.9375 c 0,53,54
 551.25 199.9375 551.25 199.9375 550 200 c 1,55,-1
 550 200 l 1,38,39
300 300 m 1,56,57
 279 300 279 300 265 314 c 0,58,59
 250 329 250 329 250 350 c 128,-1,60
 250 371 250 371 265 386 c 0,61,62
 279.0625 400.0625 279.0625 400.0625 297.51953125 400.0625 c 0,63,64
 298.75 400.0625 298.75 400.0625 300 400 c 256,65,66
 321 400 321 400 335 386 c 0,67,68
 350 371 350 371 350 350 c 128,-1,69
 350 329 350 329 335 314 c 0,70,71
 320.9375 299.9375 320.9375 299.9375 302.48046875 299.9375 c 0,72,73
 301.25 299.9375 301.25 299.9375 300 300 c 1,74,-1
 300 300 l 1,56,57
550 300 m 1,75,76
 528 300 528 300 514 314 c 128,-1,77
 499.9375 328.0625 499.9375 328.0625 499.9375 347.3984375 c 0,78,79
 499.9375 370.933035714 499.9375 370.933035714 514 386 c 0,80,81
 528.0625 400.0625 528.0625 400.0625 547.3984375 400.0625 c 0,82,83
 548.6875 400.0625 548.6875 400.0625 550 400 c 256,84,85
 571 400 571 400 585 386 c 0,86,87
 600 371 600 371 600 350 c 128,-1,88
 600 329 600 329 585 314 c 0,89,90
 570.9375 299.9375 570.9375 299.9375 552.48046875 299.9375 c 0,91,92
 551.25 299.9375 551.25 299.9375 550 300 c 1,93,-1
 550 300 l 1,75,76
300 400 m 1,94,95
 279 400 279 400 265 414 c 256,96,97
 250 429 250 429 250 450 c 256,98,99
 250 471 250 471 265 485 c 0,100,101
 280 500 280 500 300 500 c 256,102,103
 321 500 321 500 335 485 c 0,104,105
 350 470 350 470 350 450 c 256,106,107
 350 429 350 429 335 414 c 0,108,109
 320.9375 399.9375 320.9375 399.9375 302.48046875 399.9375 c 0,110,111
 301.25 399.9375 301.25 399.9375 300 400 c 1,112,-1
 300 400 l 1,94,95
550 400 m 1,113,114
 528 400 528 400 514 414 c 256,115,116
 499.9375 428.0625 499.9375 428.0625 499.9375 447.3984375 c 0,117,118
 499.9375 470.9375 499.9375 470.9375 514 485 c 0,119,120
 529 500 529 500 550 500 c 256,121,122
 571 500 571 500 585 485 c 0,123,124
 600 470 600 470 600 450 c 256,125,126
 600 429 600 429 585 414 c 0,127,128
 570.9375 399.9375 570.9375 399.9375 552.48046875 399.9375 c 0,129,130
 551.25 399.9375 551.25 399.9375 550 400 c 1,131,-1
 550 400 l 1,113,114
300 500 m 1,132,133
 279 500 279 500 265 514 c 256,134,135
 250 529 250 529 250 550 c 256,136,137
 250 571 250 571 265 585 c 0,138,139
 280 600 280 600 300 600 c 256,140,141
 321 600 321 600 335 585 c 0,142,143
 350 570 350 570 350 550 c 256,144,145
 350 528 350 528 335 514 c 0,146,147
 320.9375 499.9375 320.9375 499.9375 302.48046875 499.9375 c 0,148,149
 301.25 499.9375 301.25 499.9375 300 500 c 1,150,-1
 300 500 l 1,132,133
550 500 m 1,151,152
 528 500 528 500 514 514 c 256,153,154
 499.9375 528.0625 499.9375 528.0625 499.9375 547.3984375 c 0,155,156
 499.9375 570.9375 499.9375 570.9375 514 585 c 0,157,158
 529 600 529 600 550 600 c 256,159,160
 571 600 571 600 585 585 c 0,161,162
 600 570 600 570 600 550 c 256,163,164
 600 528 600 528 585 514 c 0,165,166
 570.9375 499.9375 570.9375 499.9375 552.48046875 499.9375 c 0,167,168
 551.25 499.9375 551.25 499.9375 550 500 c 1,169,-1
 550 500 l 1,151,152
92 622 m 1,170,-1
 92 622 l 1,171,-1
 92 622 l 1,172,-1
 92 622 l 1,173,-1
 92 622 l 1,170,-1
175 622 m 1,174,-1
 175 622 l 1,175,-1
 175 622 l 1,176,-1
 175 622 l 1,177,-1
 175 622 l 1,174,-1
342 622 m 1,178,-1
 342 622 l 1,179,-1
 342 622 l 1,180,-1
 342 622 l 1,181,-1
 342 622 l 1,178,-1
508 622 m 1,182,-1
 508 622 l 1,183,-1
 508 622 l 1,184,-1
 508 622 l 1,185,-1
 508 622 l 1,182,-1
50 600 m 1,186,187
 29 600 29 600 15 615 c 0,188,189
 0 630 0 630 0 650 c 256,190,191
 0 671 0 671 15 685 c 0,192,193
 30 700 30 700 50 700 c 256,194,195
 71 700 71 700 85 685 c 0,196,197
 89 681 89 681 92 678 c 1,198,-1
 92 678 l 1,199,200
 95 682 95 682 98 685 c 0,201,202
 113 700 113 700 133 700 c 256,203,204
 154 700 154 700 169 685 c 0,205,206
 173 681 173 681 175 678 c 1,207,-1
 175 678 l 1,208,209
 178 682 178 682 181 685 c 0,210,211
 196 700 196 700 216 700 c 256,212,213
 237 700 237 700 252 685 c 0,214,215
 256 681 256 681 258 678 c 1,216,-1
 258 678 l 1,217,218
 261 682 261 682 265 685 c 0,219,220
 280 700 280 700 300 700 c 256,221,222
 321 700 321 700 335 685 c 0,223,224
 339 681 339 681 342 678 c 1,225,-1
 342 678 l 1,226,227
 345 682 345 682 348 685 c 0,228,229
 363 700 363 700 384 700 c 128,-1,230
 405 700 405 700 419 685 c 0,231,232
 423 681 423 681 425 678 c 1,233,-1
 425 678 l 1,234,235
 428 682 428 682 431 685 c 0,236,237
 446 700 446 700 467 700 c 256,238,239
 488 700 488 700 502 685 c 0,240,241
 506 681 506 681 508 678 c 1,242,-1
 508 678 l 1,243,244
 510 682 510 682 514 685 c 0,245,246
 529 700 529 700 550 700 c 256,247,248
 571 700 571 700 585 685 c 0,249,250
 600 670 600 670 600 650 c 256,251,252
 600 629 600 629 585 615 c 0,253,254
 570 600 570 600 550 600 c 256,255,256
 528 600 528 600 514 615 c 0,257,258
 510 619 510 619 508 622 c 1,259,260
 505 618 505 618 502 615 c 0,261,262
 487 600 487 600 467 600 c 256,263,264
 446 600 446 600 431 615 c 0,265,266
 427 619 427 619 425 622 c 1,267,268
 422 618 422 618 419 615 c 0,269,270
 404 600 404 600 384 600 c 0,271,272
 363 600 363 600 348 615 c 0,273,274
 344 619 344 619 342 622 c 1,275,276
 339 618 339 618 335 615 c 0,277,278
 320 600 320 600 300 600 c 256,279,280
 279 600 279 600 265 615 c 0,281,282
 261 619 261 619 258 622 c 1,283,-1
 258 622 l 1,284,285
 255 618 255 618 252 615 c 0,286,287
 237 600 237 600 216 600 c 256,288,289
 195 600 195 600 181 615 c 0,290,291
 177 619 177 619 175 622 c 1,292,-1
 175 622 l 1,293,294
 172 618 172 618 169 615 c 0,295,296
 154 600 154 600 133 600 c 256,297,298
 112 600 112 600 98 615 c 0,299,300
 94 619 94 619 92 622 c 1,301,-1
 92 622 l 1,302,303
 89 618 89 618 85 615 c 0,304,305
 70 600 70 600 50 600 c 1,306,-1
 50 600 l 1,186,187
EndSplineSet
Validated: 524293
EndChar

StartChar: G
Encoding: 71 71 24
Width: 666
VWidth: 699
Flags: W
LayerCount: 2
Fore
SplineSet
175 22 m 1,0,1
 175 22 l 1,2,-1
 175 22 l 1,3,4
 175 22 l 1,5,-1
 175 22 l 1,0,1
133 0 m 1,6,7
 112 0 112 0 98 15 c 0,8,9
 83 30 83 30 83 50 c 256,10,11
 83 71 83 71 98 85 c 256,12,13
 113 100 113 100 133 100 c 256,14,15
 154 100 154 100 169 85 c 0,16,17
 173 81 173 81 175 78 c 1,18,-1
 175 78 l 1,19,20
 178 82 178 82 181 85 c 0,21,22
 196 100 196 100 216 100 c 256,23,24
 237 100 237 100 252 85 c 0,25,26
 256 81 256 81 258 78 c 1,27,-1
 258 78 l 1,28,29
 261 82 261 82 265 85 c 0,30,31
 280 100 280 100 300 100 c 256,32,33
 321 100 321 100 335 85 c 0,34,35
 350 70 350 70 350 50 c 256,36,37
 350 29 350 29 335 15 c 0,38,39
 320 0 320 0 300 0 c 256,40,41
 279 0 279 0 265 15 c 0,42,43
 261 19 261 19 258 22 c 1,44,45
 255 18 255 18 252 15 c 0,46,47
 237 0 237 0 216 0 c 256,48,49
 195 0 195 0 181 15 c 0,50,51
 177 19 177 19 175 22 c 1,52,53
 172 18 172 18 169 15 c 0,54,55
 154 0 154 0 133 0 c 1,56,-1
 133 0 l 1,6,7
467 0 m 1,57,58
 446 0 446 0 431 15 c 128,-1,59
 416 30 416 30 416 50 c 256,60,61
 416 71 416 71 431 85 c 0,62,63
 446 100 446 100 467 100 c 256,64,65
 488 100 488 100 502 85 c 256,66,67
 517 70 517 70 517 50 c 256,68,69
 517 29 517 29 502 15 c 0,70,71
 487 0 487 0 467 0 c 1,72,-1
 467 0 l 1,57,58
50 100 m 1,73,74
 29 100 29 100 15 115 c 0,75,76
 0 130 0 130 0 150 c 256,77,78
 0 172 0 172 15 186 c 0,79,80
 29.0625 200.0625 29.0625 200.0625 47.51953125 200.0625 c 0,81,82
 48.75 200.0625 48.75 200.0625 50 200 c 256,83,84
 71 200 71 200 85 186 c 256,85,86
 100 171 100 171 100 150 c 256,87,88
 100 129 100 129 85 115 c 0,89,90
 70 100 70 100 50 100 c 1,91,-1
 50 100 l 1,73,74
300 100 m 1,92,93
 279 100 279 100 265 115 c 0,94,95
 250 130 250 130 250 150 c 256,96,97
 250 172 250 172 265 186 c 256,98,99
 279.0625 200.0625 279.0625 200.0625 297.51953125 200.0625 c 0,100,101
 298.75 200.0625 298.75 200.0625 300 200 c 256,102,103
 321 200 321 200 335 186 c 0,104,105
 350 171 350 171 350 150 c 256,106,107
 350 129 350 129 335 115 c 0,108,109
 320 100 320 100 300 100 c 1,110,-1
 300 100 l 1,92,93
550 100 m 1,111,112
 528 100 528 100 514 115 c 0,113,114
 499.9375 129.0625 499.9375 129.0625 499.9375 147.51953125 c 0,115,116
 499.9375 171.9375 499.9375 171.9375 514 186 c 256,117,118
 528.0625 200.0625 528.0625 200.0625 547.3984375 200.0625 c 0,119,120
 548.6875 200.0625 548.6875 200.0625 550 200 c 256,121,122
 571 200 571 200 585 186 c 0,123,124
 600 171 600 171 600 150 c 256,125,126
 600 129 600 129 585 115 c 0,127,128
 570 100 570 100 550 100 c 1,129,-1
 550 100 l 1,111,112
50 200 m 1,130,131
 29 200 29 200 15 214 c 0,132,133
 0 229 0 229 0 250 c 256,134,135
 0 271 0 271 15 285 c 0,136,137
 30 300 30 300 50 300 c 256,138,139
 71 300 71 300 85 285 c 256,140,141
 100 270 100 270 100 250 c 256,142,143
 100 229 100 229 85 214 c 0,144,145
 70.9375 199.9375 70.9375 199.9375 52.48046875 199.9375 c 0,146,147
 51.25 199.9375 51.25 199.9375 50 200 c 1,148,-1
 50 200 l 1,130,131
300 200 m 1,149,150
 279 200 279 200 265 214 c 0,151,152
 250 229 250 229 250 250 c 256,153,154
 250 271 250 271 265 285 c 256,155,156
 280 300 280 300 300 300 c 256,157,158
 321 300 321 300 335 285 c 0,159,160
 350 270 350 270 350 250 c 256,161,162
 350 229 350 229 335 214 c 0,163,164
 320.9375 199.9375 320.9375 199.9375 302.48046875 199.9375 c 0,165,166
 301.25 199.9375 301.25 199.9375 300 200 c 1,167,-1
 300 200 l 1,149,150
550 200 m 1,168,169
 528 200 528 200 514 214 c 128,-1,170
 499.9375 228.0625 499.9375 228.0625 499.9375 247.3984375 c 0,171,172
 499.9375 270.9375 499.9375 270.9375 514 285 c 256,173,174
 529 300 529 300 550 300 c 256,175,176
 571 300 571 300 585 285 c 0,177,178
 600 270 600 270 600 250 c 256,179,180
 600 229 600 229 585 214 c 0,181,182
 570.9375 199.9375 570.9375 199.9375 552.48046875 199.9375 c 0,183,184
 551.25 199.9375 551.25 199.9375 550 200 c 1,185,-1
 550 200 l 1,168,169
50 300 m 1,186,187
 29 300 29 300 15 314 c 0,188,189
 0 329 0 329 0 350 c 128,-1,190
 0 371 0 371 15 386 c 0,191,192
 29.0625 400.0625 29.0625 400.0625 47.51953125 400.0625 c 0,193,194
 48.75 400.0625 48.75 400.0625 50 400 c 256,195,196
 71 400 71 400 85 386 c 0,197,198
 100 371 100 371 100 350 c 128,-1,199
 100 329 100 329 85 314 c 0,200,201
 70.9375 299.9375 70.9375 299.9375 52.48046875 299.9375 c 0,202,203
 51.25 299.9375 51.25 299.9375 50 300 c 1,204,-1
 50 300 l 1,186,187
300 300 m 1,205,206
 279 300 279 300 265 314 c 0,207,208
 250 329 250 329 250 350 c 128,-1,209
 250 371 250 371 265 386 c 0,210,211
 279.0625 400.0625 279.0625 400.0625 297.51953125 400.0625 c 0,212,213
 298.75 400.0625 298.75 400.0625 300 400 c 256,214,215
 321 400 321 400 335 386 c 0,216,217
 350 371 350 371 350 350 c 128,-1,218
 350 329 350 329 335 314 c 0,219,220
 320.9375 299.9375 320.9375 299.9375 302.48046875 299.9375 c 0,221,222
 301.25 299.9375 301.25 299.9375 300 300 c 1,223,-1
 300 300 l 1,205,206
550 300 m 1,224,225
 528 300 528 300 514 314 c 128,-1,226
 499.9375 328.0625 499.9375 328.0625 499.9375 347.3984375 c 0,227,228
 499.9375 370.933035714 499.9375 370.933035714 514 386 c 0,229,230
 528.0625 400.0625 528.0625 400.0625 547.3984375 400.0625 c 0,231,232
 548.6875 400.0625 548.6875 400.0625 550 400 c 256,233,234
 571 400 571 400 585 386 c 0,235,236
 600 371 600 371 600 350 c 128,-1,237
 600 329 600 329 585 314 c 0,238,239
 570.9375 299.9375 570.9375 299.9375 552.48046875 299.9375 c 0,240,241
 551.25 299.9375 551.25 299.9375 550 300 c 1,242,-1
 550 300 l 1,224,225
50 400 m 1,243,244
 29 400 29 400 15 414 c 0,245,246
 0 429 0 429 0 450 c 256,247,248
 0 471 0 471 15 485 c 0,249,250
 30 500 30 500 50 500 c 256,251,252
 71 500 71 500 85 485 c 0,253,254
 100 470 100 470 100 450 c 256,255,256
 100 429 100 429 85 414 c 256,257,258
 70.9375 399.9375 70.9375 399.9375 52.48046875 399.9375 c 0,259,260
 51.25 399.9375 51.25 399.9375 50 400 c 1,261,-1
 50 400 l 1,243,244
550 400 m 1,262,263
 528 400 528 400 514 414 c 256,264,265
 499.9375 428.0625 499.9375 428.0625 499.9375 447.3984375 c 0,266,267
 499.9375 470.9375 499.9375 470.9375 514 485 c 0,268,269
 529 500 529 500 550 500 c 256,270,271
 571 500 571 500 585 485 c 0,272,273
 600 470 600 470 600 450 c 256,274,275
 600 429 600 429 585 414 c 0,276,277
 570.9375 399.9375 570.9375 399.9375 552.48046875 399.9375 c 0,278,279
 551.25 399.9375 551.25 399.9375 550 400 c 1,280,-1
 550 400 l 1,262,263
133 500 m 1,281,282
 112 500 112 500 98 514 c 256,283,284
 83 529 83 529 83 550 c 256,285,286
 83 571 83 571 98 585 c 0,287,288
 113 600 113 600 133 600 c 256,289,290
 154 600 154 600 169 585 c 0,291,292
 183.0625 570.9375 183.0625 570.9375 183.0625 552.48046875 c 0,293,294
 183.0625 528.0625 183.0625 528.0625 169 514 c 128,-1,295
 154.9375 499.9375 154.9375 499.9375 135.6015625 499.9375 c 0,296,297
 134.3125 499.9375 134.3125 499.9375 133 500 c 1,298,-1
 133 500 l 1,281,282
467 500 m 1,299,300
 446 500 446 500 431 514 c 0,301,302
 416 529 416 529 416 550 c 256,303,304
 416 571 416 571 431 585 c 0,305,306
 446 600 446 600 467 600 c 256,307,308
 488 600 488 600 502 585 c 0,309,310
 517 570 517 570 517 550 c 256,311,312
 517 528 517 528 502 514 c 256,313,314
 487.9375 499.9375 487.9375 499.9375 469.48046875 499.9375 c 0,315,316
 468.25 499.9375 468.25 499.9375 467 500 c 1,317,-1
 467 500 l 1,299,300
258 622 m 1,318,-1
 258 622 l 1,319,-1
 258 622 l 1,320,-1
 258 622 l 1,321,-1
 258 622 l 1,318,-1
342 622 m 1,322,-1
 342 622 l 1,323,-1
 342 622 l 1,324,-1
 342 622 l 1,325,-1
 342 622 l 1,322,-1
216 600 m 1,326,327
 195 600 195 600 181 615 c 0,328,329
 166.9375 629.0625 166.9375 629.0625 166.9375 647.51953125 c 0,330,331
 166.9375 670.9375 166.9375 670.9375 181 685 c 0,332,333
 196 700 196 700 216 700 c 256,334,335
 237 700 237 700 252 685 c 0,336,337
 256 681 256 681 258 678 c 1,338,-1
 258 678 l 1,339,340
 261 682 261 682 265 685 c 0,341,342
 280 700 280 700 300 700 c 256,343,344
 321 700 321 700 335 685 c 0,345,346
 339 681 339 681 342 678 c 1,347,-1
 342 678 l 1,348,349
 345 682 345 682 348 685 c 0,350,351
 363 700 363 700 384 700 c 128,-1,352
 405 700 405 700 419 685 c 0,353,354
 433.0625 670.9375 433.0625 670.9375 433.0625 652.48046875 c 0,355,356
 433.0625 629.0625 433.0625 629.0625 419 615 c 0,357,358
 404 600 404 600 384 600 c 0,359,360
 363 600 363 600 348 615 c 0,361,362
 344 619 344 619 342 622 c 1,363,364
 339 618 339 618 335 615 c 0,365,366
 320 600 320 600 300 600 c 256,367,368
 279 600 279 600 265 615 c 0,369,370
 261 619 261 619 258 622 c 1,371,-1
 258 622 l 1,372,373
 255 618 255 618 252 615 c 0,374,375
 237 600 237 600 216 600 c 1,376,-1
 216 600 l 1,326,327
EndSplineSet
Validated: 524293
EndChar

StartChar: H
Encoding: 72 72 25
Width: 666
VWidth: 699
Flags: W
LayerCount: 2
Fore
SplineSet
425 22 m 1,0,1
 425 22 l 1,2,-1
 425 22 l 1,3,4
 425 22 l 1,5,-1
 425 22 l 1,0,1
92 22 m 1,6,7
 92 22 l 1,8,-1
 92 22 l 1,9,10
 92 22 l 1,11,-1
 92 22 l 1,6,7
258 22 m 1,12,13
 258 22 l 1,14,-1
 258 22 l 1,15,16
 258 22 l 1,17,-1
 258 22 l 1,12,13
50 0 m 1,18,19
 29 0 29 0 15 15 c 0,20,21
 0 30 0 30 0 50 c 256,22,23
 0 71 0 71 15 85 c 0,24,25
 30 100 30 100 50 100 c 256,26,27
 71 100 71 100 85 85 c 0,28,29
 89 81 89 81 92 78 c 1,30,-1
 92 78 l 1,31,32
 95 82 95 82 98 85 c 0,33,34
 113 100 113 100 133 100 c 256,35,36
 154 100 154 100 169 85 c 0,37,38
 173 81 173 81 175 78 c 1,39,-1
 175 78 l 1,40,41
 178 82 178 82 181 85 c 0,42,43
 196 100 196 100 216 100 c 256,44,45
 237 100 237 100 252 85 c 0,46,47
 256 81 256 81 258 78 c 1,48,-1
 258 78 l 1,49,50
 261 82 261 82 265 85 c 0,51,52
 280 100 280 100 300 100 c 256,53,54
 321 100 321 100 335 85 c 0,55,56
 339 81 339 81 342 78 c 1,57,-1
 342 78 l 1,58,59
 345 82 345 82 348 85 c 0,60,61
 363 100 363 100 384 100 c 128,-1,62
 405 100 405 100 419 85 c 0,63,64
 423 81 423 81 425 78 c 1,65,-1
 425 78 l 1,66,67
 428 82 428 82 431 85 c 0,68,69
 446 100 446 100 467 100 c 256,70,71
 488 100 488 100 502 85 c 0,72,73
 506 81 506 81 508 78 c 1,74,-1
 508 78 l 1,75,76
 510 82 510 82 514 85 c 0,77,78
 529 100 529 100 550 100 c 256,79,80
 571 100 571 100 585 85 c 0,81,82
 600 70 600 70 600 50 c 256,83,84
 600 29 600 29 585 15 c 0,85,86
 570 0 570 0 550 0 c 256,87,88
 528 0 528 0 514 15 c 0,89,90
 510 19 510 19 508 22 c 1,91,92
 505 18 505 18 502 15 c 0,93,94
 487 0 487 0 467 0 c 256,95,96
 446 0 446 0 431 15 c 0,97,98
 427 19 427 19 425 22 c 1,99,100
 422 18 422 18 419 15 c 0,101,102
 404 0 404 0 384 0 c 0,103,104
 363 0 363 0 348 15 c 0,105,106
 344 19 344 19 342 22 c 1,107,-1
 342 22 l 1,108,109
 339 18 339 18 335 15 c 0,110,111
 320 0 320 0 300 0 c 256,112,113
 279 0 279 0 265 15 c 0,114,115
 261 19 261 19 258 22 c 1,116,117
 255 18 255 18 252 15 c 0,118,119
 237 0 237 0 216 0 c 256,120,121
 195 0 195 0 181 15 c 0,122,123
 177 19 177 19 175 22 c 1,124,-1
 175 22 l 1,125,126
 172 18 172 18 169 15 c 0,127,128
 154 0 154 0 133 0 c 256,129,130
 112 0 112 0 98 15 c 0,131,132
 94 19 94 19 92 22 c 1,133,134
 89 18 89 18 85 15 c 0,135,136
 70 0 70 0 50 0 c 1,137,-1
 50 0 l 1,18,19
300 100 m 1,138,139
 279 100 279 100 265 115 c 0,140,141
 250 130 250 130 250 150 c 256,142,143
 250 172 250 172 265 186 c 256,144,145
 279.0625 200.0625 279.0625 200.0625 297.51953125 200.0625 c 0,146,147
 298.75 200.0625 298.75 200.0625 300 200 c 256,148,149
 321 200 321 200 335 186 c 0,150,151
 350 171 350 171 350 150 c 256,152,153
 350 129 350 129 335 115 c 0,154,155
 320 100 320 100 300 100 c 1,156,-1
 300 100 l 1,138,139
300 200 m 1,157,158
 279 200 279 200 265 214 c 0,159,160
 250 229 250 229 250 250 c 256,161,162
 250 271 250 271 265 285 c 256,163,164
 280 300 280 300 300 300 c 256,165,166
 321 300 321 300 335 285 c 0,167,168
 350 270 350 270 350 250 c 256,169,170
 350 229 350 229 335 214 c 0,171,172
 320.9375 199.9375 320.9375 199.9375 302.48046875 199.9375 c 0,173,174
 301.25 199.9375 301.25 199.9375 300 200 c 1,175,-1
 300 200 l 1,157,158
300 300 m 1,176,177
 279 300 279 300 265 314 c 0,178,179
 250 329 250 329 250 350 c 128,-1,180
 250 371 250 371 265 386 c 0,181,182
 279.0625 400.0625 279.0625 400.0625 297.51953125 400.0625 c 0,183,184
 298.75 400.0625 298.75 400.0625 300 400 c 256,185,186
 321 400 321 400 335 386 c 0,187,188
 350 371 350 371 350 350 c 128,-1,189
 350 329 350 329 335 314 c 0,190,191
 320.9375 299.9375 320.9375 299.9375 302.48046875 299.9375 c 0,192,193
 301.25 299.9375 301.25 299.9375 300 300 c 1,194,-1
 300 300 l 1,176,177
300 400 m 1,195,196
 279 400 279 400 265 414 c 256,197,198
 250 429 250 429 250 450 c 256,199,200
 250 471 250 471 265 485 c 0,201,202
 280 500 280 500 300 500 c 256,203,204
 321 500 321 500 335 485 c 0,205,206
 350 470 350 470 350 450 c 256,207,208
 350 429 350 429 335 414 c 0,209,210
 320.9375 399.9375 320.9375 399.9375 302.48046875 399.9375 c 0,211,212
 301.25 399.9375 301.25 399.9375 300 400 c 1,213,-1
 300 400 l 1,195,196
300 500 m 1,214,215
 279 500 279 500 265 514 c 256,216,217
 250 529 250 529 250 550 c 256,218,219
 250 571 250 571 265 585 c 0,220,221
 280 600 280 600 300 600 c 256,222,223
 321 600 321 600 335 585 c 0,224,225
 350 570 350 570 350 550 c 256,226,227
 350 528 350 528 335 514 c 0,228,229
 320.9375 499.9375 320.9375 499.9375 302.48046875 499.9375 c 0,230,231
 301.25 499.9375 301.25 499.9375 300 500 c 1,232,-1
 300 500 l 1,214,215
92 622 m 1,233,-1
 92 622 l 1,234,-1
 92 622 l 1,235,-1
 92 622 l 1,236,-1
 92 622 l 1,233,-1
258 622 m 1,237,-1
 258 622 l 1,238,-1
 258 622 l 1,239,-1
 258 622 l 1,240,-1
 258 622 l 1,237,-1
425 622 m 1,241,-1
 425 622 l 1,242,-1
 425 622 l 1,243,-1
 425 622 l 1,244,-1
 425 622 l 1,241,-1
50 600 m 1,245,246
 29 600 29 600 15 615 c 0,247,248
 0 630 0 630 0 650 c 256,249,250
 0 671 0 671 15 685 c 0,251,252
 30 700 30 700 50 700 c 256,253,254
 71 700 71 700 85 685 c 0,255,256
 89 681 89 681 92 678 c 1,257,-1
 92 678 l 1,258,259
 95 682 95 682 98 685 c 0,260,261
 113 700 113 700 133 700 c 256,262,263
 154 700 154 700 169 685 c 0,264,265
 173 681 173 681 175 678 c 1,266,-1
 175 678 l 1,267,268
 178 682 178 682 181 685 c 0,269,270
 196 700 196 700 216 700 c 256,271,272
 237 700 237 700 252 685 c 0,273,274
 256 681 256 681 258 678 c 1,275,-1
 258 678 l 1,276,277
 261 682 261 682 265 685 c 0,278,279
 280 700 280 700 300 700 c 256,280,281
 321 700 321 700 335 685 c 0,282,283
 339 681 339 681 342 678 c 1,284,-1
 342 678 l 1,285,286
 345 682 345 682 348 685 c 0,287,288
 363 700 363 700 384 700 c 128,-1,289
 405 700 405 700 419 685 c 0,290,291
 423 681 423 681 425 678 c 1,292,-1
 425 678 l 1,293,294
 428 682 428 682 431 685 c 0,295,296
 446 700 446 700 467 700 c 256,297,298
 488 700 488 700 502 685 c 0,299,300
 506 681 506 681 508 678 c 1,301,-1
 508 678 l 1,302,303
 510 682 510 682 514 685 c 0,304,305
 529 700 529 700 550 700 c 256,306,307
 571 700 571 700 585 685 c 0,308,309
 600 670 600 670 600 650 c 256,310,311
 600 629 600 629 585 615 c 0,312,313
 570 600 570 600 550 600 c 256,314,315
 528 600 528 600 514 615 c 0,316,317
 510 619 510 619 508 622 c 1,318,319
 505 618 505 618 502 615 c 0,320,321
 487 600 487 600 467 600 c 256,322,323
 446 600 446 600 431 615 c 0,324,325
 427 619 427 619 425 622 c 1,326,327
 422 618 422 618 419 615 c 0,328,329
 404 600 404 600 384 600 c 0,330,331
 363 600 363 600 348 615 c 0,332,333
 344 619 344 619 342 622 c 1,334,-1
 342 622 l 1,335,336
 339 618 339 618 335 615 c 0,337,338
 320 600 320 600 300 600 c 256,339,340
 279 600 279 600 265 615 c 0,341,342
 261 619 261 619 258 622 c 1,343,-1
 258 622 l 1,344,345
 255 618 255 618 252 615 c 0,346,347
 237 600 237 600 216 600 c 256,348,349
 195 600 195 600 181 615 c 0,350,351
 177 619 177 619 175 622 c 1,352,-1
 175 622 l 1,353,354
 172 618 172 618 169 615 c 0,355,356
 154 600 154 600 133 600 c 256,357,358
 112 600 112 600 98 615 c 0,359,360
 94 619 94 619 92 622 c 1,361,362
 89 618 89 618 85 615 c 0,363,364
 70 600 70 600 50 600 c 1,365,-1
 50 600 l 1,245,246
EndSplineSet
Validated: 524293
EndChar

StartChar: I
Encoding: 73 73 26
Width: 666
VWidth: 699
Flags: W
LayerCount: 2
Fore
SplineSet
50 100 m 1,0,1
 29 100 29 100 15 115 c 0,2,3
 0 130 0 130 0 150 c 256,4,5
 0 172 0 172 15 186 c 0,6,7
 29.0625 200.0625 29.0625 200.0625 47.51953125 200.0625 c 0,8,9
 48.75 200.0625 48.75 200.0625 50 200 c 256,10,11
 71 200 71 200 85 186 c 256,12,13
 100 171 100 171 100 150 c 256,14,15
 100 129 100 129 85 115 c 0,16,17
 70 100 70 100 50 100 c 1,18,-1
 50 100 l 1,0,1
550 100 m 1,19,20
 528 100 528 100 514 115 c 0,21,22
 499.9375 129.0625 499.9375 129.0625 499.9375 147.51953125 c 0,23,24
 499.9375 171.9375 499.9375 171.9375 514 186 c 256,25,26
 528.0625 200.0625 528.0625 200.0625 547.3984375 200.0625 c 0,27,28
 548.6875 200.0625 548.6875 200.0625 550 200 c 256,29,30
 571 200 571 200 585 186 c 0,31,32
 600 171 600 171 600 150 c 256,33,34
 600 129 600 129 585 115 c 0,35,36
 570 100 570 100 550 100 c 1,37,-1
 550 100 l 1,19,20
50 200 m 1,38,39
 29 200 29 200 15 214 c 0,40,41
 0 229 0 229 0 250 c 256,42,43
 0 271 0 271 15 285 c 0,44,45
 30 300 30 300 50 300 c 256,46,47
 71 300 71 300 85 285 c 256,48,49
 100 270 100 270 100 250 c 256,50,51
 100 229 100 229 85 214 c 0,52,53
 70.9375 199.9375 70.9375 199.9375 52.48046875 199.9375 c 0,54,55
 51.25 199.9375 51.25 199.9375 50 200 c 1,56,-1
 50 200 l 1,38,39
550 200 m 1,57,58
 528 200 528 200 514 214 c 128,-1,59
 499.9375 228.0625 499.9375 228.0625 499.9375 247.3984375 c 0,60,61
 499.9375 270.9375 499.9375 270.9375 514 285 c 256,62,63
 529 300 529 300 550 300 c 256,64,65
 571 300 571 300 585 285 c 0,66,67
 600 270 600 270 600 250 c 256,68,69
 600 229 600 229 585 214 c 0,70,71
 570.9375 199.9375 570.9375 199.9375 552.48046875 199.9375 c 0,72,73
 551.25 199.9375 551.25 199.9375 550 200 c 1,74,-1
 550 200 l 1,57,58
425 322 m 1,75,-1
 425 322 l 1,76,-1
 425 322 l 1,77,-1
 425 322 l 1,78,-1
 425 322 l 1,75,-1
92 322 m 1,79,-1
 92 322 l 1,80,-1
 92 322 l 1,81,-1
 92 322 l 1,82,-1
 92 322 l 1,79,-1
258 322 m 1,83,-1
 258 322 l 1,84,-1
 258 322 l 1,85,-1
 258 322 l 1,86,-1
 258 322 l 1,83,-1
50 300 m 1,87,88
 29 300 29 300 15 314 c 0,89,90
 0 329 0 329 0 350 c 128,-1,91
 0 371 0 371 15 386 c 0,92,93
 29.0625 400.0625 29.0625 400.0625 47.51953125 400.0625 c 0,94,95
 48.75 400.0625 48.75 400.0625 50 400 c 256,96,97
 71 400 71 400 85 386 c 0,98,99
 89 382 89 382 92 378 c 1,100,-1
 92 378 l 1,101,102
 95 382 95 382 98 386 c 0,103,104
 112.0625 400.0625 112.0625 400.0625 130.51953125 400.0625 c 0,105,106
 131.75 400.0625 131.75 400.0625 133 400 c 256,107,108
 154 400 154 400 169 386 c 0,109,110
 173 382 173 382 175 378 c 1,111,-1
 175 378 l 1,112,113
 178 382 178 382 181 386 c 0,114,115
 195.0625 400.0625 195.0625 400.0625 213.51953125 400.0625 c 0,116,117
 214.75 400.0625 214.75 400.0625 216 400 c 256,118,119
 237 400 237 400 252 386 c 0,120,121
 256 382 256 382 258 378 c 1,122,-1
 258 378 l 1,123,124
 261 382 261 382 265 386 c 0,125,126
 279.0625 400.0625 279.0625 400.0625 297.51953125 400.0625 c 0,127,128
 298.75 400.0625 298.75 400.0625 300 400 c 256,129,130
 321 400 321 400 335 386 c 0,131,132
 339 382 339 382 342 378 c 1,133,-1
 342 378 l 1,134,135
 345 382 345 382 348 386 c 0,136,137
 362.0625 400.0625 362.0625 400.0625 381.3984375 400.0625 c 0,138,139
 382.6875 400.0625 382.6875 400.0625 384 400 c 0,140,141
 405 400 405 400 419 386 c 0,142,143
 423 382 423 382 425 378 c 1,144,-1
 425 378 l 1,145,146
 428 382 428 382 431 386 c 0,147,148
 445.0625 400.0625 445.0625 400.0625 464.3984375 400.0625 c 0,149,150
 465.6875 400.0625 465.6875 400.0625 467 400 c 256,151,152
 488 400 488 400 502 386 c 0,153,154
 506 382 506 382 508 378 c 1,155,-1
 508 378 l 1,156,157
 510 382 510 382 514 386 c 0,158,159
 528.0625 400.0625 528.0625 400.0625 547.3984375 400.0625 c 0,160,161
 548.6875 400.0625 548.6875 400.0625 550 400 c 256,162,163
 571 400 571 400 585 386 c 0,164,165
 600 371 600 371 600 350 c 128,-1,166
 600 329 600 329 585 314 c 0,167,168
 570.9375 299.9375 570.9375 299.9375 552.48046875 299.9375 c 0,169,170
 551.25 299.9375 551.25 299.9375 550 300 c 256,171,172
 528 300 528 300 514 314 c 0,173,174
 510 318 510 318 508 322 c 1,175,-1
 508 322 l 1,176,177
 505 318 505 318 502 314 c 0,178,179
 487.9375 299.9375 487.9375 299.9375 469.48046875 299.9375 c 0,180,181
 468.25 299.9375 468.25 299.9375 467 300 c 256,182,183
 446 300 446 300 431 314 c 0,184,185
 427 318 427 318 425 322 c 1,186,187
 422 318 422 318 419 314 c 0,188,189
 404.9375 299.9375 404.9375 299.9375 386.48046875 299.9375 c 0,190,191
 385.25 299.9375 385.25 299.9375 384 300 c 0,192,193
 363 300 363 300 348 314 c 0,194,195
 344 318 344 318 342 322 c 1,196,197
 339 318 339 318 335 314 c 0,198,199
 320.9375 299.9375 320.9375 299.9375 302.48046875 299.9375 c 0,200,201
 301.25 299.9375 301.25 299.9375 300 300 c 256,202,203
 279 300 279 300 265 314 c 0,204,205
 261 318 261 318 258 322 c 1,206,207
 255 318 255 318 252 314 c 0,208,209
 237.9375 299.9375 237.9375 299.9375 218.6015625 299.9375 c 0,210,211
 217.3125 299.9375 217.3125 299.9375 216 300 c 256,212,213
 195 300 195 300 181 314 c 0,214,215
 177 318 177 318 175 322 c 1,216,217
 172 318 172 318 169 314 c 0,218,219
 154.9375 299.9375 154.9375 299.9375 135.6015625 299.9375 c 0,220,221
 134.3125 299.9375 134.3125 299.9375 133 300 c 256,222,223
 112 300 112 300 98 314 c 0,224,225
 94 318 94 318 92 322 c 1,226,227
 89 318 89 318 85 314 c 0,228,229
 70.9375 299.9375 70.9375 299.9375 52.48046875 299.9375 c 0,230,231
 51.25 299.9375 51.25 299.9375 50 300 c 1,232,-1
 50 300 l 1,87,88
50 400 m 1,233,234
 29 400 29 400 15 414 c 0,235,236
 0 429 0 429 0 450 c 256,237,238
 0 471 0 471 15 485 c 0,239,240
 30 500 30 500 50 500 c 256,241,242
 71 500 71 500 85 485 c 0,243,244
 100 470 100 470 100 450 c 256,245,246
 100 429 100 429 85 414 c 256,247,248
 70.9375 399.9375 70.9375 399.9375 52.48046875 399.9375 c 0,249,250
 51.25 399.9375 51.25 399.9375 50 400 c 1,251,-1
 50 400 l 1,233,234
550 400 m 1,252,253
 528 400 528 400 514 414 c 256,254,255
 499.9375 428.0625 499.9375 428.0625 499.9375 447.3984375 c 0,256,257
 499.9375 470.9375 499.9375 470.9375 514 485 c 0,258,259
 529 500 529 500 550 500 c 256,260,261
 571 500 571 500 585 485 c 0,262,263
 600 470 600 470 600 450 c 256,264,265
 600 429 600 429 585 414 c 0,266,267
 570.9375 399.9375 570.9375 399.9375 552.48046875 399.9375 c 0,268,269
 551.25 399.9375 551.25 399.9375 550 400 c 1,270,-1
 550 400 l 1,252,253
50 500 m 1,271,272
 29 500 29 500 15 514 c 0,273,274
 0 529 0 529 0 550 c 256,275,276
 0 571 0 571 15 585 c 0,277,278
 30 600 30 600 50 600 c 256,279,280
 71 600 71 600 85 585 c 0,281,282
 100 570 100 570 100 550 c 256,283,284
 100 528 100 528 85 514 c 256,285,286
 70.9375 499.9375 70.9375 499.9375 52.48046875 499.9375 c 0,287,288
 51.25 499.9375 51.25 499.9375 50 500 c 1,289,-1
 50 500 l 1,271,272
550 500 m 1,290,291
 528 500 528 500 514 514 c 256,292,293
 499.9375 528.0625 499.9375 528.0625 499.9375 547.3984375 c 0,294,295
 499.9375 570.9375 499.9375 570.9375 514 585 c 0,296,297
 529 600 529 600 550 600 c 256,298,299
 571 600 571 600 585 585 c 0,300,301
 600 570 600 570 600 550 c 256,302,303
 600 528 600 528 585 514 c 0,304,305
 570.9375 499.9375 570.9375 499.9375 552.48046875 499.9375 c 0,306,307
 551.25 499.9375 551.25 499.9375 550 500 c 1,308,-1
 550 500 l 1,290,291
EndSplineSet
Validated: 524293
EndChar

